<?xml version="1.0" standalone="no"?>
<!DOCTYPE svg PUBLIC "-//W3C//DTD SVG 1.1//EN" "http://www.w3.org/Graphics/SVG/1.1/DTD/svg11.dtd" >
<svg xmlns="http://www.w3.org/2000/svg" xmlns:xlink="http://www.w3.org/1999/xlink" version="1.1">
<metadata></metadata>
<defs>
<font id="hapnaslabserifw00-demiboldRg" horiz-adv-x="1060" >
<font-face units-per-em="2048" ascent="1638" descent="-410" />
<missing-glyph horiz-adv-x="819" />
<glyph horiz-adv-x="0" />
<glyph unicode="&#xd;" horiz-adv-x="681" />
<glyph unicode=" "  horiz-adv-x="819" />
<glyph unicode="&#x09;" horiz-adv-x="819" />
<glyph unicode="&#xa0;" horiz-adv-x="819" />
<glyph unicode="!" horiz-adv-x="434" d="M102 94q0 53 32 85t81 32q53 0 85 -32t32 -85q0 -49 -32 -81q-31 -31 -85 -31q-50 0 -81 31q-32 32 -32 81zM117 379v1055h192v-1055h-192z" />
<glyph unicode="&#x22;" horiz-adv-x="757" d="M102 969v35q13 7 30 26q15 18 35 49q18 28 30 62q11 31 16 67q-46 1 -77 34q-30 32 -30 79q0 53 32 85t81 32q65 0 98 -38t33 -106q0 -51 -11 -91q-12 -45 -40 -84q-26 -36 -76 -77q-38 -31 -121 -73zM410 975v35q12 6 29 26q15 18 35 49q18 28 30 62q11 31 16 67 q-46 1 -77 34q-29 30 -29 79q0 54 31 85q32 32 81 32q66 0 99 -38q32 -36 32 -106q0 -51 -11 -91q-12 -45 -40 -84q-24 -34 -76 -76q-43 -35 -120 -74z" />
<glyph unicode="#" horiz-adv-x="1361" d="M102 430l37 160h193l49 227h-193l37 160h193l104 457h213l-102 -457h217l104 457h213l-104 -457h197l-37 -160h-197l-49 -227h194l-36 -160h-197l-98 -430h-213l98 430h-217l-98 -430h-213l98 430h-193zM545 590h217l49 227h-217z" />
<glyph unicode="$" horiz-adv-x="1144" d="M106 367h224l2 -80q8 -146 160 -146h104q110 0 166 57q55 56 55 177q0 55 -13 95q-13 41 -44 75q-33 36 -94 59q-59 22 -152 45q-75 18 -146 48q-75 31 -130 85q-50 47 -80 118q-31 73 -31 169q0 161 82 256q83 97 242 115l20 2v94h191v-92l20 -2q320 -30 328 -375h-222 l-4 84q-12 139 -161 139l-58 -4q-207 0 -207 -221q0 -50 14 -90q14 -41 46 -70q35 -32 87 -52q53 -21 134 -42q99 -23 170 -52q73 -30 119 -75q119 -111 119 -315q0 -158 -86 -261q-85 -101 -259 -118l-36 -2v-86h-191v88l-35 2q-159 15 -244 104q-85 90 -90 271z" />
<glyph unicode="%" horiz-adv-x="1564" d="M102 967v239q0 70 23 114q23 45 58 71q33 25 83 36q49 11 96 11q52 0 100 -12q52 -13 83 -37q35 -27 56 -71q22 -46 22 -110v-243q0 -66 -22 -112q-21 -44 -57 -71q-35 -26 -83 -37q-44 -10 -99 -10q-52 0 -96 10q-47 11 -83 36q-35 25 -58 71t-23 115zM238 -18l913 1472 h174l-913 -1472h-174zM246 940q0 -64 32 -85t84 -21q58 0 87 23q30 24 30 83v291q0 59 -32 83q-30 23 -85 23q-54 0 -84 -23q-32 -24 -32 -83v-291zM944 221l2 240q0 67 22 113q22 45 58 71q37 27 83 37q44 10 95 10q52 0 100 -12q46 -12 82 -38q36 -27 57 -70 q21 -44 21 -109v-244q0 -67 -21 -111q-21 -43 -58 -71q-35 -26 -82 -37q-44 -10 -99 -10q-52 0 -96 10q-47 11 -83 36t-58 70q-23 46 -23 115zM1090 190q0 -64 31 -85t85 -21q55 0 86 25t31 84l2 288q0 59 -33 83t-86 24q-54 0 -85 -24t-31 -83v-291z" />
<glyph unicode="&#x26;" horiz-adv-x="1222" d="M102 348v98q0 48 15 95q15 48 43 87q27 39 72 68q43 28 104 39q-54 12 -94 41q-39 29 -65 68q-27 41 -38 85q-12 47 -12 95v82q0 165 113 251q112 85 303 85h162l-3 -158l-141 -4q-103 0 -155 -55q-54 -57 -54 -148v-55q0 -100 47 -159q46 -58 172 -58h265v366h221v-366 h61v-158h-61v-293q0 -179 -95 -271q-94 -91 -307 -91h-123q-200 0 -315 86t-115 270zM330 375q0 -103 55 -164t168 -61h123q90 0 123 39q34 40 39 94v362h-275q-126 0 -179 -52q-54 -53 -54 -151v-67z" />
<glyph unicode="'" horiz-adv-x="452" d="M102 975v35q13 7 30 26q15 18 35 49q18 28 30 62q11 31 16 67q-46 1 -77 34q-30 32 -30 79q0 53 32 85t81 32q65 0 98 -38t33 -106q0 -51 -11 -91q-12 -45 -40 -84q-24 -34 -76 -76q-41 -33 -121 -74z" />
<glyph unicode="(" horiz-adv-x="598" d="M102 -84v1391q0 103 69 166t173 63h152v-158l-150 -2q-20 0 -35 -15q-14 -14 -14 -40v-1421q0 -26 14 -40q16 -16 35 -16h150v-157h-152q-104 0 -173 63t-69 166z" />
<glyph unicode=")" horiz-adv-x="598" d="M102 -154h150q19 0 35 16q14 14 14 40v1421q0 26 -14 40q-15 15 -35 15h-150v158l152 2q104 0 173 -63t69 -166v-1391q0 -103 -69 -166t-173 -63h-152v157z" />
<glyph unicode="*" horiz-adv-x="1007" d="M100 1100l66 198l244 -90l-11 258h209l-10 -258l240 90l65 -198l-250 -70l162 -203l-170 -122l-143 215l-144 -215l-170 122l162 203z" />
<glyph unicode="+" horiz-adv-x="1093" d="M102 551v160h349v352h192v-352l348 -2v-158h-348v-352h-192v352h-349z" />
<glyph unicode="," horiz-adv-x="452" d="M102 -221q13 7 30 26q11 12 35 49q18 28 30 61q11 32 16 67q-47 2 -77 33t-30 79q0 53 32 85t81 32q65 0 98 -38q33 -37 33 -105q0 -52 -11 -92q-12 -45 -40 -84q-24 -34 -76 -76q-41 -33 -121 -74v37z" />
<glyph unicode="-" horiz-adv-x="831" d="M102 516v160h627v-160h-627z" />
<glyph unicode="." horiz-adv-x="434" d="M102 96q0 53 32 85t81 32q53 0 85 -32t32 -85q0 -49 -32 -81q-31 -31 -85 -31q-50 0 -81 31q-32 32 -32 81z" />
<glyph unicode="/" horiz-adv-x="1058" d="M102 -2l641 1436h213l-641 -1436h-213z" />
<glyph unicode="0" horiz-adv-x="1204" d="M117 426v502q0 233 111 338q110 104 319 104h110q205 0 318 -105q112 -105 112 -337v-502q0 -234 -112 -339q-113 -105 -318 -105h-110q-208 0 -319 105t-111 339zM342 432q0 -157 52 -222q53 -67 184 -67h49q130 0 183 67q52 65 52 222v492q0 158 -52 223t-183 65h-49 q-132 0 -184 -65t-52 -219v-496z" />
<glyph unicode="1" horiz-adv-x="643" d="M137 0v150l72 8v1036h-72v158h297v-1194l72 -8v-150h-369z" />
<glyph unicode="2" d="M66 952v45q6 187 112 280q107 93 295 93h100q191 0 298 -101q108 -102 108 -282v-41q-1 -94 -37 -170q-34 -73 -89 -129q-51 -52 -122 -95q-66 -40 -137 -69q-68 -27 -128 -60q-55 -30 -94 -71q-38 -40 -59 -86q-20 -44 -20 -108h471l10 75h211v-233h-917v160 q0 186 106 299q107 114 289 186q149 61 218 131q71 73 71 174v33q0 227 -207 227h-88q-78 0 -120 -39t-42 -124l-4 -95h-225z" />
<glyph unicode="3" horiz-adv-x="1107" d="M76 346v41h225l4 -94q0 -141 162 -141h121q113 0 168 61t55 164v31q0 98 -54 150q-53 52 -179 52h-127v158h116q126 0 172 58q47 59 47 159v21q0 91 -53 147q-52 55 -155 55h-105q-79 0 -120 -34q-42 -34 -42 -99l-4 -94h-225v45q6 162 113 252t292 90h109q191 0 303 -85 q113 -86 113 -251l-2 -47q0 -45 -13 -95q-11 -44 -38 -85t-64 -68q-40 -29 -94 -41q59 -10 103 -39q47 -31 73 -68q28 -39 43 -87q14 -43 14 -94v-62q0 -184 -114 -270q-115 -86 -316 -86h-123q-186 0 -294 93q-106 92 -111 263z" />
<glyph unicode="4" horiz-adv-x="1120" d="M59 389v158l629 805h225v-805h72v-158h-72v-250l72 -8v-131h-369v131l72 8v250h-629zM264 547h424v559z" />
<glyph unicode="5" horiz-adv-x="1085" d="M61 356v41h226l4 -94q0 -145 162 -145h120q113 0 168 62q56 64 56 167v92q0 109 -55 162t-179 53h-446v658h833v-260l-217 2l-8 102h-387v-342h309q175 0 275 -89q98 -88 98 -255v-154q0 -185 -115 -273q-114 -87 -315 -87h-123q-181 0 -289 93q-110 94 -117 267z" />
<glyph unicode="6" horiz-adv-x="1202" d="M117 426v502q0 233 111 338q110 104 319 104l102 -4q95 0 171 -21q74 -20 133 -67q56 -44 88 -116q31 -70 36 -167v-26h-225l-4 92q-5 78 -46 114q-41 35 -116 35h-108q-132 0 -184 -65t-52 -219v-176q40 63 108 92q65 28 142 28h70q206 0 317 -101q113 -102 113 -316 v-50q0 -216 -113 -318q-111 -101 -317 -101h-115q-127 0 -218 39q-94 40 -145 122q-20 31 -37 78q-30 83 -30 203zM350 401q0 -138 52 -200q53 -64 184 -64h49q130 0 183 64q52 62 52 200v39q0 142 -52 204q-52 63 -183 63h-49q-131 0 -184 -66q-52 -65 -52 -197v-43z" />
<glyph unicode="7" horiz-adv-x="1013" d="M57 1092v260h897l-2 -156q-58 -70 -118 -147q-64 -82 -96 -128q-40 -57 -72 -118q-34 -65 -54 -119q-24 -67 -38 -132q-16 -73 -23 -151q-8 -91 -11 -180q-3 -99 -3 -219h-226q0 135 4 226q4 93 14 187q9 87 25 156q17 75 43 138q46 116 123 226q80 113 203 259h-444 l-9 -102h-213z" />
<glyph unicode="8" horiz-adv-x="1132" d="M82 369v26q0 123 54 205q53 82 145 109q-73 27 -119 99q-47 73 -47 179v29q0 178 108 269q107 91 301 91h86q191 0 300 -91q110 -92 110 -269l-2 -33q0 -106 -47 -179q-46 -72 -119 -99q90 -27 145 -109q56 -83 56 -205v-24q0 -192 -113 -290q-112 -97 -317 -97h-111 q-208 0 -318 98q-112 100 -112 291zM305 373q0 -114 52 -173q53 -61 184 -61h49q130 0 183 61q52 59 52 173v14q0 117 -52 175q-53 59 -183 59h-49q-131 0 -184 -59q-52 -58 -52 -171v-18zM338 987q0 -101 49 -154q50 -55 166 -55h25q115 0 165 55t50 154v19q0 103 -50 155 q-49 51 -165 51h-25q-117 0 -166 -51q-49 -50 -49 -151v-23z" />
<glyph unicode="9" horiz-adv-x="1202" d="M111 901v49q0 217 112 319q111 101 318 101h114q127 0 218 -39q93 -40 145 -123q20 -31 37 -78q30 -84 30 -202v-502q0 -233 -111 -338q-110 -104 -319 -104l-102 4q-95 0 -171 21q-74 20 -133 67q-56 44 -89 115q-34 72 -35 167v27h225l4 -92q5 -78 46 -114 q42 -36 116 -36h109q131 0 183 66q52 65 52 219v176q-41 -63 -107 -92q-67 -29 -143 -29h-69q-205 0 -318 102q-112 102 -112 316zM332 913q0 -141 52 -203q52 -63 183 -63h49q132 0 184 66q52 65 52 196v43q0 139 -52 201q-53 64 -184 64h-49q-130 0 -183 -64 q-52 -62 -52 -201v-39z" />
<glyph unicode=":" horiz-adv-x="434" d="M102 96q0 53 32 85t81 32q53 0 85 -32t32 -85q0 -49 -32 -81q-31 -31 -85 -31q-50 0 -81 31q-32 32 -32 81zM102 924q0 53 32 85q31 31 81 31q54 0 85 -31q32 -32 32 -85q0 -49 -32 -81t-85 -32q-49 0 -81 32t-32 81z" />
<glyph unicode=";" horiz-adv-x="452" d="M102 -221q13 7 30 26q11 12 35 49q18 28 30 61q11 32 16 67q-47 2 -77 33t-30 79q0 53 32 85t81 32q65 0 98 -38q33 -37 33 -105q0 -52 -11 -92q-12 -45 -40 -84q-24 -34 -76 -76q-41 -33 -121 -74v37zM106 924q0 53 32 85q31 31 81 31q54 0 85 -31q32 -32 32 -85 q0 -49 -32 -81t-85 -32q-49 0 -81 32t-32 81z" />
<glyph unicode="&#x3c;" horiz-adv-x="909" d="M102 629v104l705 459v-197l-447 -315l447 -315v-195z" />
<glyph unicode="=" horiz-adv-x="1130" d="M102 451v159h926v-159h-926zM102 780v160h926v-160h-926z" />
<glyph unicode="&#x3e;" horiz-adv-x="909" d="M102 170v195l447 315l-447 315v195l705 -459v-100z" />
<glyph unicode="?" horiz-adv-x="1116" d="M102 967v59q0 204 108 306t300 102h98q190 0 298 -102t108 -281v-41q0 -74 -18 -125q-18 -50 -48 -88q-30 -37 -72 -66q-35 -24 -94 -55q-25 -14 -69 -40q-33 -20 -56 -44q-21 -22 -35 -57q-14 -34 -14 -80v-60h-192v47q0 61 7 106q8 49 30 89q24 42 64 80q42 39 114 78 q32 18 66 40q28 18 49 44q19 23 31 58q11 32 11 81v29q0 227 -206 227h-88q-78 0 -120 -39t-42 -125l-4 -143h-226zM397 96q0 53 32 85t81 32q53 0 85 -32t32 -85q0 -49 -32 -81q-31 -31 -85 -31q-50 0 -81 31q-32 32 -32 81z" />
<glyph unicode="@" horiz-adv-x="1849" d="M100 453v122q0 200 41 346q40 142 133 238q90 93 241 139q154 47 362 48h71q264 0 423 -49q157 -48 239 -141q82 -92 106 -228q25 -141 25 -312v-317q0 -66 -14 -125q-14 -58 -47 -97q-36 -42 -93 -62q-60 -21 -151 -21h-64q-90 1 -145 33q-53 30 -64 120 q-34 -88 -103 -125q-70 -38 -188 -38h-79q-156 0 -246 96t-90 311v244q0 213 90 309t246 96h79q119 0 188 -31t103 -100v115h226v-131l-72 -8v-647q0 -60 24 -82q25 -23 78 -23h29q65 0 82 32q16 31 16 103v367q0 143 -14 242q-15 107 -73 180q-59 73 -177 111 q-120 38 -328 38h-88q-168 -1 -281 -38t-176 -111q-66 -78 -91 -195q-25 -116 -25 -284v-121q1 -166 34 -288q31 -118 104 -192q70 -71 192 -107q117 -34 292 -34h424v-139h-426q-214 0 -365 37q-152 37 -251 124q-98 86 -146 232q-50 150 -51 363zM655 412q0 -158 46 -223 q47 -66 167 -66h41q121 0 168 66q47 67 47 223v200q0 156 -47 223q-47 66 -168 66h-41q-121 0 -167 -65t-46 -220v-204z" />
<glyph unicode="A" horiz-adv-x="1343" d="M57 0v150l68 8l432 1276h229l433 -1276l67 -8v-150h-362v150l67 8l-108 327h-453l-108 -327l67 -8v-150h-332zM481 647h350l-174 529z" />
<glyph unicode="B" horiz-adv-x="1169" d="M137 1284v150l572 2q191 0 289 -81t98 -253v-68q0 -43 -13 -92q-12 -45 -36 -84q-23 -37 -63 -66q-39 -28 -89 -40q59 -11 98 -40q41 -30 68 -71q26 -39 40 -87q14 -47 15 -91v-117q0 -97 -23 -159q-24 -65 -73 -105q-50 -41 -122 -59q-76 -19 -169 -19h-590v150l66 8 v1114zM432 164h254q118 0 161 56q40 53 40 137v16v96q-1 87 -44 142t-159 55h-252v-502zM432 823h234q116 0 159 57q43 56 43 148v55q0 88 -43 141q-43 54 -159 54h-234v-455z" />
<glyph unicode="C" horiz-adv-x="1153" d="M117 426v580q0 232 111 337t319 105h106q202 0 308 -91t118 -294h-221l-4 80q-4 81 -48 113t-112 32h-121q-131 0 -183 -65t-52 -219v-574q0 -157 52 -222q53 -67 183 -67h121q77 0 118 37q43 38 44 123l4 107h223q-4 -223 -109 -325q-104 -101 -317 -101h-110 q-208 0 -319 105t-111 339z" />
<glyph unicode="D" horiz-adv-x="1265" d="M137 2v150l68 8v1116l-68 8v150l582 4q203 0 317 -106q113 -105 113 -337v-549q0 -233 -113 -338q-114 -106 -317 -106h-582zM430 164h258q130 0 183 66q53 67 53 223v538q0 156 -53 223q-53 66 -183 66h-258v-1116z" />
<glyph unicode="E" d="M135 0v150l66 8v1118l-66 8v150h856v-230l-170 -2l-8 72h-385v-455h428v-160h-428v-501h385l8 71h170v-229h-856z" />
<glyph unicode="F" horiz-adv-x="1050" d="M135 0v150l66 8v1118l-66 8v150h846v-230l-170 -2l-8 72h-375v-467h406v-160h-406v-489l68 -8v-150h-361z" />
<glyph unicode="G" horiz-adv-x="1222" d="M131 428v580q0 232 112 338q110 104 318 104h111q199 0 305 -91q107 -92 119 -294h-222l-4 80q-4 81 -48 113t-111 32h-121q-131 0 -183 -65q-53 -67 -53 -219v-574q0 -155 53 -222t183 -67h121q76 0 117 37q43 38 44 123l5 332h-248v158h469l2 -367q-1 -232 -109 -338 q-105 -104 -319 -104h-111q-207 0 -318 105q-112 106 -112 339z" />
<glyph unicode="H" horiz-adv-x="1361" d="M137 2v150l68 8v1116l-68 8v150h363v-150l-68 -8v-451h498v451l-68 8v150h363v-150l-68 -8v-1116l68 -8v-150h-363v150l68 8v506h-498v-506l68 -8v-150h-363z" />
<glyph unicode="I" horiz-adv-x="636" d="M135 1284v150h365v-150l-68 -8v-1116l68 -8v-150h-363v150l68 8v1116z" />
<glyph unicode="J" horiz-adv-x="1153" d="M55 383h221l5 -90q5 -79 40 -114q36 -36 105 -36h94q107 0 154 67t47 222v844l-68 8v150h363v-150l-68 -8l-4 -848q0 -235 -104 -339q-105 -105 -291 -105h-103q-186 0 -283 93t-108 306z" />
<glyph unicode="K" horiz-adv-x="1241" d="M133 0v150l68 8v1116l-68 8v150h363v-150l-68 -8v-465h172l352 625h195v-150l-70 -12l-282 -488l79 -4q117 -30 176 -125q58 -94 58 -211v-288l72 -9v-149h-297v403q0 50 -11 97t-36 79q-26 33 -75 53q-47 19 -124 19h-209v-491l68 -8v-150h-363z" />
<glyph unicode="L" horiz-adv-x="1069" d="M137 2v150l68 8v1114l-68 8v150h363v-150l-68 -8v-1116h402l10 159h168v-317z" />
<glyph unicode="M" horiz-adv-x="1699" d="M127 2v150l68 8v1116l-68 8v150h422l307 -945l293 945h414v-150l-66 -8v-1116l68 -8v-150h-363v150l68 8v1085l-381 -1243h-133l-377 1243v-1085l67 -8v-150h-319z" />
<glyph unicode="N" horiz-adv-x="1370" d="M127 2v150l68 8v1116l-68 8v150h270l594 -1016v858l-69 8v150h321v-150l-67 -6v-1276h-203l-594 1018v-860l67 -8v-150h-319z" />
<glyph unicode="O" horiz-adv-x="1204" d="M117 426v580q0 232 111 337t319 105h110q204 0 318 -106q112 -105 112 -336v-580q0 -234 -112 -339q-113 -105 -318 -105h-110q-208 0 -319 105t-111 339zM342 432q0 -157 52 -222q53 -67 184 -67h49q130 0 183 67q52 65 52 222v569q0 159 -52 224t-183 65h-49 q-132 0 -184 -65t-52 -219v-574z" />
<glyph unicode="P" horiz-adv-x="1228" d="M137 2v150l68 8v1116l-68 8v150h578q188 0 293 -87q104 -86 104 -253v-99q0 -176 -104 -270t-293 -94h-283v-471l68 -8v-150h-363zM432 791h252q116 0 159 56q44 58 44 148v86q0 86 -44 141q-43 54 -159 54h-252v-485z" />
<glyph unicode="Q" horiz-adv-x="1230" d="M117 426v580q0 232 111 337t319 105l110 -2q204 0 318 -106q112 -105 112 -336v-580q0 -101 -26 -169q-27 -71 -74 -116h146v-157h-586q-208 0 -319 105t-111 339zM342 430q0 -157 52 -222q53 -67 184 -67h69q121 5 168 72q47 68 47 217v569q0 159 -52 224t-183 65h-49 q-132 0 -184 -65t-52 -219v-574z" />
<glyph unicode="R" horiz-adv-x="1241" d="M137 2v150l68 8v1116l-68 8v150h576q193 0 296 -87t103 -253v-95q0 -117 -46 -194q-47 -79 -124 -113q77 -28 124 -105q46 -76 46 -165v-260l72 -8v-154h-297v410q0 120 -46 172q-47 53 -167 53h-242v-475l68 -8v-150h-363zM430 795h252q117 0 160 56t43 148v82 q0 88 -43 141q-43 54 -160 54h-252v-481z" />
<glyph unicode="S" horiz-adv-x="1095" d="M109 354h223l2 -73q15 -134 160 -134h129q129 0 179 57q50 58 50 177q0 62 -13 107q-13 46 -51 81q-38 34 -102 51q-52 14 -170 31q-67 10 -143 32q-70 21 -127 71q-54 48 -85 120q-32 75 -32 185q0 177 101 282q102 107 305 107l108 8q198 0 295 -92q95 -91 106 -272 h-221l-6 82q-11 66 -50 94q-40 28 -108 28h-77q-115 0 -170 -49q-56 -50 -56 -172q0 -107 60 -164q34 -34 96 -55q57 -19 160 -35q100 -16 172 -42q74 -26 119 -70q64 -58 91 -141q27 -82 27 -193q0 -174 -101 -279q-102 -106 -308 -106h-131q-202 0 -312 88 q-110 87 -120 276z" />
<glyph unicode="T" horiz-adv-x="1122" d="M59 1178v256h1006v-256h-168l-10 96h-211v-1116l67 -8v-150h-362v150l68 8v1116h-211l-11 -96h-168z" />
<glyph unicode="U" horiz-adv-x="1320" d="M137 1284v150h363v-150l-68 -8v-844q0 -156 51 -222q52 -67 181 -67h49q128 0 180 67q51 66 51 222v844l-67 8v150h319v-150l-70 -8v-848q0 -118 -28 -201q-28 -82 -82 -138q-53 -54 -128 -80q-74 -25 -169 -25h-88q-204 0 -315 105t-111 339v848z" />
<glyph unicode="V" horiz-adv-x="1341" d="M55 1284v150h367v-150l-68 -8l332 -1026l332 1026l-68 8v150h334v-150l-74 -8l-426 -1276h-235l-426 1276z" />
<glyph unicode="W" horiz-adv-x="2086" d="M59 1284v150h367v-150l-70 -8l308 -1008l317 1168h164l317 -1168l307 1008l-67 8v150h328v-150l-66 -8l-408 -1276h-231l-281 989l-278 -989h-231l-408 1276z" />
<glyph unicode="X" horiz-adv-x="1267" d="M55 -2v149l68 9l385 563l-371 555l-67 8v150h393v-150l-68 -8l248 -381l252 381l-68 8v150h367v-150l-68 -8l-368 -541l385 -575l67 -8v-150l-397 -2v149l68 9l-260 403l-267 -403l68 -9v-149h-367z" />
<glyph unicode="Y" horiz-adv-x="1320" d="M57 1284v150h392v-150l-68 -8l299 -541l301 541l-68 8v150h351v-150l-68 -8l-412 -698v-418l68 -8v-150h-383v150l68 8v415l-412 701z" />
<glyph unicode="Z" horiz-adv-x="1097" d="M68 0v158l688 1116h-475l-9 -98h-170v258h906v-158l-686 -1116h530l8 98h170v-258h-962z" />
<glyph unicode="[" horiz-adv-x="540" d="M102 -313v1849h336v-158l-143 -2v-1532h143v-157h-336z" />
<glyph unicode="\" horiz-adv-x="1058" d="M102 1434h213l641 -1436h-211z" />
<glyph unicode="]" horiz-adv-x="540" d="M102 -154h144v1532h-144v158h336v-1849l-336 2v157z" />
<glyph unicode="^" horiz-adv-x="946" d="M102 918l371 501l371 -501h-170l-201 276l-201 -276h-170z" />
<glyph unicode="_" horiz-adv-x="1130" d="M102 -125h926v-158h-926v158z" />
<glyph unicode="`" horiz-adv-x="587" d="M102 1454h234l149 -274h-178z" />
<glyph unicode="a" horiz-adv-x="1175" d="M100 391v244q0 213 90 309t246 96l78 -2q116 0 187 -38t104 -130v152h225v-131l-72 -8v-658q0 -59 14 -82q13 -22 66 -22h23v-139h-68q-83 0 -129 34t-57 131q-34 -87 -104 -125t-187 -38h-80q-156 0 -246 96t-90 311zM295 410q0 -158 46 -223q47 -66 167 -66h41 q121 0 168 66q47 67 47 223v200q0 156 -47 223q-47 66 -168 66h-41q-121 0 -167 -65t-46 -220v-204z" />
<glyph unicode="b" horiz-adv-x="1146" d="M115 1303v131h266v-523q33 67 97 98q63 31 151 31h80q153 0 244 -96q91 -95 91 -309v-244q0 -215 -90 -311t-243 -96h-80q-118 0 -188 38q-69 37 -103 125v-147h-154v1294zM383 412q0 -158 46 -223q46 -66 167 -66h41q121 0 168 66q47 67 47 223v202q0 155 -47 222 q-46 65 -168 65h-41q-121 0 -167 -66q-46 -65 -46 -223v-200z" />
<glyph unicode="c" horiz-adv-x="1040" d="M102 391v244q0 214 96 310q95 95 287 95h88q178 0 268 -78q91 -79 107 -257h-190l-6 86q-21 110 -129 110h-113q-121 0 -167 -65t-46 -220v-204q0 -158 46 -223q47 -66 167 -66h113q110 0 131 117l4 82h190q-17 -180 -105 -259t-268 -79h-90q-190 0 -286 96 q-97 97 -97 311z" />
<glyph unicode="d" horiz-adv-x="1175" d="M98 393v244q0 213 90 309t246 96h80q87 0 152 -31q64 -31 98 -100v383l-70 9v131h267l-3 -1205v-8q0 -53 12 -74q13 -22 66 -22h23v-139h-68q-82 0 -128 33q-48 34 -58 133q-34 -87 -104 -127q-69 -39 -187 -39h-80q-156 0 -246 96t-90 311zM295 414q0 -158 46 -223 q47 -66 167 -66h41q121 0 168 66q47 67 47 223v200q0 156 -47 223q-47 66 -168 66h-41q-121 0 -167 -65t-46 -220v-204z" />
<glyph unicode="e" horiz-adv-x="1046" d="M102 391v244q0 214 96 310q95 95 287 95l93 -2q188 0 282 -94q95 -95 96 -305v-176h-659v-51q0 -158 46 -223q47 -66 167 -66h41q107 0 154 50q46 49 57 165h190q-12 -186 -104 -270t-273 -84h-90q-190 0 -286 96q-97 97 -97 311zM297 602h469v57q-5 131 -53 185 q-49 55 -160 55l-41 2q-113 0 -162 -55q-48 -54 -53 -184v-60z" />
<glyph unicode="f" horiz-adv-x="645" d="M74 885v139h84v12q0 216 99 312t280 96h34l2 -141q-120 0 -170 -64q-49 -63 -51 -215h221v-139h-221v-746l72 -8v-131h-338v131l72 8v746h-84z" />
<glyph unicode="g" horiz-adv-x="1146" d="M100 391v244q0 214 91 309q91 96 245 96l78 2q118 0 186 -37q70 -38 103 -128v149h225v-125l-72 -8v-830q0 -221 -99 -318q-98 -97 -279 -97h-357v139h330q102 0 154 55q52 54 57 185v67q-68 -110 -248 -110h-80q-154 0 -244 96t-90 311zM293 412q0 -156 47 -223 q46 -66 168 -66h41q121 0 167 66q46 65 46 223v202q0 158 -46 223q-46 66 -167 66l-41 -2q-122 0 -168 -65q-47 -67 -47 -222v-202z" />
<glyph unicode="h" horiz-adv-x="1232" d="M123 0v131l72 8v1155l-72 9v131h266v-529q35 70 101 103q64 32 149 32h80q78 0 137 -23q64 -25 106 -73q44 -50 68 -126q25 -80 25 -183v-496l71 -8v-131l-266 2v614q0 156 -48 222q-47 65 -167 65h-41q-114 0 -164 -65q-51 -66 -51 -224v-475l72 -8v-131h-338z" />
<glyph unicode="i" horiz-adv-x="579" d="M125 0v131l72 8v746l-72 8v131h266v-885l72 -8v-131h-338zM168 1284q0 53 32 85t81 32q53 0 85 -32q31 -31 31 -85q0 -50 -31 -81q-32 -32 -85 -32q-49 0 -81 32t-32 81z" />
<glyph unicode="j" horiz-adv-x="667" d="M115 -207q130 0 180 67q49 65 49 220v805l-72 8v131h267l-2 -965q0 -215 -100 -310t-279 -95h-43v139zM315 1286q0 53 32 85t81 32q53 0 85 -32t32 -85q0 -49 -32 -81q-31 -31 -85 -31q-50 0 -81 31q-32 32 -32 81z" />
<glyph unicode="k" horiz-adv-x="1103" d="M125 0v131l72 8v1155l-72 9v131h266v-863l318 312l-72 8v131h354v-131l-71 -8l-254 -252l315 -494l72 -8v-131h-189l-323 512l-150 -137v-234l72 -8v-131h-338z" />
<glyph unicode="l" horiz-adv-x="569" d="M125 0v131l72 8v1155l-72 9v131h266v-1295l72 -8v-131h-338z" />
<glyph unicode="m" horiz-adv-x="1886" d="M113 2v131l71 8v746l-71 8v131h225v-158q35 92 106 132t185 40h80q98 0 169 -43q72 -44 111 -151q38 103 112 149q72 45 191 45h80q78 0 137 -23q64 -25 106 -73q44 -50 68 -126q25 -80 25 -183v-496l72 -8v-131l-264 6v615q0 154 -49 221q-47 65 -167 65h-40 q-114 0 -164 -65q-52 -67 -52 -224v-475l72 -8v-131h-266v614q0 156 -48 222q-47 65 -167 65h-41q-114 0 -164 -65q-51 -66 -51 -224v-475l72 -8v-131h-338z" />
<glyph unicode="n" horiz-adv-x="1222" d="M113 0v131l71 8v746l-71 8v131h225v-158q34 94 106 134q71 40 185 40h80q78 0 137 -23q62 -24 105 -73q46 -52 69 -126q24 -76 24 -183v-496l72 -8v-131l-266 2v614q0 156 -48 222q-47 65 -167 65h-41q-114 0 -164 -65q-51 -66 -51 -224v-475l72 -8v-131h-338z" />
<glyph unicode="o" d="M102 391v244q0 214 96 310q95 95 287 95h90q190 0 287 -95q96 -95 96 -310v-244q0 -215 -97 -311t-286 -96h-90q-190 0 -286 96q-97 97 -97 311zM297 412q0 -158 46 -223q47 -66 167 -66h41q121 0 168 66q47 67 47 223v200q0 156 -47 223q-47 66 -168 66h-41 q-121 0 -167 -65t-46 -220v-204z" />
<glyph unicode="p" horiz-adv-x="1185" d="M125 883v139h68q79 0 128 -32q47 -31 58 -118q34 88 103 127t188 39l80 -2q155 0 245 -96t90 -311v-244q0 -213 -90 -309t-245 -96h-80q-88 0 -151 31t-97 100v-338l72 -9v-131h-338v131l71 9v1005q0 60 -13 82q-14 23 -67 23h-22zM422 408q0 -83 11 -134q12 -56 36 -90 t66 -50q41 -15 102 -15h41q121 0 167 65t46 219v205q0 157 -46 222q-47 67 -167 67h-41q-121 0 -168 -67t-47 -222v-200z" />
<glyph unicode="q" horiz-adv-x="1146" d="M100 389v244q0 215 90 311t246 96h80q118 0 187 -39q70 -40 104 -127v150h151v-1249l72 -8v-132l-338 3v131l72 8v338q-34 -69 -97 -100t-151 -31h-80q-156 0 -246 96t-90 309zM295 410q0 -155 46 -220t167 -65h41q61 0 102 15q42 16 66 50t36 91q11 51 11 133v200 q0 156 -47 223q-47 66 -168 66h-41q-120 0 -167 -66q-46 -65 -46 -223v-204z" />
<glyph unicode="r" horiz-adv-x="743" d="M115 0v131l71 8v746l-71 8v131h225v-152q44 87 120 127q77 41 193 41h39v-139h-47q-57 0 -105 -15q-47 -15 -84 -50q-36 -35 -56 -92q-19 -56 -19 -138v-467l72 -8v-131h-338z" />
<glyph unicode="s" horiz-adv-x="929" d="M55 293h191l4 -53q5 -60 43 -87q40 -28 92 -28h107q87 0 135 31q47 30 47 118q0 35 -8 64q-7 24 -33 47q-50 47 -193 68q-60 9 -83 13q-48 9 -81 20q-38 13 -73 33t-62 50q-27 32 -46 82q-17 44 -17 115q0 69 25 119q25 51 73 86q45 33 113 52q62 17 145 17h64 q148 0 240 -76q93 -77 98 -241h-191l-4 68q-4 57 -41 83q-38 27 -90 27h-64q-95 0 -138 -35q-42 -34 -42 -118q0 -39 10 -63q10 -25 27 -42q36 -36 93 -43q58 -8 120 -18q82 -11 151 -34q64 -21 105 -59q48 -35 70 -89q22 -53 22 -136q0 -140 -99 -209t-257 -69h-115 q-67 0 -129 18q-59 17 -107 56q-45 36 -73 96q-28 58 -29 137z" />
<glyph unicode="t" horiz-adv-x="645" d="M74 885v139h84v268h194v-268h219v-139h-221v-473q0 -160 50 -225q49 -64 171 -64v-139h-34q-181 0 -280 96t-99 311v494h-84z" />
<glyph unicode="u" horiz-adv-x="1204" d="M102 889v131h267v-604q0 -157 44 -221t158 -64h25q106 0 171 66q64 65 64 223v465l-71 8v131h266v-885l72 -8v-131l-228 -4v180q-72 -186 -333 -186h-37q-150 0 -238 94t-88 311v486z" />
<glyph unicode="v" horiz-adv-x="1116" d="M49 891v131h338v-131l-72 -8l263 -690l260 692l-72 8v131h301v-131l-72 -10l-340 -885h-194l-340 885z" />
<glyph unicode="w" horiz-adv-x="1785" d="M49 893v131h338v-131l-72 -8l228 -660l270 799h195l270 -799l227 660l-71 8v131h301v-131l-72 -8l-307 -885h-195l-268 797l-270 -797h-195l-307 885z" />
<glyph unicode="x" horiz-adv-x="1044" d="M49 2v131l72 8l293 369l-281 375l-72 8v131h379v-131l-71 -8l172 -246l182 246l-72 8v131h332v-131l-72 -6l-280 -355l293 -391l71 -8v-131h-379v131l72 8l-186 262l-191 -262l72 -8v-131h-334z" />
<glyph unicode="y" horiz-adv-x="1116" d="M51 893v131h338v-131l-72 -8l258 -697l263 697l-72 8v131h301v-131l-68 -8l-471 -1225h-266v141h162l76 199l-39 8l-338 877z" />
<glyph unicode="z" horiz-adv-x="880" d="M72 0v139l497 746h-352l-8 -107h-117v246h696v-139l-497 -746h395l8 107h117v-246h-739z" />
<glyph unicode="{" horiz-adv-x="765" d="M102 530v160h41q59 1 94 39q33 36 33 102v476q0 103 69 166t173 63h152v-160l-150 -2q-20 0 -35 -15q-14 -14 -14 -40v-506q0 -62 -33 -119q-34 -58 -110 -86q77 -30 110 -87t33 -118v-505q0 -26 14 -40q16 -16 35 -16h150v-157h-152q-104 0 -173 63t-69 166v475 q0 67 -33 103q-34 36 -94 38h-41z" />
<glyph unicode="|" horiz-adv-x="399" d="M102 -123v1557h195v-1557h-195z" />
<glyph unicode="}" horiz-adv-x="765" d="M102 -156h150q19 0 35 16q14 14 14 40v506q0 61 33 118q34 58 110 86q-77 30 -110 87t-33 118v506q0 26 -14 40q-15 15 -35 15h-150v160h152q104 0 173 -63t69 -166v-476q0 -66 33 -102q35 -38 94 -39h41v-160h-41q-60 -2 -94 -38q-33 -36 -33 -103v-475q0 -103 -69 -166 t-173 -63h-152v159z" />
<glyph unicode="~" horiz-adv-x="1140" d="M100 434q0 121 41 195q41 73 129 90q62 16 149 -5q77 -19 179 -61q87 -35 148 -54t100 -11q46 6 61 45t15 94l114 2q0 -118 -36 -190t-115 -88q-65 -16 -152 5t-182 60q-86 36 -143 54q-64 20 -101 16q-56 -5 -74 -47q-18 -43 -18 -105h-115z" />
<glyph unicode="&#xa1;" horiz-adv-x="434" d="M102 1001q0 49 32 81t81 32q53 0 85 -32t32 -81q0 -53 -32 -85q-31 -31 -85 -31q-50 0 -81 31q-32 32 -32 85zM117 -338v1057h192v-1057h-192z" />
<glyph unicode="&#xa2;" horiz-adv-x="1050" d="M102 393v244q0 193 78 288q78 94 228 109l30 2v193h191v-193l26 6q134 -15 205 -93q72 -79 88 -236h-190l-6 88q-24 106 -131 106h-113q-121 0 -167 -65t-46 -219v-205q0 -157 46 -222q47 -67 167 -67h113q110 0 131 113l6 84h190q-15 -157 -85 -236q-71 -80 -199 -96 l-35 -2v-189h-191v189l-35 2q-148 17 -224 111q-77 95 -77 288z" />
<glyph unicode="&#xa3;" horiz-adv-x="1169" d="M102 2v160h68v430h-68v160h68v274q0 178 108 274q109 97 297 97l101 2q180 0 286 -95q105 -95 105 -272v-55h-225l-4 135q0 59 -40 93t-106 34h-88q-107 0 -157 -50t-50 -161v-276h289v-160h-289v-430h639v-160h-934z" />
<glyph unicode="&#xa5;" horiz-adv-x="1409" d="M100 1282v150h392v-150l-68 -8l299 -524l301 526l-68 8v150h351v-150l-68 -12l-262 -443h197v-159h-295l-35 -58l-8 -43h338v-159h-347v-254l68 -9v-149h-383v149l68 9v254h-347v159h336l-10 45l-33 58h-293v159h197l-262 443z" />
<glyph unicode="&#xa6;" horiz-adv-x="399" d="M102 -123v684h195v-684h-195zM102 752v682h195v-682h-195z" />
<glyph unicode="&#xa7;" horiz-adv-x="970" d="M102 1102v41q4 151 85 220q80 68 255 73l60 -2q190 0 267 -78t81 -234v-30h-227l-5 86q-4 57 -35 77q-32 21 -85 21h-25q-76 0 -112 -28q-33 -26 -33 -97v-18q2 -53 13 -79q13 -28 50 -50q168 -44 282 -121q115 -78 156 -181q16 -37 21 -62q8 -38 7 -74q-2 -44 -14 -87 q-14 -47 -44 -100q67 -82 67 -211v-51q-5 -84 -25 -139q-21 -56 -65 -91q-45 -35 -109 -50q-66 -15 -159 -15h-57q-97 2 -158 22q-65 22 -104 61t-57 100q-17 58 -19 142v25h227l4 -86q5 -64 36 -85q32 -21 91 -21h25q78 0 110 22q34 23 35 96v52q-1 46 -14 74 q-12 27 -49 48q-162 44 -275 120q-115 77 -164 183q-26 58 -26 139q0 78 57 183q-35 44 -51 91q-17 49 -17 114zM327 670q3 -50 25 -78q18 -35 58 -50q44 -17 79 -26q35 -10 69 -18q28 -6 56 -21q28 40 35 72q8 36 7 57q-2 27 -11 43q-14 24 -20 31q-23 34 -75 54 q-47 17 -106 36q-14 4 -38 12l-35 15v-4q-47 -74 -44 -123z" />
<glyph unicode="&#xa8;" horiz-adv-x="759" d="M102 1286q0 53 32 85t81 32q53 0 85 -32t32 -85q0 -49 -32 -81q-31 -31 -85 -31q-50 0 -81 31q-32 32 -32 81zM428 1286q0 53 32 85t81 32q53 0 85 -32q31 -31 31 -85q0 -50 -31 -81t-85 -31q-50 0 -81 31q-32 32 -32 81z" />
<glyph unicode="&#xa9;" horiz-adv-x="1300" d="M100 881q0 115 41 217q39 98 115 175q73 74 174 118q99 43 219 43v-4q115 0 217 -44t174 -116q75 -75 115 -174q41 -102 41 -217t-41 -217q-41 -100 -115 -175q-72 -72 -174 -116q-99 -43 -217 -43q-120 0 -219 43q-102 44 -174 116q-75 75 -115 176q-41 103 -41 218z M238 877q0 -91 28 -168q28 -76 82 -135q51 -55 129 -89q74 -32 172 -32q97 0 171 32q79 34 131 89q55 58 83 135q29 79 29 168q0 86 -29 165t-83 136t-131 90q-74 32 -171 32q-98 0 -172 -32q-77 -33 -129 -90q-54 -58 -82 -136q-28 -77 -28 -165zM383 801v155q0 130 59 188 t174 58l68 2q204 0 219 -213h-115l-2 41q-12 88 -94 88h-57q-73 0 -104 -39q-31 -38 -31 -131v-141q0 -92 31 -132t104 -40h57q84 0 96 90l3 41h114q-15 -215 -219 -215h-70q-115 0 -174 59t-59 189z" />
<glyph unicode="&#xab;" horiz-adv-x="1028" d="M102 514v98l379 310v-222l-145 -139l145 -137v-221zM545 512v98l379 310v-222l-146 -139l146 -137v-221z" />
<glyph unicode="&#xac;" horiz-adv-x="1052" d="M102 498v157h848v-413h-192v256h-656z" />
<glyph unicode="&#xad;" horiz-adv-x="831" d="M102 516v160h627v-160h-627z" />
<glyph unicode="&#xae;" horiz-adv-x="1300" d="M100 881q0 115 41 217q39 98 115 175q73 74 174 118q99 43 219 43v-4q115 0 217 -44t174 -116q75 -75 115 -174q41 -102 41 -217t-41 -217q-41 -100 -115 -175q-72 -72 -174 -116q-99 -43 -217 -43q-120 0 -219 43q-102 44 -174 116q-75 75 -115 176q-41 103 -41 218z M238 877q0 -91 28 -168q28 -76 82 -135q51 -55 129 -89q74 -32 172 -32q97 0 171 32q79 34 131 89q55 58 83 135q29 79 29 168q0 86 -29 165t-83 136t-131 90q-74 32 -171 32q-98 0 -172 -32q-77 -33 -129 -90q-54 -58 -82 -136q-28 -77 -28 -165zM403 567v66l43 4v485 l-43 4v66l279 2q80 0 124 -36t44 -103v-54q0 -107 -76 -131q37 -10 56 -43q20 -34 20 -75v-113l45 -6v-66h-143v162q0 60 -21 87q-22 28 -80 28h-104v-207l43 -4v-66h-187zM541 913h114q57 0 75 26q18 25 18 67v36q0 82 -82 82h-123z" />
<glyph unicode="&#xaf;" horiz-adv-x="802" d="M102 1315v139h598v-139h-598z" />
<glyph unicode="&#xb0;" horiz-adv-x="751" d="M100 1149q0 59 21 109q23 54 57 88q35 35 87 57q47 20 110 20h-2q121 0 197 -76q77 -77 77 -198q0 -63 -20 -110q-22 -51 -58 -86q-36 -34 -87 -56q-47 -20 -109 -20q-63 0 -110 20q-52 22 -86 56t-56 86q-21 49 -21 110zM244 1149q0 -53 35 -91t94 -38t94 38t35 91 q0 54 -35 94q-34 39 -94 39q-59 0 -94 -39q-35 -40 -35 -94z" />
<glyph unicode="&#xb1;" horiz-adv-x="1093" d="M102 612v160h349v266h192v-266l348 -2v-158h-348v-264h-192v264h-349zM104 -2v160h887v-160h-887z" />
<glyph unicode="&#xb4;" horiz-adv-x="587" d="M102 1180l150 272h233l-204 -272h-179z" />
<glyph unicode="&#xb6;" horiz-adv-x="1323" d="M102 928v172q0 74 26 137q25 60 73 105t112 68q66 24 144 24h764v-158h-70v-1528h-193v1528h-231v-1528h-192v846h-78q-80 0 -143 22q-64 22 -111 65q-48 43 -74 104q-27 63 -27 143z" />
<glyph unicode="&#xb7;" horiz-adv-x="434" d="M102 780q0 53 32 85t81 32q53 0 85 -32t32 -85q0 -49 -32 -81q-31 -31 -85 -31q-50 0 -81 31q-32 32 -32 81z" />
<glyph unicode="&#xb8;" horiz-adv-x="497" d="M104 -213h52q49 0 64 24q16 26 16 72v117h159l2 -147q0 -116 -44 -162q-43 -45 -148 -45h-101v141z" />
<glyph unicode="&#xbb;" horiz-adv-x="1028" d="M104 207v221l146 137l-146 137v222l379 -310v-98zM547 207v221l145 137l-145 137v222l379 -310v-98z" />
<glyph unicode="&#xbf;" horiz-adv-x="1116" d="M104 104v41q0 74 18 125q18 50 48 88q30 37 73 65q48 31 93 56q44 25 70 40q31 18 55 44q22 23 36 58q13 32 13 79v60h192v-47q0 -61 -7 -106q-8 -51 -29 -89q-23 -41 -66 -80q-43 -38 -113 -78q-43 -24 -66 -39q-26 -17 -49 -45q-19 -23 -31 -58q-11 -32 -11 -81v-28 q0 -228 207 -228h88q78 0 119 40q42 41 42 126l5 143h225v-59q0 -205 -108 -304t-300 -99l-98 -7q-190 0 -298 102t-108 281zM489 1065q0 49 32 81t85 32q49 0 81 -32t32 -81q0 -53 -32 -85t-81 -32q-53 0 -85 32t-32 85z" />
<glyph unicode="&#xc0;" horiz-adv-x="1343" d="M57 0v150l68 8l432 1276h229l433 -1276l67 -8v-150h-362v150l67 8l-108 327h-453l-108 -327l67 -8v-150h-332zM481 647h350l-174 529zM492 1862h233l149 -275h-178z" />
<glyph unicode="&#xc1;" horiz-adv-x="1343" d="M59 0v150l68 8l432 1276h229l433 -1276l67 -8v-150h-362v150l67 8l-108 327h-453l-108 -327l67 -8v-150h-332zM475 1587l150 273h233l-205 -273h-178zM483 647h351l-175 529z" />
<glyph unicode="&#xc2;" horiz-adv-x="1343" d="M59 0v150l68 8l432 1276h229l433 -1276l67 -8v-150h-362v150l67 8l-108 327h-453l-108 -327l67 -8v-150h-332zM311 1575l262 285h205l260 -285h-184l-178 178l-178 -178h-187zM483 647h351l-175 529z" />
<glyph unicode="&#xc3;" horiz-adv-x="1343" d="M59 -4v149l68 9l432 1276h229l433 -1276l67 -9v-149h-362v149l67 9l-108 327h-453l-108 -327l67 -9v-149h-332zM340 1614q4 133 67 197q64 66 160 51q35 -5 68 -21q29 -15 65 -39q26 -20 57 -36q22 -12 48 -17q46 -4 69 28q22 31 27 85l117 -4q-5 -137 -71 -200t-167 -46 q-34 6 -64 22q-36 19 -63 39t-53 33q-22 11 -47 16q-50 8 -72 -23q-21 -30 -26 -85h-115zM483 641h348l-174 528z" />
<glyph unicode="&#xc4;" horiz-adv-x="1343" d="M57 0v150l68 8l432 1276h229l433 -1276l67 -8v-150h-362v150l67 8l-108 327h-453l-108 -327l67 -8v-150h-332zM403 1763q0 53 32 85t81 32q53 0 85 -32t32 -85q0 -49 -32 -81q-31 -31 -85 -31q-50 0 -81 31q-32 32 -32 81zM481 647h350l-174 529zM729 1763q0 53 32 85 t81 32q53 0 85 -32q31 -31 31 -85q0 -50 -31 -81t-85 -31q-50 0 -81 31q-32 32 -32 81z" />
<glyph unicode="&#xc5;" horiz-adv-x="1343" d="M55 0v150l68 8l432 1276h229l433 -1276l67 -8v-150h-362v150l67 8l-108 327h-453l-109 -327l68 -8v-150h-332zM457 1690q0 44 16 80q17 39 46 68q28 28 69 47q39 18 84 18h-2q46 0 86 -18q42 -19 69 -47t46 -68q18 -38 18 -80q0 -47 -18 -86q-18 -40 -46 -69 q-28 -30 -68 -46q-39 -16 -85 -16t-84 16q-40 17 -69 46t-46 69q-16 38 -16 86zM479 647h350l-174 529zM582 1690q0 -37 24 -64t64 -27q38 0 64 27q26 28 26 64q0 34 -26 62t-64 28q-39 0 -64 -28q-24 -27 -24 -62z" />
<glyph unicode="&#xc6;" horiz-adv-x="1505" d="M57 0v150l68 8l432 1276h881v-230l-168 -2l-8 72h-385v-455h428v-160h-428v-501h385l8 71h170v-229h-856v150l65 8v327h-219l-108 -327l67 -8v-150h-332zM483 645h168v504z" />
<glyph unicode="&#xc7;" horiz-adv-x="1153" d="M115 426v580q0 232 111 337t319 105h110q202 0 308 -91t118 -294h-221l-4 80q-4 81 -48 113t-112 32h-121q-131 0 -183 -65t-52 -219v-574q0 -157 52 -222q53 -67 183 -67h121q77 0 118 37q43 38 44 123l4 107h221q-4 -194 -84 -296q-79 -101 -239 -124v-138 q0 -115 -44 -161q-43 -45 -149 -45h-100v141h51q50 0 65 24t15 72v101h-53q-208 0 -319 105t-111 339z" />
<glyph unicode="&#xc8;" d="M137 -2v149l66 9v1118l-66 8v150h856v-230l-170 -2l-8 72h-385v-455h428v-160h-428v-501h385l8 71h170v-229h-856zM383 1862h233l150 -275h-178z" />
<glyph unicode="&#xc9;" d="M137 -2v149l66 9v1118l-66 8v150h856v-230l-170 -2l-8 72h-385v-455h428v-160h-428v-501h385l8 71h170v-229h-856zM365 1587l149 273h234l-205 -273h-178z" />
<glyph unicode="&#xca;" d="M137 -2v149l66 9v1118l-66 8v150h856v-230l-170 -2l-8 72h-385v-455h428v-160h-428v-501h385l8 71h170v-229h-856zM201 1575l262 285h205l260 -285h-185l-178 178l-178 -178h-186z" />
<glyph unicode="&#xcb;" d="M137 0v150l66 8v1118l-66 8v150h856v-230l-170 -2l-8 72h-385v-455h428v-160h-428v-501h385l8 71h170v-229h-856zM295 1765q0 53 32 85t81 32q53 0 85 -32q31 -31 31 -85q0 -50 -31 -81t-85 -31q-50 0 -81 31q-32 32 -32 81zM621 1765q0 54 31 85q32 32 81 32 q53 0 85 -32t32 -85q0 -49 -32 -81q-31 -31 -85 -31q-50 0 -81 31t-31 81z" />
<glyph unicode="&#xcc;" horiz-adv-x="659" d="M139 1862h234l149 -275h-178zM141 1282v150h365v-150l-68 -8v-1116l68 -8v-150h-363v150l68 8v1116z" />
<glyph unicode="&#xcd;" horiz-adv-x="659" d="M137 1587l150 273h233l-205 -273h-178zM156 1282v150h364v-150l-67 -8v-1116l67 -8v-150h-362v150l67 8v1116z" />
<glyph unicode="&#xce;" horiz-adv-x="1001" d="M139 1575l262 285h205l260 -285h-184l-178 178l-178 -178h-187zM322 1282v150h364v-150l-68 -8v-1116l68 -8v-150h-362v150l67 8v1116z" />
<glyph unicode="&#xcf;" horiz-adv-x="827" d="M137 1765q0 53 32 85t81 32q53 0 85 -32t32 -85q0 -49 -32 -81q-31 -31 -85 -31q-50 0 -81 31q-32 32 -32 81zM225 1284v150h365v-150l-68 -8v-1116l68 -8v-150h-363v150l68 8v1116zM463 1765q0 53 32 85t80 32q53 0 85 -32t32 -85q0 -49 -32 -81q-31 -31 -85 -31 q-49 0 -80 31q-32 32 -32 81z" />
<glyph unicode="&#xd0;" horiz-adv-x="1310" d="M137 643v160h113v473l-68 8v150l582 2q203 0 317 -106q113 -105 113 -337v-549q0 -234 -113 -339t-317 -105h-582v150l68 8v485h-113zM475 162h258q131 0 183 66q53 67 53 223v538q0 156 -53 223q-52 66 -183 66h-258v-471h287v-160h-287v-485z" />
<glyph unicode="&#xd1;" horiz-adv-x="1370" d="M131 -4v149l68 9v1116l-68 8v149h270l594 -1015v858l-69 8v149h321v-149l-67 -6v-1276h-203l-594 1018v-860l68 -9v-149h-320zM313 1614q4 133 67 197q64 66 161 51q34 -4 67 -21t66 -39q29 -22 56 -36q22 -12 48 -17q47 -5 70 28q21 30 26 85l117 -4q-5 -138 -70 -200 q-66 -63 -167 -46q-35 6 -65 22q-33 17 -62 39q-25 19 -54 33q-22 11 -47 16q-49 7 -71 -23q-22 -31 -27 -85h-115z" />
<glyph unicode="&#xd2;" horiz-adv-x="1204" d="M117 426v580q0 232 111 337t319 105h110q204 0 318 -106q112 -105 112 -336v-580q0 -234 -112 -339q-113 -105 -318 -105h-110q-208 0 -319 105t-111 339zM342 432q0 -157 52 -222q53 -67 184 -67h49q130 0 183 67q52 65 52 222v569q0 159 -52 224t-183 65h-49 q-132 0 -184 -65t-52 -219v-574zM420 1862h233l150 -275h-178z" />
<glyph unicode="&#xd3;" horiz-adv-x="1204" d="M119 426v580q0 232 111 337t319 105h110q204 0 318 -106q113 -105 113 -336v-580q0 -234 -113 -339t-318 -105h-110q-208 0 -319 105t-111 339zM344 432q0 -157 52 -222q53 -67 184 -67h49q130 0 183 67q52 65 52 222v569q0 159 -52 224t-183 65h-49q-132 0 -184 -65 t-52 -219v-574zM403 1587l150 273h233l-204 -273h-179z" />
<glyph unicode="&#xd4;" horiz-adv-x="1204" d="M119 426v580q0 232 111 337t319 105h110q204 0 318 -106q113 -105 113 -336v-580q0 -234 -113 -339t-318 -105h-110q-208 0 -319 105t-111 339zM240 1575l262 285h205l260 -285h-185l-178 178l-178 -178h-186zM344 432q0 -157 52 -222q53 -67 184 -67h49q130 0 183 67 q52 65 52 222v569q0 159 -52 224t-183 65h-49q-132 0 -184 -65t-52 -219v-574z" />
<glyph unicode="&#xd5;" horiz-adv-x="1204" d="M121 422v579q0 233 111 338t319 105h111q203 0 317 -106q113 -105 113 -337v-579q0 -234 -113 -339q-114 -106 -317 -106h-111q-207 0 -319 106q-111 105 -111 339zM270 1614q4 133 67 197q64 66 161 51q34 -4 67 -21t66 -39q29 -22 56 -36q22 -12 48 -17q47 -5 70 28 q21 30 26 85l117 -4q-5 -138 -70 -200q-66 -63 -167 -46q-35 6 -65 22q-33 17 -62 39q-25 19 -54 33q-22 11 -47 16q-49 7 -71 -23q-22 -31 -27 -85h-115zM346 428q0 -157 52 -222q53 -67 184 -67h49q130 0 183 67q52 65 52 222v569q0 159 -52 224t-183 65h-49 q-132 0 -184 -65t-52 -220v-573z" />
<glyph unicode="&#xd6;" horiz-adv-x="1204" d="M117 426v580q0 232 111 337t319 105h110q204 0 318 -106q112 -105 112 -336v-580q0 -234 -112 -339q-113 -105 -318 -105h-110q-208 0 -319 105t-111 339zM332 1763q0 53 32 85t80 32q53 0 85 -32t32 -85q0 -49 -32 -81q-31 -31 -85 -31q-49 0 -80 31q-32 32 -32 81z M342 432q0 -157 52 -222q53 -67 184 -67h49q130 0 183 67q52 65 52 222v569q0 159 -52 224t-183 65h-49q-132 0 -184 -65t-52 -219v-574zM657 1763q0 53 32 85t81 32q53 0 85 -32t32 -85q0 -49 -32 -81q-31 -31 -85 -31q-50 0 -81 31q-32 32 -32 81z" />
<glyph unicode="&#xd7;" horiz-adv-x="972" d="M102 367l248 247l-246 246l136 137l245 -245l248 247l137 -135l-247 -250l243 -245l-135 -136l-246 246l-247 -248z" />
<glyph unicode="&#xd8;" horiz-adv-x="1230" d="M129 426v580q0 231 112 337q111 105 318 105h111q85 0 157 -18l47 106h213l-92 -201q105 -111 105 -327v-580q0 -234 -113 -339t-317 -105h-111q-91 0 -160 18l-47 -104h-213l90 202q-48 51 -74 134t-26 192zM354 432l2 -51l400 891q-47 18 -117 18h-49q-131 0 -183 -65 q-53 -67 -53 -219v-574zM473 162q52 -19 119 -19h49q130 0 183 67t53 222l2 569v31q0 9 -2 29z" />
<glyph unicode="&#xd9;" horiz-adv-x="1320" d="M137 1282v150h363v-150l-68 -8v-844q0 -156 51 -222q52 -67 181 -67h49q128 0 180 67q51 66 51 222v844l-67 8v150h319v-150l-70 -8v-848q0 -118 -28 -201q-28 -82 -82 -138q-53 -54 -128 -80q-74 -25 -169 -25h-88q-204 0 -315 105t-111 339v848zM500 1862h233l150 -275 h-178z" />
<glyph unicode="&#xda;" horiz-adv-x="1320" d="M135 1282v150h363v-150l-68 -8v-844q0 -156 51 -222q52 -67 181 -67h49q128 0 180 67q51 66 51 222v844l-68 8v150h320v-150l-70 -8v-848q0 -118 -28 -201q-28 -82 -82 -138q-53 -54 -128 -80q-74 -25 -169 -25h-88q-204 0 -315 105t-111 339v848zM481 1587l150 273h233 l-205 -273h-178z" />
<glyph unicode="&#xdb;" horiz-adv-x="1320" d="M139 1282v150h363v-150l-68 -8v-844q0 -156 51 -222q52 -67 181 -67h49q128 0 180 67q51 66 51 222v844l-67 8v150h319v-150l-70 -8v-848q0 -118 -28 -201q-28 -82 -82 -138q-53 -54 -128 -80q-74 -25 -169 -25h-88q-204 0 -315 105t-111 339v848zM319 1575l263 285h204 l261 -285h-185l-178 178l-178 -178h-187z" />
<glyph unicode="&#xdc;" horiz-adv-x="1320" d="M137 1284v150h363v-150l-68 -8v-844q0 -156 51 -222q52 -67 181 -67h49q128 0 180 67q51 66 51 222v844l-67 8v150h319v-150l-70 -8v-848q0 -118 -28 -201q-28 -82 -82 -138q-53 -54 -128 -80q-74 -25 -169 -25h-88q-204 0 -315 105t-111 339v848zM412 1763q0 54 31 85 q32 32 81 32q53 0 85 -32t32 -85q0 -49 -32 -81q-31 -31 -85 -31q-50 0 -81 31t-31 81zM737 1763q0 53 32 85t81 32q53 0 85 -32t32 -85q0 -49 -32 -81q-31 -31 -85 -31q-50 0 -81 31q-32 32 -32 81z" />
<glyph unicode="&#xdd;" horiz-adv-x="1320" d="M57 1282v150h392v-150l-68 -8l299 -541l301 541l-68 8v150h351v-150l-68 -8l-412 -699v-417l68 -8v-150h-383v150l68 8v415l-412 701zM471 1587l150 273h233l-205 -273h-178z" />
<glyph unicode="&#xde;" horiz-adv-x="1202" d="M137 2v150l70 8v1116l-70 8v150h363v-150l-68 -8v-117h256q187 0 293 -89q104 -88 104 -255v-100q0 -178 -104 -269q-106 -92 -293 -92h-256v-194l68 -8v-150h-363zM432 514h225q116 0 159 56q44 58 44 149v69q0 45 -10 81q-11 39 -34 68q-24 30 -62 46t-97 16h-225v-485 z" />
<glyph unicode="&#xdf;" horiz-adv-x="1226" d="M135 2v150l68 8v909q0 186 109 280q110 95 298 95l109 4q191 0 303 -85q113 -86 113 -251v-68q0 -46 -13 -96q-12 -46 -38 -86q-25 -39 -64 -67q-40 -29 -94 -41q60 -11 103 -40q45 -31 73 -71q27 -38 43 -91q14 -46 14 -101v-91q0 -184 -115 -270t-315 -86h-209v160h191 q113 0 168 61t55 164v57q0 111 -54 165q-55 55 -180 55h-98v157h88q125 0 172 59t47 158v43q0 92 -53 148q-52 55 -156 55h-43q-111 0 -169 -52t-58 -157v-1075h-295z" />
<glyph unicode="&#xe0;" horiz-adv-x="1175" d="M102 391v244q0 212 91 309q90 96 245 96l78 -2q116 0 187 -38t104 -130v152h225v-131l-71 -8v-658q0 -60 13 -82t66 -22h23v-139h-68q-82 0 -128 33q-48 34 -58 132q-34 -88 -103 -125q-70 -38 -188 -38h-80q-155 0 -245 96q-91 97 -91 311zM297 410q0 -158 46 -223 q47 -66 167 -66h41q121 0 168 66q47 67 47 223v200q0 156 -47 223q-47 66 -168 66h-41q-121 0 -167 -65t-46 -220v-204zM403 1454h234l149 -274h-178z" />
<glyph unicode="&#xe1;" horiz-adv-x="1175" d="M102 391v244q0 212 91 309q90 96 245 96l78 -2q116 0 187 -38t104 -130v152h225v-131l-71 -8v-658q0 -60 13 -82t66 -22h23v-139h-68q-82 0 -128 33q-48 34 -58 132q-34 -88 -103 -125q-70 -38 -188 -38h-80q-155 0 -245 96q-91 97 -91 311zM297 410q0 -158 46 -223 q47 -66 167 -66h41q121 0 168 66q47 67 47 223v200q0 156 -47 223q-47 66 -168 66h-41q-121 0 -167 -65t-46 -220v-204zM385 1180l150 272h233l-205 -272h-178z" />
<glyph unicode="&#xe2;" horiz-adv-x="1175" d="M102 391v244q0 212 91 309q90 96 245 96l78 -2q116 0 187 -38t104 -130v152h225v-131l-71 -8v-658q0 -60 13 -82t66 -22h23v-139h-68q-82 0 -128 33q-48 34 -58 132q-34 -88 -103 -125q-70 -38 -188 -38h-80q-155 0 -245 96q-91 97 -91 311zM221 1167l262 285h205 l260 -285h-184l-178 179l-178 -179h-187zM297 410q0 -158 46 -223q47 -66 167 -66h41q121 0 168 66q47 67 47 223v200q0 156 -47 223q-47 66 -168 66h-41q-121 0 -167 -65t-46 -220v-204z" />
<glyph unicode="&#xe3;" horiz-adv-x="1175" d="M102 387v244q0 212 91 309q90 96 245 96l80 -2q117 0 187 -38q69 -37 102 -130v152h225v-131l-71 -8v-658q0 -60 13 -82t66 -22h23v-140h-68q-81 0 -128 34q-48 34 -58 132q-35 -89 -103 -126t-188 -37h-80q-155 0 -245 96q-91 97 -91 311zM250 1204q5 135 66 198 q63 65 161 50q38 -5 68 -20q29 -15 65 -39q26 -20 57 -36q25 -13 48 -18q46 -4 69 28q22 31 27 85l117 -4q-5 -137 -71 -200t-167 -46q-31 6 -64 23q-36 19 -63 39q-23 17 -53 32q-25 13 -47 17q-49 7 -72 -24q-21 -30 -26 -85h-115zM299 406q0 -158 46 -223q47 -66 167 -66 h41q121 0 168 66q47 67 47 223v200q0 155 -47 222t-168 67h-41q-120 0 -167 -66q-46 -65 -46 -219v-204z" />
<glyph unicode="&#xe4;" horiz-adv-x="1175" d="M102 391v244q0 212 91 309q90 96 245 96l80 -2q117 0 187 -38q69 -37 102 -130v152h225v-131l-71 -8v-658q0 -60 13 -82t66 -22h23v-139h-68q-82 0 -128 33q-48 34 -58 132q-34 -88 -103 -125q-70 -38 -188 -38h-80q-155 0 -245 96q-91 97 -91 311zM299 410 q0 -158 46 -223q47 -66 167 -66h41q121 0 168 66q47 67 47 223v200q0 156 -47 223q-47 66 -168 66h-41q-121 0 -167 -65t-46 -220v-204zM315 1356q0 53 32 85t81 32q53 0 85 -32t32 -85q0 -49 -32 -81t-85 -32q-49 0 -81 32t-32 81zM641 1356q0 53 32 85t81 32q53 0 85 -32 q31 -31 31 -85q0 -50 -31 -81q-32 -32 -85 -32q-49 0 -81 32t-32 81z" />
<glyph unicode="&#xe5;" horiz-adv-x="1175" d="M98 389v244q0 213 90 309t246 96l78 -2q116 0 187 -38t104 -130v152h225v-131l-72 -8v-658q0 -59 14 -82q13 -22 66 -22h23v-139h-68q-82 0 -128 33q-48 34 -58 132q-34 -88 -104 -126q-68 -37 -187 -37h-80q-156 0 -246 96t-90 311zM293 408q0 -158 46 -223 q47 -66 167 -66h41q121 0 168 66q47 67 47 223v200q0 155 -47 222t-168 67h-41q-120 0 -167 -66q-46 -65 -46 -219v-204zM348 1288q0 42 17 81t46 68t68 47q37 17 84 17l-2 -2q48 0 86 -17q44 -20 70 -47q27 -28 46 -68q17 -35 17 -81q0 -49 -17 -86q-18 -38 -46 -68 q-29 -31 -69 -47q-39 -16 -85 -16t-84 16q-36 15 -68 47q-30 30 -46 69q-17 42 -17 87zM473 1286q0 -35 25 -63q24 -27 63 -27t65 27q25 26 25 63t-25 63q-25 27 -65 27q-39 0 -63 -27q-25 -28 -25 -63z" />
<glyph unicode="&#xe6;" horiz-adv-x="1779" d="M100 391v244q0 213 90 309t246 96l82 -2q118 0 187 -39t102 -125v148h154v-82q89 96 258 96h90q188 0 282 -94q96 -96 97 -305v-176h-660v-51q0 -158 46 -223q46 -66 167 -66h41q107 0 154 50q46 49 57 165h190q-12 -186 -104 -270q-91 -84 -272 -84h-90q-87 0 -149 23 q-65 24 -110 75v-82h-151v149q-34 -87 -104 -125t-187 -38h-80q-156 0 -246 96t-90 311zM299 410q0 -158 46 -223q47 -66 167 -66h41q121 0 168 66q47 67 47 223v200q0 156 -47 223q-47 66 -168 66h-41q-121 0 -167 -65t-46 -220v-204zM1032 602h467v57q-5 131 -53 185 q-49 55 -160 55l-39 2q-113 0 -162 -55q-48 -54 -53 -184v-60z" />
<glyph unicode="&#xe7;" horiz-adv-x="1040" d="M100 391v244q0 214 96 310q95 95 287 95h90q178 0 268 -78q91 -79 107 -257h-190l-6 86q-21 110 -129 110h-113q-121 0 -167 -65t-46 -220v-204q0 -158 46 -223q47 -66 167 -66h113q110 0 131 117l4 82h190q-12 -147 -76 -228q-63 -80 -186 -102v-139q0 -116 -44 -162 q-44 -45 -148 -45h-101v141h51q50 0 65 24t15 72v101h-41q-190 0 -286 96q-97 97 -97 311z" />
<glyph unicode="&#xe8;" horiz-adv-x="1046" d="M102 391v244q0 214 96 310q95 95 287 95l93 -2q188 0 282 -94q95 -95 96 -305v-176h-659v-51q0 -158 46 -223q47 -66 167 -66h41q107 0 154 50q46 49 57 165h190q-12 -186 -104 -270t-273 -84h-90q-190 0 -286 96q-97 97 -97 311zM297 602h469v57q-5 131 -53 185 q-49 55 -160 55l-41 2q-113 0 -162 -55q-48 -54 -53 -184v-60zM346 1454h234l149 -274h-178z" />
<glyph unicode="&#xe9;" horiz-adv-x="1046" d="M102 391v244q0 214 96 310q95 95 287 95l93 -2q188 0 282 -94q95 -95 96 -305v-176h-659v-51q0 -158 46 -223q47 -66 167 -66h41q107 0 154 50q46 49 57 165h190q-12 -186 -104 -270t-273 -84h-90q-190 0 -286 96q-97 97 -97 311zM297 602h469v57q-5 131 -53 185 q-49 55 -160 55l-41 2q-113 0 -162 -55q-48 -54 -53 -184v-60zM330 1180l149 272h234l-205 -272h-178z" />
<glyph unicode="&#xea;" horiz-adv-x="1046" d="M104 391v244q0 214 96 310q95 95 287 95l93 -2q188 0 282 -94q95 -95 96 -305v-176h-659v-51q0 -158 46 -223q47 -66 167 -66h41q107 0 154 50q46 49 57 165h190q-12 -186 -104 -270t-272 -84h-91q-190 0 -286 96q-97 97 -97 311zM166 1167l262 285h205l260 -285h-184 l-179 179l-178 -179h-186zM299 602h469v57q-5 131 -53 185q-49 55 -160 55l-41 2q-113 0 -162 -55q-48 -54 -53 -184v-60z" />
<glyph unicode="&#xeb;" horiz-adv-x="1046" d="M102 391v244q0 214 96 310q95 95 287 95l93 -2q188 0 282 -94q95 -95 96 -305v-176h-659v-51q0 -158 46 -223q47 -66 167 -66h41q107 0 154 50q46 49 57 165h190q-12 -186 -104 -270t-273 -84h-90q-190 0 -286 96q-97 97 -97 311zM258 1356q0 53 32 85t81 32q53 0 85 -32 q31 -31 31 -85q0 -50 -31 -81q-32 -32 -85 -32q-49 0 -81 32t-32 81zM297 602h469v57q-5 131 -53 185q-49 55 -160 55l-41 2q-113 0 -162 -55q-48 -54 -53 -184v-60zM584 1356q0 54 31 85q32 32 81 32q53 0 85 -32t32 -85q0 -49 -32 -81t-85 -32q-49 0 -81 32q-31 31 -31 81 z" />
<glyph unicode="&#xec;" horiz-adv-x="669" d="M125 1454h235l150 -274h-180zM209 0v131l72 8v746l-72 8v131h266v-885l72 -8v-131h-338z" />
<glyph unicode="&#xed;" horiz-adv-x="632" d="M131 0v131l72 8v746l-72 8v131h266v-885l72 -8v-131h-338zM133 1180l150 272h233l-205 -272h-178z" />
<glyph unicode="&#xee;" horiz-adv-x="970" d="M127 1167l262 285h205l260 -285h-184l-178 179l-179 -179h-186zM344 0v131l72 8v746l-72 8v131h266v-885l72 -8v-131h-338z" />
<glyph unicode="&#xef;" horiz-adv-x="796" d="M127 1356q0 53 32 85t81 32q53 0 85 -32q31 -31 31 -85q0 -50 -31 -81q-32 -32 -85 -32q-49 0 -81 32t-32 81zM256 0v131l72 8v746l-72 8v131h266v-885l72 -8v-131h-338zM453 1356q0 54 31 85q32 32 81 32q53 0 85 -32t32 -85q0 -49 -32 -81t-85 -32q-49 0 -81 32 q-31 31 -31 81z" />
<glyph unicode="&#xf0;" horiz-adv-x="1124" d="M100 389v244q0 216 91 311q91 96 245 96h80q180 0 248 -110l-2 117q-5 138 -56 192q-52 55 -151 55h-330v140h357q135 0 225 -58l102 103l101 -101l-109 -106q25 -43 41 -113q14 -62 14 -176v-606q0 -209 -96 -301q-97 -92 -287 -92h-139q-154 0 -244 96t-90 309z M293 412q0 -155 47 -222q46 -65 168 -65h41q121 0 167 66q46 65 46 221v200q0 158 -46 223q-46 66 -167 66l-41 2q-122 0 -168 -66q-47 -67 -47 -223v-202z" />
<glyph unicode="&#xf1;" horiz-adv-x="1222" d="M117 -4v131l71 8v746l-71 8v131h225v-158q34 93 107 134q71 40 184 40l80 2q78 0 137 -23q62 -24 105 -73q46 -52 69 -126q25 -80 25 -183v-496l71 -8v-131h-266v614q0 156 -48 222q-47 65 -167 65h-41q-114 0 -164 -65q-51 -66 -51 -224v-475l72 -8v-131h-338zM266 1204 q5 134 67 198q63 65 161 50q37 -5 67 -20q33 -16 66 -39q29 -22 56 -36q25 -13 48 -18q47 -5 70 28q21 30 26 85l117 -4q-5 -137 -71 -200q-65 -63 -166 -46q-32 6 -65 23t-62 39q-21 16 -54 32q-25 13 -47 17q-49 7 -71 -24t-27 -85h-115z" />
<glyph unicode="&#xf2;" d="M102 391v244q0 214 96 310q95 95 287 95h90q190 0 287 -95q96 -95 96 -310v-244q0 -215 -97 -311t-286 -96h-90q-190 0 -286 96q-97 97 -97 311zM297 412q0 -158 46 -223q47 -66 167 -66h41q121 0 168 66q47 67 47 223v200q0 156 -47 223q-47 66 -168 66h-41 q-121 0 -167 -65t-46 -220v-204zM348 1454h234l149 -274h-178z" />
<glyph unicode="&#xf3;" d="M102 391v244q0 214 96 310q95 95 287 95h90q190 0 287 -95q96 -95 96 -310v-244q0 -215 -97 -311t-286 -96h-90q-190 0 -286 96q-97 97 -97 311zM297 412q0 -158 46 -223q47 -66 167 -66h41q121 0 168 66q47 67 47 223v200q0 156 -47 223q-47 66 -168 66h-41 q-121 0 -167 -65t-46 -220v-204zM330 1180l149 272h234l-205 -272h-178z" />
<glyph unicode="&#xf4;" d="M104 391v244q0 214 96 310q95 95 287 95h91q189 0 286 -95t97 -310v-244q0 -215 -98 -311q-97 -96 -285 -96h-91q-190 0 -286 96q-97 97 -97 311zM168 1167l262 285h205l260 -285h-184l-179 179l-178 -179h-186zM299 412q0 -158 46 -223q47 -66 167 -66h41q121 0 168 66 q47 67 47 223v200q0 156 -47 223q-47 66 -168 66h-41q-121 0 -167 -65t-46 -220v-204z" />
<glyph unicode="&#xf5;" d="M102 385v244q0 214 96 310q95 95 287 95h90q190 0 287 -95q96 -94 96 -310v-244q0 -215 -97 -311q-99 -97 -286 -97h-90q-189 0 -286 97t-97 311zM197 1200q5 135 66 198q63 65 161 50q35 -5 68 -21q35 -17 65 -38q29 -22 56 -36q25 -13 49 -18q46 -4 69 28q22 31 27 85 h114q-5 -135 -70 -198q-66 -63 -167 -46q-32 6 -65 23t-62 39q-23 17 -53 32q-25 13 -47 17q-50 7 -72 -24t-27 -85zM297 406q0 -158 46 -223q47 -66 167 -66h41q121 0 168 66q47 67 47 223v200q0 155 -47 222t-168 67h-41q-120 0 -167 -66q-46 -65 -46 -219v-204z" />
<glyph unicode="&#xf6;" d="M102 391v244q0 214 96 310q95 95 287 95h90q190 0 287 -95q96 -95 96 -310v-244q0 -215 -97 -311t-286 -96h-90q-190 0 -286 96q-97 97 -97 311zM260 1356q0 53 32 85t81 32q53 0 85 -32q31 -31 31 -85q0 -50 -31 -81q-32 -32 -85 -32q-49 0 -81 32t-32 81zM297 412 q0 -158 46 -223q47 -66 167 -66h41q121 0 168 66q47 67 47 223v200q0 156 -47 223q-47 66 -168 66h-41q-121 0 -167 -65t-46 -220v-204zM586 1356q0 54 31 85q32 32 81 32q53 0 85 -32t32 -85q0 -49 -32 -81t-85 -32q-49 0 -81 32q-31 31 -31 81z" />
<glyph unicode="&#xf7;" horiz-adv-x="1130" d="M100 506v160h926v-160h-926zM449 227q0 54 31 85q32 32 81 32q53 0 85 -32t32 -85q0 -49 -32 -81q-31 -31 -85 -31q-50 0 -81 31t-31 81zM451 938q0 54 31 85q32 32 81 32q53 0 85 -32t32 -85q0 -49 -32 -81t-85 -32q-49 0 -81 32q-31 31 -31 81z" />
<glyph unicode="&#xf8;" d="M102 393v244q0 214 96 310q95 95 287 95h90q43 0 80 -6l62 135h201l-91 -194q131 -96 131 -340v-244q0 -215 -97 -311t-286 -96h-90q-53 0 -98 6l-59 -133h-201l92 202q-117 99 -117 332zM293 416q0 -96 14 -148l285 635q-14 2 -22 2h-21h-41q-121 0 -167 -65t-46 -219z M444 133q27 -6 62 -6h41q121 0 168 67t47 222l-2 202q0 112 -21 173z" />
<glyph unicode="&#xf9;" horiz-adv-x="1204" d="M104 889v131h267v-604q0 -157 44 -221t158 -64h25q106 0 171 66q65 67 65 223v465l-72 8v131h266v-885l70 -12v-131h-226v180q-72 -186 -333 -186h-37q-150 0 -238 94t-88 311v486zM420 1454h233l150 -274h-178z" />
<glyph unicode="&#xfa;" horiz-adv-x="1204" d="M102 889v131h267v-604q0 -157 44 -221t158 -64h25q106 0 171 66q64 65 64 223v465l-71 8v131h266v-885l70 -12v-131h-226v180q-72 -186 -333 -186h-37q-150 0 -238 94t-88 311v486zM401 1180l150 272h233l-204 -272h-179z" />
<glyph unicode="&#xfb;" horiz-adv-x="1204" d="M104 889v131h267v-604q0 -157 44 -221t158 -64h25q106 0 171 66q65 67 65 223v465l-72 8v131h266v-885l70 -12v-131h-226v180q-72 -186 -333 -186h-37q-150 0 -238 94t-88 311v486zM240 1167l262 285h205l260 -285h-185l-178 179l-178 -179h-186z" />
<glyph unicode="&#xfc;" horiz-adv-x="1204" d="M102 889v131h267v-604q0 -157 44 -221t158 -64h25q106 0 171 66q64 65 64 223v465l-71 8v131h266v-885l70 -12v-131h-226v180q-72 -186 -333 -186h-37q-150 0 -238 94t-88 311v486zM332 1356q0 53 32 85t80 32q53 0 85 -32t32 -85q0 -49 -32 -81t-85 -32q-48 0 -80 32 t-32 81zM657 1356q0 53 32 85t81 32q53 0 85 -32t32 -85q0 -49 -32 -81t-85 -32q-49 0 -81 32t-32 81z" />
<glyph unicode="&#xfd;" horiz-adv-x="1116" d="M47 893v131h338v-131l-72 -8l258 -697l265 697l-72 8v131h301v-131l-72 -8l-469 -1225h-266v141h162l76 199l-39 8l-338 877zM336 1180l149 272h234l-205 -272h-178z" />
<glyph unicode="&#xfe;" horiz-adv-x="1243" d="M125 1294v140h53q160 0 231 -69q70 -69 70 -228v-226q35 67 96 97t152 30l80 2q156 0 246 -96t90 -311v-244q0 -213 -90 -309t-246 -96h-80q-87 0 -150 31q-65 32 -98 100v-338l72 -8v-131h-338v131l72 8v1356q0 81 -19 122q-18 39 -98 39h-43zM479 412q0 -82 11 -133 q12 -57 36 -91t66 -50q40 -15 102 -15h41q121 0 167 65t46 220v204q0 158 -46 223q-47 66 -167 66h-41q-122 0 -168 -66q-47 -67 -47 -223v-200z" />
<glyph unicode="&#xff;" horiz-adv-x="1116" d="M49 893v131h338v-131l-72 -8l258 -697l265 697l-72 8v131h301v-131l-72 -8l-469 -1225h-266v141h162l76 199l-39 8l-338 877zM266 1356q0 53 32 85t81 32q53 0 85 -32t32 -85q0 -49 -32 -81t-85 -32q-49 0 -81 32t-32 81zM592 1356q0 53 32 85t81 32q53 0 85 -32 q31 -31 31 -85q0 -50 -31 -81q-32 -32 -85 -32q-49 0 -81 32t-32 81z" />
<glyph unicode="&#x13f;" horiz-adv-x="1069" d="M137 2v150l68 8v1114l-68 8v150h363v-150l-68 -8v-1116h402l10 159h168v-317zM764 915q0 53 32 85t81 32q53 0 85 -32q31 -31 31 -85q0 -49 -31 -80q-32 -32 -85 -32q-49 0 -81 32t-32 80z" />
<glyph unicode="&#x140;" horiz-adv-x="851" d="M125 0v131l72 8v1155l-72 9v131h266v-1295l72 -8v-131h-338zM516 780q0 53 32 85t81 32q53 0 85 -32q31 -31 31 -85q0 -50 -31 -81t-85 -31q-50 0 -81 31q-32 32 -32 81z" />
<glyph unicode="&#x152;" horiz-adv-x="1800" d="M117 426v580q0 232 111 337t319 105l110 -2q91 0 164 -26q71 -25 119 -79v91h791v-230h-170l-9 72h-385v-455h428v-160h-428v-501h385l9 71h170v-229h-791v88q-47 -53 -119 -80q-69 -26 -164 -26h-110q-208 0 -319 105t-111 339zM342 430q0 -157 52 -222q53 -67 184 -67 h49q130 0 183 67q52 65 52 222v569q0 159 -52 224t-183 65h-49q-132 0 -184 -65t-52 -219v-574z" />
<glyph unicode="&#x153;" horiz-adv-x="1710" d="M102 391v244q0 214 96 310q95 95 287 95h90q100 0 171 -31q72 -31 116 -100q44 69 116 100q71 31 171 31l92 -2q189 0 283 -94q95 -95 96 -305v-147h-659v-80q0 -158 46 -223q47 -66 167 -66h40q113 0 159 56q47 57 54 186h191q-8 -203 -100 -292t-279 -89h-90 q-100 0 -171 31q-72 31 -116 100q-44 -69 -116 -100q-71 -31 -171 -31h-90q-190 0 -286 96q-97 97 -97 311zM297 412q0 -158 46 -223q47 -66 167 -66h41q121 0 168 66q47 67 47 223v200q0 156 -47 223q-47 66 -168 66h-41q-121 0 -167 -65t-46 -220v-204zM961 631h466v37 q-5 127 -53 178q-50 53 -157 53l-43 2q-110 0 -160 -54q-48 -53 -53 -177v-39z" />
<glyph unicode="&#x178;" horiz-adv-x="1320" d="M57 1284v150h392v-150l-68 -8l299 -541l301 541l-68 8v150h351v-150l-68 -8l-412 -698v-418l68 -8v-150h-383v150l68 8v415l-412 701zM410 1763q0 54 31 85q32 32 81 32q53 0 85 -32t32 -85q0 -49 -32 -81q-31 -31 -85 -31q-50 0 -81 31t-31 81zM735 1763q0 53 32 85 t81 32q53 0 85 -32t32 -85q0 -49 -32 -81q-31 -31 -85 -31q-50 0 -81 31q-32 32 -32 81z" />
<glyph unicode="&#x2c6;" horiz-adv-x="933" d="M104 1169l263 285h204l260 -285h-184l-178 179l-178 -179h-187z" />
<glyph unicode="&#x2dc;" horiz-adv-x="880" d="M104 1196q5 134 67 198q63 65 161 50q34 -4 67 -21t66 -39q24 -18 56 -35q25 -13 48 -18q47 -5 70 28q22 31 27 85l116 -4q-5 -138 -70 -200q-66 -63 -167 -46q-32 6 -65 23q-38 20 -62 38q-27 20 -53 33q-25 12 -48 17q-49 7 -71 -24t-27 -85h-115z" />
<glyph unicode="&#x2000;" horiz-adv-x="951" />
<glyph unicode="&#x2001;" horiz-adv-x="1903" />
<glyph unicode="&#x2002;" horiz-adv-x="951" />
<glyph unicode="&#x2003;" horiz-adv-x="1903" />
<glyph unicode="&#x2004;" horiz-adv-x="634" />
<glyph unicode="&#x2005;" horiz-adv-x="475" />
<glyph unicode="&#x2006;" horiz-adv-x="317" />
<glyph unicode="&#x2007;" horiz-adv-x="317" />
<glyph unicode="&#x2008;" horiz-adv-x="237" />
<glyph unicode="&#x2009;" horiz-adv-x="380" />
<glyph unicode="&#x200a;" horiz-adv-x="105" />
<glyph unicode="&#x2010;" horiz-adv-x="831" d="M102 516v160h627v-160h-627z" />
<glyph unicode="&#x2011;" horiz-adv-x="831" d="M102 516v160h627v-160h-627z" />
<glyph unicode="&#x2012;" horiz-adv-x="831" d="M102 516v160h627v-160h-627z" />
<glyph unicode="&#x2013;" horiz-adv-x="1054" d="M102 473v160h850v-160h-850z" />
<glyph unicode="&#x2014;" horiz-adv-x="1353" d="M102 473v160h1149v-160h-1149z" />
<glyph unicode="&#x2018;" horiz-adv-x="452" d="M102 1114q0 93 52 174t196 152v-35q-10 -5 -29 -27q-15 -18 -35 -49q-18 -28 -31 -62q-14 -35 -15 -67q45 -1 76 -34q30 -32 30 -79q0 -53 -32 -85q-31 -31 -81 -31q-65 0 -98 38q-33 37 -33 105z" />
<glyph unicode="&#x2019;" horiz-adv-x="452" d="M102 975v35q13 7 30 26q15 18 35 49q18 28 30 62q11 31 16 67q-46 1 -77 34q-30 32 -30 79q0 53 32 85t81 32q65 0 98 -38t33 -106q0 -51 -11 -91q-12 -45 -40 -84q-24 -34 -76 -76q-41 -33 -121 -74z" />
<glyph unicode="&#x201a;" horiz-adv-x="452" d="M102 -221q13 7 30 26q11 12 35 49q18 28 30 61q11 32 16 67q-47 2 -77 33t-30 79q0 53 32 85t81 32q65 0 98 -38q33 -37 33 -105q0 -52 -11 -92q-12 -45 -40 -84q-24 -34 -76 -76q-41 -33 -121 -74v37z" />
<glyph unicode="&#x201c;" horiz-adv-x="759" d="M102 1114q0 93 52 174t196 152v-35q-10 -5 -29 -27q-15 -18 -35 -49q-18 -28 -31 -62q-14 -35 -15 -67q45 -1 76 -34q30 -32 30 -79q0 -53 -32 -85q-31 -31 -81 -31q-65 0 -98 38q-33 37 -33 105zM410 1120q0 94 51 174q52 81 196 152v-35q-10 -5 -29 -27 q-15 -18 -35 -49q-18 -28 -31 -62q-14 -35 -15 -67q46 -1 77 -34q29 -30 29 -78q0 -54 -31 -85q-32 -32 -81 -32q-66 0 -99 38q-32 36 -32 105z" />
<glyph unicode="&#x201d;" horiz-adv-x="759" d="M102 969v35q13 7 30 26q15 18 35 49q18 28 30 62q11 31 16 67q-46 1 -77 34q-30 32 -30 79q0 53 32 85t81 32q65 0 98 -38t33 -106q0 -51 -11 -91q-12 -45 -40 -84q-26 -36 -76 -77q-38 -31 -121 -73zM412 975v35q12 6 29 26q15 18 35 49q18 28 30 62q11 31 16 67 q-46 1 -77 34q-29 30 -29 79q0 54 31 85q32 32 81 32q66 0 99 -38q32 -36 32 -106q0 -51 -11 -91q-12 -45 -40 -84q-24 -34 -76 -76q-43 -35 -120 -74z" />
<glyph unicode="&#x201e;" horiz-adv-x="753" d="M102 -221q13 7 30 26q11 12 35 49q18 28 30 61q11 32 16 67q-47 2 -77 33t-30 79q0 53 32 85t81 32q65 0 98 -38q33 -37 33 -105q0 -52 -11 -92q-12 -45 -40 -84q-24 -34 -76 -76q-41 -33 -121 -74v37zM403 -225q13 7 30 26q13 16 35 48q18 26 30 62q12 33 16 66 q-46 1 -77 34q-29 30 -29 79q0 54 31 85q32 32 81 32q65 0 98 -38q33 -37 33 -106q0 -51 -11 -91q-12 -45 -40 -84q-24 -34 -76 -76q-41 -33 -121 -74v37z" />
<glyph unicode="&#x2022;" horiz-adv-x="710" d="M102 627q0 51 20 99q20 47 53 80t81 53t100 20t100 -20q46 -20 80 -53q33 -33 53 -80q19 -45 19 -99q0 -57 -19 -102q-20 -48 -53 -81q-35 -35 -80 -54t-100 -19t-100 19q-46 20 -81 54q-33 33 -53 81t-20 102z" />
<glyph unicode="&#x2026;" horiz-adv-x="1085" d="M102 96q0 53 32 85t81 32q53 0 85 -32t32 -85q0 -49 -32 -81q-31 -31 -85 -31q-50 0 -81 31q-32 32 -32 81zM428 96q0 53 32 85t81 32q53 0 85 -32q31 -31 31 -85q0 -50 -31 -81t-85 -31q-50 0 -81 31q-32 32 -32 81zM754 96q0 54 31 85q32 32 81 32q53 0 85 -32t32 -85 q0 -49 -32 -81q-31 -31 -85 -31q-50 0 -81 31t-31 81z" />
<glyph unicode="&#x202f;" horiz-adv-x="380" />
<glyph unicode="&#x2039;" horiz-adv-x="583" d="M102 514v98l379 310v-222l-145 -139l145 -137v-221z" />
<glyph unicode="&#x203a;" horiz-adv-x="583" d="M102 207v221l146 137l-146 137v222l379 -310v-98z" />
<glyph unicode="&#x205f;" horiz-adv-x="475" />
<glyph unicode="&#x20ac;" horiz-adv-x="1253" d="M100 526v160h80v86h-80v160h80v104q6 219 118 316q111 96 314 96l109 -2q197 0 303 -88t121 -283l2 -26h-221l-4 90q-4 77 -45 113q-40 36 -115 36h-121q-130 0 -182 -58q-55 -61 -56 -200v-100h461l-86 -160h-375v-86h304l-86 -160h-220v-98q0 -155 53 -219t183 -64h121 q76 0 116 37q42 38 46 117l4 113h223v-23q-7 -211 -115 -306q-107 -95 -311 -95h-111q-207 0 -318 102q-112 103 -112 336v102h-80z" />
<glyph unicode="&#x2122;" horiz-adv-x="1900" d="M102 1223v211h660v-211h-117l-8 71h-107v-542l52 -7v-133h-299v133l51 7v542h-103l-8 -71h-121zM807 608v135l51 7v542l-51 6v136h326l174 -533l159 533h334v-136l-51 -8v-540l51 -7v-135h-297v135l51 7v524l-211 -664h-120l-217 664v-524l51 -7v-135h-250z" />
<glyph unicode="&#x25fc;" horiz-adv-x="1024" d="M0 0v1024h1024v-1024h-1024z" />
</font>
</defs>
</svg>
