<?xml version="1.0" standalone="no"?>
<!DOCTYPE svg PUBLIC "-//W3C//DTD SVG 20010904//EN"
 "http://www.w3.org/TR/2001/REC-SVG-20010904/DTD/svg10.dtd">
<svg version="1.0" xmlns="http://www.w3.org/2000/svg"
 width="160.000000pt" height="160.000000pt" viewBox="0 0 160.000000 160.000000"
 preserveAspectRatio="xMidYMid meet">
<metadata>
Created by potrace 1.11, written by Peter Selinger 2001-2013
</metadata>
<g transform="translate(0.000000,160.000000) scale(0.100000,-0.100000)"
fill="#000000" stroke="none">
<path d="M360 1562 c-36 -5 -44 -27 -46 -117 -1 -44 -2 -85 -3 -91 -1 -7 -26
-12 -68 -12 -103 -1 -134 -18 -149 -85 -3 -12 -6 -273 -6 -579 0 -508 1 -560
17 -584 37 -56 35 -56 695 -56 656 0 662 0 691 54 10 18 13 154 13 589 0 547
-1 566 -20 604 -24 45 -49 55 -141 57 -36 0 -63 5 -66 12 -2 6 -3 47 -2 91 1
114 0 115 -152 115 -146 0 -143 3 -146 -128 l-2 -87 -40 -2 c-46 -2 -280 -5
-311 -4 -20 1 -21 6 -19 94 3 128 1 130 -122 131 -54 1 -109 -1 -123 -2z m172
-90 c11 -11 15 -276 4 -308 -5 -18 -15 -21 -66 -22 -36 -1 -63 4 -67 11 -9 13
-14 267 -7 304 2 12 12 23 22 25 32 6 104 0 114 -10z m662 -1 c10 -8 13 -49
11 -159 0 -81 -5 -153 -9 -160 -9 -15 -122 -16 -132 -1 -11 19 -8 307 4 321
12 16 107 14 126 -1z m136 -422 c0 -4 9 -9 20 -12 24 -6 22 23 22 -490 0 -261
-3 -362 -11 -370 -9 -9 -155 -12 -559 -13 -465 -1 -550 1 -569 13 l-23 15 3
412 c2 445 2 442 55 448 53 6 1062 3 1062 -3z"/>
<path d="M1160 905 c-7 -8 -18 -15 -25 -15 -43 0 -328 -266 -384 -358 -6 -10
-41 4 -149 58 -77 40 -146 70 -152 68 -7 -2 9 -31 36 -68 72 -96 254 -300 268
-300 7 0 19 12 27 27 70 135 241 389 339 505 59 69 70 87 61 92 -5 3 -14 -1
-21 -9z"/>
</g>
</svg>
