<?xml version="1.0" standalone="no"?>
<!DOCTYPE svg PUBLIC "-//W3C//DTD SVG 1.1//EN" "http://www.w3.org/Graphics/SVG/1.1/DTD/svg11.dtd" >
<svg xmlns="http://www.w3.org/2000/svg" xmlns:xlink="http://www.w3.org/1999/xlink" version="1.1">
<metadata></metadata>
<defs>
<font id="hapnaslabserifw00-mediumRg" horiz-adv-x="1193" >
<font-face units-per-em="2048" ascent="1638" descent="-410" />
<missing-glyph horiz-adv-x="819" />
<glyph horiz-adv-x="0" />
<glyph unicode="&#xd;" horiz-adv-x="681" />
<glyph unicode=" "  horiz-adv-x="819" />
<glyph unicode="&#x09;" horiz-adv-x="819" />
<glyph unicode="&#xa0;" horiz-adv-x="819" />
<glyph unicode="!" horiz-adv-x="380" d="M102 70q0 40 25 65t63 25q41 0 66 -25t25 -65q0 -39 -25 -64q-24 -24 -66 -24q-39 0 -63 24q-25 25 -25 64zM115 348v1086h141v-1086h-141z" />
<glyph unicode="&#x22;" horiz-adv-x="645" d="M100 1116q12 6 26 23q12 15 27 38q12 19 22 47q10 27 11 50q-38 0 -61 24q-23 25 -23 62q0 40 25 65t63 25q49 0 75 -29t26 -82q0 -77 -39 -139q-40 -63 -150 -115zM348 1116q12 6 26 23q7 9 26 38q14 22 23 47q10 27 11 50q-38 0 -61 24q-23 25 -23 62q0 40 25 65t63 25 q49 0 75 -29t26 -82q0 -77 -39 -139q-40 -63 -150 -115z" />
<glyph unicode="#" horiz-adv-x="1361" d="M100 446l29 119h233l58 271h-232l29 118h234l106 480h156l-107 -480h256l107 480h155l-106 -480h239l-28 -118h-240l-57 -271h239l-28 -119h-240l-100 -446h-156l101 446h-259l-100 -446h-156l101 446h-234zM518 565h258l58 271h-259z" />
<glyph unicode="$" horiz-adv-x="1132" d="M104 371h162l2 -66q7 -108 67 -158q58 -49 165 -49h94q272 0 272 271q0 61 -15 110t-52 86q-40 40 -105 61q-68 22 -164 42q-75 16 -152 42q-73 25 -134 78q-51 47 -83 116q-32 70 -32 171q0 165 90 259q91 96 254 108l19 2v92h141v-90l18 -2q161 -10 252 -106 q89 -94 94 -281h-161l-5 71q-11 106 -68 153q-59 48 -163 48l-39 -2q-262 0 -262 -256q0 -121 76 -188q41 -37 98 -55q58 -19 141 -37q96 -20 183 -51q74 -26 125 -74q59 -55 86 -131q26 -74 26 -177q0 -165 -92 -265q-91 -98 -264 -109l-41 -2v-86h-141v86l-39 2 q-165 11 -256 103q-93 94 -97 284z" />
<glyph unicode="%" horiz-adv-x="1474" d="M100 1225q0 65 21 107q23 45 54 67q36 25 77 35t88 10q50 0 91 -10q44 -11 77 -36q32 -25 52 -68t20 -103v-244q0 -62 -20 -105q-20 -44 -53 -68q-35 -26 -77 -36q-41 -10 -90 -10q-42 0 -86 9q-40 8 -77 34q-32 22 -54 66q-21 42 -21 108zM209 965q0 -72 37 -99 q36 -26 94 -26q60 0 95 28q36 29 36 97v278q0 68 -36 95q-37 28 -95 28q-56 0 -93 -27q-38 -27 -38 -98v-276zM217 -12l905 1460h133l-905 -1460h-133zM891 457q0 67 20 107q22 44 55 67q37 26 76 35q41 10 88 10q51 0 92 -10q43 -10 76 -36t53 -68q19 -41 19 -103v-244 q0 -64 -19 -105q-20 -43 -54 -68q-35 -26 -76 -36t-91 -10q-42 0 -86 9q-39 8 -76 34q-34 23 -55 66q-20 40 -20 108zM999 197q0 -73 37 -98q38 -26 94 -27q62 -2 96 27q36 30 36 98v278q0 68 -36 95q-37 28 -96 28q-56 0 -93 -27q-38 -27 -38 -98v-276z" />
<glyph unicode="&#x26;" horiz-adv-x="1208" d="M98 338v106q0 47 16 97q16 48 45 85q31 39 73 65q46 28 104 40q-108 29 -157 111q-50 83 -50 182v86q0 78 29 141q29 62 81 104t125 63q75 22 158 22h201v-119l-178 2q-121 0 -186 -62q-66 -63 -66 -169v-58q0 -113 57 -179q58 -67 199 -67h325v373h162v-373h66v-118h-66 v-320q0 -178 -98 -269t-297 -91h-127q-192 0 -304 89t-112 259zM264 367q0 -112 70 -184q69 -70 205 -70h106q63 0 107 15q42 14 70 41t40 60q14 39 15 74v369h-334q-279 0 -279 -230v-75z" />
<glyph unicode="'" horiz-adv-x="393" d="M100 1116q12 6 26 23q12 15 27 38q12 19 22 47q10 27 11 50q-38 0 -61 24q-23 25 -23 62q0 40 25 65t63 25q49 0 75 -29t26 -82q0 -77 -39 -139q-40 -63 -150 -115z" />
<glyph unicode="(" horiz-adv-x="557" d="M104 -100v1431q0 91 61 149q59 56 148 56h142v-119l-142 2q-29 0 -48 -21q-19 -20 -19 -57v-1452q0 -35 19 -55t48 -20h142v-119h-142q-89 0 -148 56q-61 58 -61 149z" />
<glyph unicode=")" horiz-adv-x="557" d="M102 -188h142q29 0 48 20t19 55v1452q0 37 -19 57q-20 21 -48 21h-142v119l142 -2q89 0 148 -56q61 -58 61 -149v-1431q0 -91 -61 -149q-59 -56 -148 -56h-142v119z" />
<glyph unicode="*" horiz-adv-x="940" d="M102 1145l48 145l251 -88l-8 266h154l-8 -266l247 86l50 -145l-256 -76l161 -211l-123 -88l-149 219l-150 -219l-122 90l161 211z" />
<glyph unicode="+" horiz-adv-x="1079" d="M100 573v119h367v371h143v-371h365v-119h-367v-370h-141v370h-367z" />
<glyph unicode="," horiz-adv-x="393" d="M100 -172q14 7 26 22t27 38q12 19 22 47q9 27 11 51q-38 0 -61 24q-23 25 -23 62q0 40 25 65t63 25q49 0 75 -29t26 -82q0 -77 -39 -139q-40 -63 -150 -115z" />
<glyph unicode="-" horiz-adv-x="792" d="M102 522v119h588v-119h-588z" />
<glyph unicode="." horiz-adv-x="380" d="M102 72q0 40 25 65t63 25q41 0 66 -25t25 -65q0 -39 -25 -64q-24 -24 -66 -24q-39 0 -63 24q-25 25 -25 64z" />
<glyph unicode="/" horiz-adv-x="1003" d="M102 0l643 1434h156l-643 -1434h-156z" />
<glyph unicode="0" horiz-adv-x="1212" d="M131 416v526q0 226 110 328q109 102 306 102h119q194 0 305 -102q110 -101 110 -328v-526q0 -226 -111 -329q-110 -103 -304 -103h-119q-195 0 -305 103q-111 104 -111 329zM297 422q0 -171 67 -247q66 -75 214 -75h57q147 0 215 75q68 76 68 247v512q0 172 -68 246 q-67 73 -215 73h-57q-148 0 -214 -72q-67 -73 -67 -243v-516z" />
<glyph unicode="1" horiz-adv-x="612" d="M154 0v109l71 8v1116h-71v119h235v-1235l72 -8v-109h-307z" />
<glyph unicode="2" horiz-adv-x="1079" d="M78 2v119q0 94 32 172q31 75 87 134q55 58 131 104q72 44 166 83q78 34 136 67q59 34 103 75q43 40 66 89q22 47 22 107v39q0 264 -262 264h-84q-113 0 -172 -56t-59 -179l-2 -80h-164v49q5 194 110 288q107 95 289 95l111 2q185 0 292 -98t107 -279v-47q-1 -90 -37 -163 q-34 -70 -90 -124q-57 -55 -126 -95q-59 -34 -144 -72q-76 -34 -137 -69q-63 -36 -110 -80q-46 -43 -73 -99q-26 -53 -26 -127h585l11 76h149v-195h-911z" />
<glyph unicode="3" horiz-adv-x="1114" d="M88 346v47h164l2 -80q0 -100 59 -152t172 -52h105q136 0 205 70q69 71 69 183v39q0 230 -278 230h-137v119h131q141 0 198 66q58 67 58 179v25q0 105 -67 169q-65 62 -185 62h-95q-111 0 -172 -50q-59 -49 -59 -142l-2 -78h-164v49q5 160 112 250q108 90 288 90h116 q87 0 159 -21q71 -21 125 -64q53 -42 81 -103q28 -60 28 -142l-2 -51q0 -99 -50 -181t-156 -110q117 -24 177 -106q60 -83 60 -182v-72q0 -170 -111 -259q-112 -89 -305 -89h-127q-181 0 -288 92t-111 264z" />
<glyph unicode="4" horiz-adv-x="1110" d="M66 389v119l655 844h164v-844h69v-119h-69v-285l71 -8v-96h-307v96l72 8v285h-655zM217 508h502v657z" />
<glyph unicode="5" horiz-adv-x="1085" d="M72 354v47h164l2 -79q0 -106 59 -158q61 -53 172 -53h104q137 0 205 71q70 73 70 189v112q0 250 -279 250h-444v619h813v-211l-152 -4l-10 94h-487v-381h350q173 0 274 -87t101 -253v-164q0 -173 -112 -264q-111 -90 -304 -90h-127q-178 0 -286 93q-107 92 -113 269z" />
<glyph unicode="6" horiz-adv-x="1210" d="M131 416v526q0 226 110 328q109 102 306 102l108 2q91 0 166 -22q74 -22 130 -70q55 -47 85 -120q32 -76 33 -173v-22h-164l-2 73q-6 114 -65 164q-60 51 -166 51h-97q-148 0 -214 -72t-66 -243v-217q43 77 117 114q73 37 163 37h93q195 0 305 -100t110 -313v-58 q0 -215 -110 -315t-305 -100h-121q-123 0 -212 39t-140 125q-23 38 -37 79q-27 73 -27 185zM297 408q0 -159 67 -232q66 -72 214 -72h57q147 0 215 73t68 233v43q0 158 -68 231q-68 72 -215 72l-57 -2q-148 0 -214 -76q-67 -78 -67 -223v-47z" />
<glyph unicode="7" horiz-adv-x="1003" d="M66 1141v211h870l-2 -115q-27 -32 -128 -157q-54 -67 -100 -135t-77 -126q-36 -67 -58 -125q-21 -59 -37 -134q-17 -80 -25 -153q-9 -82 -12 -184q-3 -101 -3 -223h-164q0 136 4 227q5 111 13 188q8 81 26 157q17 72 41 141q23 60 57 121q30 54 76 121q41 60 97 131 q53 68 122 149h-539l-10 -94h-151z" />
<glyph unicode="8" horiz-adv-x="1118" d="M80 360v29q0 129 60 212t161 110q-80 29 -130 101q-50 73 -50 183v31q0 175 107 261q108 87 288 87h82q180 0 287 -88q108 -89 108 -260v-31q0 -111 -51 -183t-131 -101q99 -27 159 -110t60 -212v-29q0 -187 -110 -281q-112 -95 -306 -95h-118q-197 0 -307 95 q-109 94 -109 281zM248 367q0 -129 66 -198t214 -69h58q148 0 215 69q67 68 67 198v12q0 134 -67 200q-68 66 -215 66h-58q-148 0 -214 -66t-66 -196v-16zM287 1001q0 -239 260 -239h20q262 0 262 239v17q0 237 -262 237h-20q-260 0 -260 -233v-21z" />
<glyph unicode="9" horiz-adv-x="1210" d="M127 895v57q0 216 111 316q110 100 305 100h121q124 0 212 -39q89 -39 140 -125q21 -37 37 -80q26 -71 26 -184v-526q0 -226 -109 -328q-110 -102 -306 -102l-109 -2q-91 0 -166 22q-74 22 -130 70q-55 47 -85 120q-32 76 -33 173v22h164l2 -74q6 -112 66 -163 q61 -52 166 -52h96q147 0 214 73q66 72 66 243v217q-44 -77 -116 -114q-74 -38 -164 -38h-92q-193 0 -305 101q-111 100 -111 313zM293 903q0 -160 67 -231q68 -72 215 -72h58q148 0 214 76t66 223v47q0 161 -66 233t-214 72h-58q-147 0 -215 -72q-67 -71 -67 -233v-43z" />
<glyph unicode=":" horiz-adv-x="380" d="M102 72q0 40 25 65t63 25q41 0 66 -25t25 -65q0 -39 -25 -64q-24 -24 -66 -24q-39 0 -63 24q-25 25 -25 64zM102 952q0 41 25 66q24 24 63 24q42 0 66 -24q25 -25 25 -66q0 -38 -25 -63t-66 -25q-38 0 -63 25t-25 63z" />
<glyph unicode=";" horiz-adv-x="393" d="M100 -172q14 7 26 22t27 38q12 19 22 47q9 27 11 51q-38 0 -61 24q-23 25 -23 62q0 40 25 65t63 25q49 0 75 -29t26 -82q0 -77 -39 -139q-40 -63 -150 -115zM102 950q0 41 25 66q24 24 63 24q42 0 66 -24q25 -25 25 -66q0 -38 -25 -63t-66 -25q-38 0 -63 25t-25 63z" />
<glyph unicode="&#x3c;" horiz-adv-x="872" d="M102 643v86l668 436v-147l-483 -332l483 -332v-147z" />
<glyph unicode="=" horiz-adv-x="1105" d="M102 483v119h902v-119h-902zM102 807v119h902v-119h-902z" />
<glyph unicode="&#x3e;" horiz-adv-x="872" d="M102 207v147l484 332l-484 332v147l668 -436v-86z" />
<glyph unicode="?" horiz-adv-x="1112" d="M104 969v59q0 206 106 306t292 100l110 -2q184 0 292 -99t108 -278v-47q0 -85 -21 -139q-22 -56 -54 -91q-34 -37 -79 -64q-59 -35 -96 -55q-47 -26 -69 -41q-30 -20 -55 -48q-22 -25 -38 -65q-14 -35 -14 -91v-56h-142v48q0 46 9 102q7 46 30 90q22 42 65 82 q41 38 109 76q64 37 74 43q36 22 62 48t41 67q14 38 14 102v35q0 264 -262 264h-84q-112 0 -172 -57t-60 -179l-2 -110h-164zM424 68q0 40 25 65t63 25q41 0 66 -25q24 -24 24 -65q0 -40 -24 -64t-66 -24q-39 0 -63 24q-25 25 -25 64z" />
<glyph unicode="@" horiz-adv-x="1751" d="M102 432v162q0 176 33 312q34 139 115 229q83 92 220 141t349 49l90 -8q166 0 293 -22q123 -21 204 -64q83 -44 131 -107q49 -65 73 -146q23 -80 31 -185q8 -109 8 -224v-333q0 -60 -12 -106q-12 -47 -41 -79q-30 -33 -78 -49t-123 -16h-56q-39 0 -76 8q-33 7 -58 26 q-23 17 -37 52q-12 30 -17 84q-35 -92 -105 -134t-186 -42h-90q-152 0 -243 97t-91 310v244q0 211 91 308t243 97h90q225 0 291 -153v137h188v-96l-71 -9v-718q0 -57 25 -81t79 -24h31q62 0 84 28q20 26 20 99v367q0 152 -12 271t-69 198q-58 81 -176 122q-120 42 -335 42 h-98q-181 0 -292 -42q-112 -42 -174 -121q-62 -78 -83 -196q-20 -111 -20 -266v-162q1 -170 32 -291q30 -119 102 -192q73 -74 193 -107q118 -32 304 -32h385v-105h-387q-213 0 -358 37q-148 38 -238 122q-94 88 -135 224q-43 141 -44 344zM578 397q0 -171 57 -245t192 -74 h45q134 0 192 75q58 74 58 246v207q0 174 -59 246q-60 74 -191 74l-45 -2q-134 0 -192 -73q-57 -72 -57 -243v-211z" />
<glyph unicode="A" horiz-adv-x="1323" d="M66 0v111l69 8l443 1315h167l443 -1315l69 -8v-111h-307v111l70 8l-127 385h-487l-127 -385l69 -8v-111h-282zM442 621h410l-205 618z" />
<glyph unicode="B" horiz-adv-x="1165" d="M152 1323v111l567 -2q178 0 268 -84t90 -240v-72q0 -95 -49 -174q-50 -80 -145 -108q54 -12 95 -42q38 -28 66 -70q27 -40 40 -86q14 -48 14 -93l2 -135q1 -168 -90 -250t-271 -82h-585v110l67 11v1196zM387 111h313q132 0 184 63q50 60 50 158v8l-2 121q-1 97 -52 161 q-49 62 -182 62h-309zM387 803h293q131 0 182 63t51 164v62q0 95 -51 158t-182 63h-293v-510z" />
<glyph unicode="C" horiz-adv-x="1155" d="M131 414v604q0 226 110 328q109 102 306 102h119q188 0 295 -92q105 -91 116 -293h-162l-2 57q-7 117 -70 163q-62 46 -161 46h-104q-147 0 -214 -73t-67 -242v-592q0 -171 67 -247q66 -75 214 -75h104q108 0 170 54q59 52 61 176l2 73h162q-4 -223 -109 -322t-302 -99 h-119q-195 0 -305 103q-111 103 -111 329z" />
<glyph unicode="D" horiz-adv-x="1280" d="M152 -2v111l69 8v1198l-69 8v111h581q193 0 305 -103q111 -102 111 -327v-574q0 -225 -112 -329q-110 -103 -304 -103h-581zM383 117h317q148 0 215 74q68 76 68 247v557q0 172 -68 246t-215 74h-317v-1198z" />
<glyph unicode="E" horiz-adv-x="1058" d="M154 -2v111l65 8v1198l-65 8v111h829v-191h-125l-8 72h-467v-512h481v-119h-481v-567h467l8 71h125v-190h-829z" />
<glyph unicode="F" horiz-adv-x="1048" d="M154 -2v111l65 8v1198l-65 8v111h819v-191h-125l-8 72h-457v-520h465v-119h-465v-559l70 -8v-111h-299z" />
<glyph unicode="G" horiz-adv-x="1228" d="M137 414v604q0 226 110 328q109 102 306 102h119q189 0 295 -91q105 -91 116 -292h-159l-2 57q-7 116 -71 163q-62 46 -161 46h-104q-147 0 -214 -73t-67 -242v-592q0 -171 67 -247q66 -75 214 -75h104q108 0 170 54q59 52 64 176v336h-301v118h462v-372 q-1 -228 -108 -330t-305 -102h-119q-195 0 -305 103q-111 103 -111 329z" />
<glyph unicode="H" horiz-adv-x="1361" d="M154 -2v111l69 8v1198l-69 8v111h303v-111l-70 -8v-506h588v506l-70 8v111h303v-111l-69 -8v-1198l69 -8v-111h-303v111l70 8v573h-588v-573l70 -8v-111h-303z" />
<glyph unicode="I" horiz-adv-x="610" d="M154 1323v111h305v-111l-70 -8v-1198l70 -8v-111h-303v111l69 8v1198z" />
<glyph unicode="J" horiz-adv-x="1146" d="M66 387h161l2 -72q5 -114 57 -165q54 -52 150 -52h80q126 0 186 75t60 247v895l-70 8v111h303v-111l-69 -8l-2 -901q0 -226 -102 -329t-275 -103h-107q-173 0 -271 95q-97 94 -103 310z" />
<glyph unicode="K" horiz-adv-x="1241" d="M156 0v111l69 8v1198l-69 8v111h303v-111l-70 -8v-518h203l381 635h160v-111l-66 -6l-328 -533l111 -4q126 -21 192 -112q66 -92 66 -213v-336l72 -8v-111h-236v424q0 54 -11 97q-12 48 -41 82t-81 56q-51 21 -131 21h-291v-561l70 -10v-109h-303z" />
<glyph unicode="L" horiz-adv-x="1058" d="M156 -2v111l69 10v1196l-69 10v111h303v-111l-70 -10v-1196h473l10 131h121v-250z" />
<glyph unicode="M" horiz-adv-x="1685" d="M141 -2v111l70 8v1198l-70 8v111h320l383 -1088l375 1088h315v-111l-72 -10v-1198l70 -9v-110h-303v110l69 9v1153l-426 -1270h-102l-424 1272v-1153l70 -8v-111h-275z" />
<glyph unicode="N" horiz-adv-x="1382" d="M141 -2v111l70 8v1198l-70 8v111h219l674 -1129v1010l-71 8v111h278v-111l-72 -10v-1315h-147l-676 1132v-1013l70 -8v-111h-275z" />
<glyph unicode="O" horiz-adv-x="1212" d="M131 414v604q0 226 110 328q109 102 306 102h119q194 0 305 -102q110 -101 110 -328v-604q0 -226 -111 -329q-110 -103 -304 -103h-119q-195 0 -305 103q-111 103 -111 329zM297 422q0 -171 67 -247q66 -75 214 -75h57q147 0 215 75q68 76 68 247v588q0 171 -68 245 t-215 74h-57q-147 0 -214 -73t-67 -242v-592z" />
<glyph unicode="P" horiz-adv-x="1234" d="M152 -2v111l69 8v1198l-69 8v111l583 -2q174 0 271 -89q96 -88 96 -239v-113q0 -161 -96 -252q-97 -92 -271 -92h-350v-530l70 -8v-111h-303zM385 764h320q127 0 180 63q53 64 53 164v101q0 97 -53 159t-180 62h-320v-549z" />
<glyph unicode="Q" horiz-adv-x="1230" d="M131 414v604q0 226 110 328q109 102 306 102h119q194 0 305 -102q110 -101 110 -328v-604q0 -117 -34 -192q-34 -76 -97 -122h160v-118h-563q-195 0 -305 103q-111 103 -111 329zM299 426q0 -171 67 -247q66 -75 214 -75h86q134 6 193 81q59 76 59 237v588q0 171 -68 245 t-215 74l-55 4q-148 0 -214 -72q-67 -73 -67 -243v-592z" />
<glyph unicode="R" horiz-adv-x="1241" d="M152 -2v111l69 8v1198l-69 8v111l583 -4q178 0 273 -89q94 -88 94 -239v-105q0 -109 -47 -188q-47 -78 -129 -111q83 -29 129 -106q47 -79 47 -168v-305l72 -8v-111h-236v414q0 116 -53 178q-52 61 -187 61h-313v-536l70 -11v-108h-303zM385 768h320q131 0 182 63t51 164 v95q0 95 -51 158t-182 63h-320v-543z" />
<glyph unicode="S" horiz-adv-x="1091" d="M102 346h164l2 -59q10 -99 69 -144t161 -45h110q146 0 213 67q66 66 66 204q0 65 -17 119q-16 52 -57 90q-39 36 -110 56q-69 20 -177 36q-85 12 -149 30q-75 21 -131 70q-53 46 -86 117q-33 72 -33 182q0 176 102 278q101 101 295 101l99 -4q377 0 395 -367h-162l-6 70 q-15 92 -72 134t-155 42h-56q-137 0 -206 -60q-68 -59 -68 -196q0 -124 76 -190q41 -37 105 -57q60 -18 157 -34q104 -16 184 -41q74 -23 125 -71q60 -55 85 -134q26 -81 26 -184q0 -172 -103 -275q-101 -101 -299 -101h-131q-187 0 -296 88q-110 89 -120 278z" />
<glyph unicode="T" horiz-adv-x="1103" d="M66 1227v207h970v-207h-125l-12 88h-268v-1198l69 -8v-111h-303v111l70 8v1198h-268l-13 -88h-120z" />
<glyph unicode="U" horiz-adv-x="1341" d="M154 1321v111h303v-111l-70 -8v-895q0 -172 66 -246t209 -74h57q144 0 210 75t66 247v895l-69 8v111h274v-111l-70 -10v-901q0 -226 -108 -329q-107 -103 -289 -103h-102q-189 0 -298 103q-110 104 -110 329v901z" />
<glyph unicode="V" horiz-adv-x="1316" d="M66 1321v111h307v-111l-70 -8l367 -1127l364 1129l-69 8v111h284v-111l-69 -10l-437 -1315h-172l-436 1315z" />
<glyph unicode="W" horiz-adv-x="2043" d="M68 1323v111h307v-111l-70 -8l330 -1112l340 1231h123l340 -1231l329 1112l-69 8v111h280v-111l-69 -8l-404 -1315h-168l-315 1112l-315 -1112h-168l-404 1315z" />
<glyph unicode="X" horiz-adv-x="1247" d="M66 0v111l69 8l397 608l-382 590l-70 8v111h326v-111l-68 -8l291 -461l297 461l-70 8v111h307v-111l-69 -8l-381 -580l399 -618l70 -8v-111h-326v111l68 8l-308 487l-311 -487l68 -8v-111h-307z" />
<glyph unicode="Y" horiz-adv-x="1275" d="M68 1323v111h323v-111l-69 -8l329 -596l332 596l-70 8v111h297v-111l-67 -10l-416 -717v-479l70 -8v-111h-318v111l70 8v479l-414 719z" />
<glyph unicode="Z" horiz-adv-x="1083" d="M78 0v119l725 1198h-563l-7 -90h-124v209h880v-119l-725 -1198h613l6 90h125v-209h-930z" />
<glyph unicode="[" horiz-adv-x="485" d="M102 -305v1841h281v-119l-139 2v-1605h139v-119h-281z" />
<glyph unicode="\" horiz-adv-x="1003" d="M102 1434h156l643 -1434h-156z" />
<glyph unicode="]" horiz-adv-x="485" d="M102 -188h140v1605h-140v119h281v-1841l-281 -2v119z" />
<glyph unicode="^" horiz-adv-x="974" d="M102 868l385 545l385 -545h-131l-254 369l-254 -369h-131z" />
<glyph unicode="_" horiz-adv-x="1105" d="M102 -137h902v-119h-902v119z" />
<glyph unicode="`" horiz-adv-x="530" d="M102 1448h185l141 -258h-135z" />
<glyph unicode="a" d="M117 391v244q0 211 91 308t243 97l86 -2q112 0 184 -42t106 -136v162h189v-96l-72 -8v-725q0 -57 15 -81t69 -24h33v-104h-62q-83 0 -120 36q-41 39 -48 140q-35 -92 -105 -134t-185 -42h-90q-152 0 -243 97t-91 310zM254 406q0 -172 57 -246t193 -74h45q133 0 191 75 q59 76 59 247v206q0 172 -60 246t-190 74l-45 -2q-135 0 -193 -73q-57 -72 -57 -243v-210z" />
<glyph unicode="b" horiz-adv-x="1150" d="M131 1337v97h215v-547q34 77 103 115q68 38 159 38h90q153 0 244 -97q92 -98 92 -308v-244q0 -110 -23 -183q-24 -77 -68 -127t-105 -74q-59 -23 -138 -23h-90q-114 0 -185 42q-72 43 -106 134v-160h-116v1329zM346 408q0 -172 57 -247t193 -75h45q133 0 192 75 q58 74 58 247v208q0 174 -58 245q-59 73 -192 73h-45q-135 0 -193 -73q-57 -72 -57 -245v-208z" />
<glyph unicode="c" horiz-adv-x="1040" d="M115 391v244q0 214 94 309q94 96 272 96h101q160 0 247 -77q89 -78 107 -252h-141l-7 67q-33 158 -188 158h-92q-135 0 -193 -73q-57 -72 -57 -242v-211q0 -172 57 -246t193 -74h92q80 0 126 40q45 39 62 126l5 61h141q-16 -174 -106 -254q-88 -79 -248 -79h-99 q-177 0 -272 96q-94 95 -94 311z" />
<glyph unicode="d" d="M115 391v244q0 211 91 308t243 97h90q90 0 160 -38t104 -115v442l-70 8v97h215l-4 -1241v-13q0 -48 13 -68q15 -24 69 -24h33v-104h-62q-79 0 -119 34q-41 35 -49 142q-35 -92 -105 -134t-185 -42h-90q-152 0 -243 97t-91 310zM256 410q0 -172 57 -247t193 -75h45 q133 0 191 75q59 76 59 247v206q0 172 -60 246t-190 74h-45q-135 0 -193 -73q-57 -72 -57 -242v-211z" />
<glyph unicode="e" horiz-adv-x="1048" d="M115 391v244q0 214 94 309q94 96 272 96l103 2q174 0 268 -96q94 -95 94 -307v-160h-686v-69q0 -172 57 -247t193 -75h45q119 0 177 58t69 188h141q-15 -186 -105 -267q-92 -83 -257 -83h-99q-177 0 -272 96q-94 95 -94 311zM262 586h545v63q-1 152 -63 221 q-60 68 -187 68l-45 -2q-127 0 -188 -67t-62 -218v-65z" />
<glyph unicode="f" horiz-adv-x="622" d="M68 920v104h90v10q0 210 99 308q100 98 261 98h35v-105q-124 0 -187 -72q-64 -73 -65 -239h250v-104h-250v-814l72 -8v-96h-287v96l72 8v814h-90z" />
<glyph unicode="g" horiz-adv-x="1150" d="M115 391v244q0 210 92 308q91 97 244 97l90 4q113 0 183 -42q71 -42 105 -136v160h189v-92l-72 -8v-865q0 -110 -25 -186q-25 -78 -74 -128q-48 -50 -115 -74q-63 -23 -146 -23h-346v104h319q110 0 174 67t68 218v86q-69 -141 -262 -141h-90q-152 0 -243 97t-91 310z M258 414q0 -173 58 -247q58 -75 192 -75h45q135 0 192 75q58 76 58 247v209q0 171 -58 244t-192 73h-45q-133 0 -192 -73q-58 -71 -58 -244v-209z" />
<glyph unicode="h" horiz-adv-x="1239" d="M143 2v96l72 8v1223l-72 8v97h215v-555q34 82 106 122q70 39 157 39h90q77 0 134 -23q61 -24 105 -73q47 -51 70 -126q24 -76 24 -183v-531l72 -8v-96l-213 2v616q0 173 -60 245q-61 73 -190 73h-45q-120 0 -185 -73t-65 -245v-512l72 -8v-96h-287z" />
<glyph unicode="i" horiz-adv-x="561" d="M141 2v96l72 8v814l-72 8v96h215v-920l72 -6v-96h-287zM180 1290q0 41 25 66q24 24 63 24q42 0 66 -24t24 -66q0 -39 -24 -63q-25 -25 -66 -25q-38 0 -63 25t-25 63z" />
<glyph unicode="j" horiz-adv-x="671" d="M131 -244q133 0 195 75q61 74 61 245v844l-72 8v96h215v-967q0 -108 -25 -183q-25 -76 -74 -126q-47 -48 -115 -73q-63 -23 -146 -23h-39v104zM352 1292q0 41 25 66q24 24 63 24q42 0 66 -24t24 -66q0 -39 -24 -63q-25 -25 -66 -25q-38 0 -63 25t-25 63z" />
<glyph unicode="k" horiz-adv-x="1081" d="M141 2v96l72 8v1223l-72 8v97h215v-906l389 392l-69 8v96h301v-96l-74 -8l-278 -283l331 -533l72 -8v-96h-160l-340 547l-172 -166v-275l72 -8v-96h-287z" />
<glyph unicode="l" horiz-adv-x="550" d="M141 2v96l72 8v1223l-72 8v97h215v-1330l72 -8v-96z" />
<glyph unicode="m" horiz-adv-x="1914" d="M133 0v96l72 8v814l-72 8v96h189v-170q34 99 109 142q76 44 179 44h90q100 0 179 -50q76 -48 114 -167q37 117 114 168t191 51h91q77 0 134 -23q61 -24 105 -73q47 -51 70 -126q24 -76 24 -183v-531l72 -8v-96h-213v616q0 173 -60 245q-61 73 -190 73h-45 q-120 0 -185 -73t-65 -245v-512l72 -8v-96h-215v616q0 173 -60 245q-61 73 -190 73h-45q-120 0 -185 -73t-65 -245v-512l72 -8v-96h-287z" />
<glyph unicode="n" horiz-adv-x="1228" d="M133 2v96l72 8v814l-72 8v96h189v-170q34 99 109 142q76 44 179 44h90q78 0 135 -23q61 -24 105 -73q47 -51 70 -126q24 -76 24 -183v-531l72 -8v-96l-213 2v616q0 173 -60 245q-61 73 -190 73h-45q-120 0 -185 -73t-65 -245v-512l72 -8v-96h-287z" />
<glyph unicode="o" horiz-adv-x="1060" d="M115 391v244q0 214 94 309q94 96 272 96h99q176 0 271 -96q95 -97 95 -309v-244q0 -214 -95 -311q-95 -96 -271 -96h-99q-177 0 -272 96q-94 95 -94 311zM258 408q0 -172 57 -246t193 -74h45q133 0 191 75q59 76 59 247v206q0 172 -60 246t-190 74l-45 -2 q-135 0 -193 -73q-57 -72 -57 -243v-210z" />
<glyph unicode="p" horiz-adv-x="1204" d="M143 922v104h62q79 0 120 -33t48 -129q35 92 105 134t186 42l92 2q151 0 242 -97q92 -98 92 -310v-244q0 -212 -92 -309q-91 -96 -242 -96h-90q-91 0 -161 38t-104 115v-411l72 -9v-96h-287v96l72 9v1089q0 59 -14 81q-15 24 -68 24h-33zM401 412q0 -172 59 -246t191 -74 h45q135 0 193 73q57 72 57 243v210q0 172 -57 247t-193 75h-45q-133 0 -191 -75q-59 -76 -59 -247v-206z" />
<glyph unicode="q" horiz-adv-x="1150" d="M117 385v244q0 213 91 310t243 97h90q115 0 185 -42t105 -134v162h115v-1298l72 -9v-96l-285 -2v96l72 8v412q-35 -78 -104 -116q-68 -37 -160 -37h-90q-151 0 -243 96q-91 95 -91 309zM260 401q0 -170 57 -242q58 -73 193 -73h45q130 0 190 74t60 246v206q0 171 -59 247 q-59 75 -191 75h-45q-136 0 -193 -75t-57 -247v-211z" />
<glyph unicode="r" horiz-adv-x="743" d="M129 4v96l72 9v813l-72 8v96h188v-174q88 190 334 190h39v-106l-53 4q-61 0 -113 -18t-93 -59q-38 -38 -63 -100q-24 -60 -24 -147v-507l72 -9v-96h-287z" />
<glyph unicode="s" horiz-adv-x="915" d="M59 299h142l2 -45q6 -87 60 -124q55 -38 132 -38h88q109 0 168 37q60 37 60 141q0 36 -10 68q-9 29 -31 51q-61 58 -228 80q-9 1 -24.5 3.5t-28.5 4.5t-25 4q-40 6 -79 18q-44 14 -75 29q-35 18 -63 47q-31 35 -49 80q-18 46 -18 115q0 67 25 117t72 85q43 32 111 51 q61 17 140 17l72 2q72 0 130 -19q62 -20 104 -58q44 -39 71 -100q26 -58 26 -142h-141l-4 57q-8 80 -59 118q-52 38 -129 38h-47q-116 0 -173 -42t-57 -140q0 -44 12 -72q11 -27 35 -49q40 -37 103 -46q114 -17 125 -18q102 -13 166 -35q67 -23 112 -65q41 -35 61 -85 q19 -48 19 -124q0 -71 -26 -123q-26 -51 -71 -85q-44 -33 -111 -50q-63 -16 -140 -16h-115q-65 0 -125 18q-58 18 -104 57q-47 40 -73 99q-29 64 -30 139z" />
<glyph unicode="t" horiz-adv-x="622" d="M70 920v104h90v268h143v-268l252 -2v-104h-250v-510q0 -173 63 -245q64 -73 187 -73v-104h-35q-83 0 -146 23q-68 25 -115 73q-49 50 -74 126q-25 75 -25 183v529h-90z" />
<glyph unicode="u" horiz-adv-x="1204" d="M119 928v96h215v-610q0 -91 13 -149q13 -60 41 -98q26 -37 72 -54q45 -17 105 -17h21q55 0 106 18q53 19 90 56q40 40 63 98t23 146v506l-71 8v96h215v-920l71 -8v-96l-192 2v193q-40 -104 -131 -154q-89 -49 -219 -49h-31q-72 0 -131 22t-101 72q-43 50 -65 126 q-23 78 -23 185v523z" />
<glyph unicode="v" horiz-adv-x="1095" d="M55 928v96h287v-96l-72 -8l291 -770l291 770l-72 8v96h262v-96l-71 -8l-350 -920h-144l-350 920z" />
<glyph unicode="w" horiz-adv-x="1771" d="M55 928v96h287v-96l-72 -8l262 -748l295 854h144l295 -854l262 748l-72 8v96h262v-96l-67 -8l-324 -920h-143l-295 852l-295 -852h-143l-324 920z" />
<glyph unicode="x" horiz-adv-x="1007" d="M57 2v96l72 8l297 406l-289 408l-71 8v96h315v-96l-72 -8l207 -308l217 308l-71 8v96h284v-96l-69 -8l-291 -392l299 -422l71 -8v-96h-317v96l72 8l-219 322l-222 -322l72 -8v-96h-285z" />
<glyph unicode="y" horiz-adv-x="1095" d="M55 928v96h287v-96l-72 -8l289 -775l293 775l-72 8v96h262v-96l-71 -8l-482 -1262h-258v109h181l90 235l-29 12l-346 906z" />
<glyph unicode="z" horiz-adv-x="868" d="M72 0v104l532 814h-416l-10 -97h-86v201h676v-104l-532 -814h458l11 97h88v-201h-721z" />
<glyph unicode="{" horiz-adv-x="745" d="M102 557v119h31q72 2 116 47q44 46 44 119v489q0 92 60 149q59 56 149 56h141v-119l-141 2q-28 0 -48 -21q-20 -22 -20 -57v-510q0 -66 -36 -126q-37 -61 -113 -89q77 -28 113 -87t36 -126v-512q0 -33 20 -55q19 -20 48 -20h141v-119h-141q-90 0 -149 56q-60 57 -60 149 v489q0 71 -44 117q-43 44 -116 49h-31z" />
<glyph unicode="|" horiz-adv-x="348" d="M102 -123v1557h144v-1557h-144z" />
<glyph unicode="}" horiz-adv-x="745" d="M102 -184h142q29 0 48 20t19 55v512q0 67 36 127q36 59 114 88q-77 28 -114 88q-36 59 -36 125v510q0 36 -19 56t-48 20h-142v119h142q89 0 148 -56q61 -58 61 -149v-489q0 -71 44 -117q43 -45 115 -49h31v-119h-31q-71 -1 -115 -47t-44 -119v-489q0 -91 -61 -149 q-59 -56 -148 -56h-142v119z" />
<glyph unicode="~" horiz-adv-x="1153" d="M104 438q0 120 41 197q40 75 138 86q58 10 146 -18q82 -26 177 -68q90 -41 153 -64q67 -24 109 -20q60 4 76 52q17 49 17 114l90 4q0 -116 -35 -189q-34 -70 -121 -81q-64 -12 -150 15q-77 24 -178 69q-66 31 -150 65q-67 27 -110 23q-70 -5 -91 -57t-21 -128h-91z" />
<glyph unicode="&#xa1;" horiz-adv-x="380" d="M102 1028q0 39 25 64q24 24 63 24q42 0 66 -24q25 -25 25 -64q0 -40 -25 -65t-66 -25q-38 0 -63 25t-25 65zM115 -336v1088h141v-1088h-141z" />
<glyph unicode="&#xa2;" horiz-adv-x="1024" d="M100 391v244q0 198 83 295q82 95 233 106l33 2v193h141v-193l24 2q133 -11 208 -89q77 -80 93 -238h-141l-6 73q-17 80 -62 117q-46 37 -122 37h-92q-135 0 -193 -73q-57 -72 -57 -242v-211q0 -172 57 -247t193 -75h92q77 0 124 38q45 36 62 124l6 68h142 q-17 -160 -92 -241t-203 -91l-35 -2v-189h-142v187l-34 2q-148 11 -230 107q-82 97 -82 296z" />
<glyph unicode="&#xa3;" horiz-adv-x="1165" d="M104 0v121h74v510h-74v121h74v299q0 175 107 267q106 91 290 91h111q166 0 272 -92q105 -91 105 -256v-51h-164l-2 100q0 84 -56 133t-153 49h-84q-130 0 -196 -57t-66 -186v-297h307v-121h-307v-510h676v-121h-914z" />
<glyph unicode="&#xa5;" horiz-adv-x="1347" d="M102 1323v111h324v-111l-70 -8l330 -580l332 580l-70 8v111h297v-111l-67 -6l-287 -492h242v-118h-316l-43 -76l-6 -53h365v-119h-371v-342l69 -8v-111h-317v111l70 8v342h-371v119h365l-7 51l-43 76h-315v118h244l-287 492z" />
<glyph unicode="&#xa6;" horiz-adv-x="348" d="M102 -123v674h144v-674h-144zM102 760v674h144v-674h-144z" />
<glyph unicode="&#xa7;" horiz-adv-x="954" d="M104 1122v39q5 147 86 209q84 65 244 66l66 2q164 0 242 -70q77 -70 85 -223l2 -37h-165l-5 72q-6 82 -49 110q-44 29 -121 29h-26q-104 0 -151 -35q-46 -34 -46 -123v-18q1 -49 15 -86q12 -33 53 -62q78 -28 132 -49q73 -28 131 -59q64 -33 115 -70q54 -39 83 -82 q16 -21 32 -60q16 -37 17 -82q1 -44 -14 -103q-14 -54 -54 -123q41 -47 58 -99q17 -51 18 -116v-60q-6 -155 -89 -214q-82 -58 -253 -58h-70q-168 1 -246 76q-77 74 -81 241v27h166l4 -72q6 -91 50 -121q43 -30 130 -30h26q47 0 89 5q37 4 61 21q24 16 36 44q11 26 13 75v57 q-1 50 -14 84q-12 34 -51 62q-61 23 -129 48q-63 24 -129 56q-58 28 -115 69q-54 39 -88 87q-21 31 -31 62q-11 34 -13 82t13 102q16 58 49 123q-39 44 -58 92q-18 46 -18 112zM264 670q2 -35 13 -58q12 -25 28 -39q27 -32 76 -49q39 -14 94 -28q76 -20 90 -23 q43 -11 72 -27q34 52 48 102q12 43 7 76q-5 34 -18 54q-15 22 -31 37q-35 35 -100 56q-94 30 -131 40q-32 8 -53 15q-24 8 -42 18v-2q-31 -55 -43 -97t-10 -75z" />
<glyph unicode="&#xa8;" horiz-adv-x="669" d="M102 1292q0 41 25 66q24 24 63 24q42 0 66 -24q25 -25 25 -66q0 -38 -25 -63t-66 -25q-38 0 -63 25t-25 63zM391 1292q0 41 25 66q24 24 63 24q42 0 66 -24t24 -66q0 -39 -24 -63q-25 -25 -66 -25q-38 0 -63 25t-25 63z" />
<glyph unicode="&#xa9;" horiz-adv-x="1296" d="M102 883q0 115 41 217q40 99 113 175q72 75 172 117q101 42 221 42q119 0 219 -42t172 -117q73 -76 113 -175q41 -102 41 -217t-41 -218q-40 -101 -113 -177q-71 -74 -172 -116q-100 -42 -219 -42q-121 0 -221 42q-101 42 -172 116q-73 76 -113 177q-41 103 -41 218z M205 881q0 -97 31 -182q30 -82 88 -143q57 -60 140 -95q84 -35 185 -35q102 0 186 35q83 35 140 95q58 61 88 143q31 85 31 182q0 96 -31 181q-30 82 -88 143q-57 60 -140 95q-84 35 -186 35h-2q-100 0 -184 -35q-81 -34 -139 -95t-88 -143q-31 -85 -31 -181zM367 797v172 q0 135 63 198q64 64 176 64h84q100 0 156 -56q56 -57 67 -169h-90l-2 34q-11 66 -45 96q-33 29 -90 29h-57q-89 0 -129 -46q-41 -47 -41 -154v-162q0 -108 41 -155q40 -46 129 -46h57q54 0 90 31q34 30 45 96l2 33h90q-11 -116 -67 -172q-58 -58 -156 -58h-84 q-113 0 -176 65t-63 200z" />
<glyph unicode="&#xab;" horiz-adv-x="911" d="M102 524v84l332 269v-166l-166 -146l166 -145v-166zM477 524v84l332 269v-166l-166 -146l166 -145v-166z" />
<glyph unicode="&#xac;" horiz-adv-x="1052" d="M102 537v118h848v-374h-141v256h-707z" />
<glyph unicode="&#xad;" horiz-adv-x="792" d="M102 522v119h588v-119h-588z" />
<glyph unicode="&#xae;" horiz-adv-x="1296" d="M102 883q0 115 41 217q40 99 113 175q72 75 172 117q101 42 221 42q119 0 219 -42t172 -117q73 -76 113 -175q41 -102 41 -217t-41 -218q-40 -101 -113 -177q-71 -74 -172 -116q-100 -42 -219 -42q-121 0 -221 42q-101 42 -172 116q-73 76 -113 177q-41 103 -41 218z M205 881q0 -97 31 -182q30 -82 88 -143q57 -60 140 -95q84 -35 185 -35q102 0 186 35q83 35 140 95q58 61 88 143q31 85 31 182q0 96 -31 181q-30 82 -88 143q-57 60 -140 95q-84 35 -186 35h-2q-100 0 -184 -35q-81 -34 -139 -95t-88 -143q-31 -85 -31 -181zM383 545v53 l53 6v557l-53 6v54h315q76 0 119 -40t43 -108v-57q0 -115 -88 -139q45 -12 67 -49q21 -36 21 -85v-137l53 -8v-53h-133v182q0 60 -23 92q-24 33 -95 33h-148v-248l53 -6v-53h-184zM514 1161l2 -250h154q69 0 91 31q21 30 21 78v45q0 46 -25 71t-77 25h-166z" />
<glyph unicode="&#xaf;" horiz-adv-x="768" d="M102 1341v105h564v-105h-564z" />
<glyph unicode="&#xb0;" horiz-adv-x="731" d="M102 1167q0 57 20 106q20 50 55 83q35 34 84 55q48 21 104 21q57 0 105 -21q50 -22 83 -55t55 -83q21 -48 21 -106q0 -55 -21 -103q-21 -49 -55 -84q-33 -35 -83 -55q-49 -20 -105 -20q-55 0 -104 20t-84 55t-55 84t-20 103zM213 1167q0 -64 41 -110q40 -45 111 -45 q69 0 110 45q41 46 41 110q0 65 -41 112q-40 46 -110 46q-71 0 -111 -46q-41 -47 -41 -112z" />
<glyph unicode="&#xb1;" horiz-adv-x="1079" d="M100 0v119h875v-119h-875zM100 647v119h367v278h143v-278h365v-119h-367v-276h-141v276h-367z" />
<glyph unicode="&#xb4;" horiz-adv-x="530" d="M102 1190l142 258h184l-190 -258h-136z" />
<glyph unicode="&#xb6;" horiz-adv-x="1277" d="M102 930v180q0 161 96 243q95 81 242 81h736v-119l-72 2v-1596h-141v1596h-265v-1596h-141v885h-117q-72 0 -135 20q-62 20 -106 59q-46 42 -71 100q-26 61 -26 145z" />
<glyph unicode="&#xb7;" horiz-adv-x="380" d="M102 856q0 41 25 66q24 24 63 24q42 0 66 -24q25 -25 25 -66q0 -38 -25 -63t-66 -25q-38 0 -63 25t-25 63z" />
<glyph unicode="&#xb8;" horiz-adv-x="477" d="M102 -244h56q56 0 76 29t20 90v125h121v-145q0 -111 -42 -158t-143 -47h-88v106z" />
<glyph unicode="&#xbb;" horiz-adv-x="911" d="M102 254v166l166 145l-166 146v166l332 -269v-84zM477 254v166l166 145l-166 146v166l332 -269v-84z" />
<glyph unicode="&#xbf;" horiz-adv-x="1112" d="M100 104v48q0 84 21 138q22 58 54 92q34 37 79 64q57 34 96 56q47 26 69 41q30 20 55 48q22 25 38 65q14 35 14 92v55h142v-47q0 -53 -8 -103t-30 -90q-23 -41 -65 -82q-37 -35 -108 -75q-31 -17 -75 -44q-31 -19 -60 -48q-26 -26 -41 -67t-15 -102v-34q0 -265 262 -265 h84q112 0 172 57t60 179l2 111h164v-60q0 -206 -106 -306q-105 -99 -292 -99h-112q-185 0 -292 98q-108 99 -108 278zM510 1092q0 38 25 63t65 25q39 0 64 -25q24 -24 24 -63q0 -42 -24 -66q-25 -25 -64 -25q-40 0 -65 25t-25 66z" />
<glyph unicode="&#xc0;" horiz-adv-x="1323" d="M63 0v111l70 8l442 1315h168l443 -1315l69 -8v-111h-307v111l70 8l-127 385h-488l-127 -385l70 -8v-111h-283zM440 621h410l-205 618zM506 1855h184l141 -258h-135z" />
<glyph unicode="&#xc1;" horiz-adv-x="1323" d="M63 0v111l70 8l442 1315h168l443 -1315l69 -8v-111h-307v111l70 8l-127 385h-488l-127 -385l70 -8v-111h-283zM440 621h410l-205 618zM494 1597l141 258h184l-190 -258h-135z" />
<glyph unicode="&#xc2;" horiz-adv-x="1323" d="M66 0v111l69 8l443 1315h167l443 -1315l69 -8v-111h-307v111l70 8l-127 385h-487l-127 -385l69 -8v-111h-282zM334 1579l252 274h155l252 -274h-143l-186 195l-187 -195h-143zM442 621h410l-205 618z" />
<glyph unicode="&#xc3;" horiz-adv-x="1323" d="M68 0v111l69 8l443 1315h168l442 -1315l67 -8v-111h-305v111l70 8l-127 385h-487l-127 -385l69 -8v-111h-282zM350 1638q6 110 62 172q57 63 145 48q35 -5 67 -23q31 -18 62 -41q28 -22 55 -37q22 -13 50 -18q49 -6 72 27q24 35 30 89l90 3q-6 -117 -62 -176 q-57 -61 -149 -44q-34 4 -66 24q-40 25 -63 42q-27 20 -52 34q-22 12 -46 17q-52 8 -75 -25q-24 -34 -30 -92h-90zM446 623h410l-205 618z" />
<glyph unicode="&#xc4;" horiz-adv-x="1323" d="M66 0v111l69 8l443 1315h167l443 -1315l69 -8v-111h-307v111l70 8l-127 385h-487l-127 -385l69 -8v-111h-282zM434 1778q0 40 25 65t63 25q41 0 66 -25q24 -24 24 -65q0 -40 -24 -64t-66 -24q-39 0 -63 24q-25 25 -25 64zM442 621h410l-205 618zM723 1778q0 40 25 65 t63 25q41 0 66 -25q24 -24 24 -65q0 -40 -24 -64t-66 -24q-39 0 -63 24q-25 25 -25 64z" />
<glyph unicode="&#xc5;" horiz-adv-x="1323" d="M66 2v111l69 8l443 1315h167l443 -1315l69 -8v-111h-307v111l70 8l-127 385h-487l-127 -385l69 -8v-111h-282zM442 623h410l-205 618zM459 1683q0 39 15 76t43 65q27 28 65 44q36 16 80 16t80 -16q39 -17 66 -44q28 -28 44 -65q16 -36 16 -76q0 -44 -16 -80 q-17 -39 -44 -66t-66 -44q-36 -16 -80 -16q-87 0 -145 59t-58 147zM557 1683q0 -44 29 -76t76 -32q46 0 76 32q30 31 30 76q0 41 -30 74t-76 33q-48 0 -76 -33q-29 -34 -29 -74z" />
<glyph unicode="&#xc6;" horiz-adv-x="1480" d="M66 0v111l69 8l443 1315h825v-191l-127 2l-8 72h-467v-512h481v-119h-481v-567h467l8 71h125v-190h-830v111l66 8v385h-231l-127 -385l69 -8v-111h-282zM442 623h193v581z" />
<glyph unicode="&#xc7;" horiz-adv-x="1155" d="M133 416v604q0 226 110 328q109 102 306 102h119q188 0 295 -92q105 -91 116 -293h-161l-3 57q-7 117 -70 163q-62 46 -161 46h-104q-147 0 -214 -73t-67 -242v-592q0 -171 67 -247q66 -75 214 -75h104q108 0 170 54q59 52 61 176l3 74l163 2q-1 -198 -86 -299 q-84 -100 -241 -121v-133q0 -111 -42 -158t-143 -47h-88v106h56q56 0 76 29t20 90v109h-84q-195 0 -305 103q-111 104 -111 329z" />
<glyph unicode="&#xc8;" horiz-adv-x="1058" d="M154 -2v111l65 8v1198l-65 8v111h829v-191h-125l-8 72h-467v-512h481v-119h-481v-567h467l8 71h125v-190h-829zM412 1855h184l141 -258h-135z" />
<glyph unicode="&#xc9;" horiz-adv-x="1058" d="M154 -2v111l65 8v1198l-65 8v111h829v-191h-125l-8 72h-467v-512h481v-119h-481v-567h467l8 71h125v-190h-829zM399 1597l142 258h184l-190 -258h-136z" />
<glyph unicode="&#xca;" horiz-adv-x="1058" d="M154 -2v111l65 8v1198l-65 8v111h829v-191h-125l-8 72h-467v-512h481v-119h-481v-567h467l8 71h125v-190h-829zM240 1579l252 274h155l252 -274h-143l-187 195l-186 -195h-143z" />
<glyph unicode="&#xcb;" horiz-adv-x="1058" d="M156 0v111l65 8v1198l-65 8v111h829v-191h-125l-8 72h-467v-512h481v-119h-481v-567h467l8 71h125v-190h-829zM340 1782q0 40 25 65t63 25q41 0 66 -25q24 -24 24 -65q0 -40 -24 -64t-66 -24q-39 0 -63 24q-25 25 -25 64zM629 1782q0 41 24 65q25 25 64 25q40 0 65 -25 t25 -65q0 -39 -25 -64q-24 -24 -65 -24q-40 0 -64 24t-24 64z" />
<glyph unicode="&#xcc;" horiz-adv-x="632" d="M154 1855h184l141 -258h-135zM158 1323v111h305v-111l-70 -8v-1198l70 -8v-111h-303v111l69 8v1198z" />
<glyph unicode="&#xcd;" horiz-adv-x="632" d="M152 1597l141 258h184l-190 -258h-135zM168 1323v111h305v-111l-70 -8v-1198l70 -8v-111h-303v111l70 8v1198z" />
<glyph unicode="&#xce;" horiz-adv-x="964" d="M154 1579l252 274h155l252 -274h-143l-187 195l-186 -195h-143zM332 1323v111h305v-111l-70 -8v-1198l70 -8v-111h-303v111l69 8v1198z" />
<glyph unicode="&#xcf;" horiz-adv-x="770" d="M152 1778q0 41 24 65q25 25 64 25q40 0 65 -25t25 -65q0 -39 -25 -64q-24 -24 -65 -24q-40 0 -64 24t-24 64zM229 1323v111h306v-111l-70 -8v-1198l70 -8v-111h-304v111l70 8v1198zM440 1778q0 40 25 65t63 25q41 0 66 -25q24 -24 24 -65q0 -40 -24 -64t-66 -24 q-39 0 -63 24q-25 25 -25 64z" />
<glyph unicode="&#xd0;" horiz-adv-x="1310" d="M154 666v118h98v531l-70 8v111h582q193 0 305 -103q111 -102 111 -327v-574q0 -225 -112 -329q-110 -103 -304 -103h-582v111l70 8v549h-98zM414 117h317q148 0 215 74q68 76 68 247v557q0 172 -68 246t-215 74h-317v-531h323v-118h-323v-549z" />
<glyph unicode="&#xd1;" horiz-adv-x="1382" d="M143 0v111l70 8v1198l-70 8v111h219l674 -1129v1010l-71 8v111h278v-111l-72 -10v-1315h-147l-676 1133v-1014l70 -8v-111h-275zM354 1638q6 110 62 172q57 63 145 48q35 -5 67 -23q31 -18 62 -41q28 -22 55 -37q22 -13 50 -18q49 -6 72 27q24 35 30 89l90 3 q-6 -117 -62 -176q-57 -61 -149 -44q-34 4 -66 24q-40 25 -63 42q-27 20 -52 34q-22 12 -46 17q-52 8 -75 -25q-24 -34 -30 -92h-90z" />
<glyph unicode="&#xd2;" horiz-adv-x="1212" d="M129 414v604q0 226 110 328q109 102 306 102h119q194 0 305 -102q110 -101 110 -328v-604q0 -226 -111 -329q-110 -103 -304 -103h-119q-195 0 -305 103q-111 103 -111 329zM295 422q0 -172 66 -247t214 -75h58q147 0 215 75q67 74 67 247v588q0 172 -67 245 q-68 74 -215 74h-58q-147 0 -214 -73q-66 -72 -66 -242v-592zM449 1855h184l141 -258h-135z" />
<glyph unicode="&#xd3;" horiz-adv-x="1212" d="M129 414v604q0 226 110 328q109 102 306 102h119q194 0 305 -102q110 -101 110 -328v-604q0 -226 -111 -329q-110 -103 -304 -103h-119q-195 0 -305 103q-111 103 -111 329zM295 422q0 -172 66 -247t214 -75h58q147 0 215 75q67 74 67 247v588q0 172 -67 245 q-68 74 -215 74h-58q-147 0 -214 -73q-66 -72 -66 -242v-592zM436 1597l142 258h184l-191 -258h-135z" />
<glyph unicode="&#xd4;" horiz-adv-x="1212" d="M131 414v604q0 226 110 328q109 102 306 102h119q194 0 305 -102q110 -101 110 -328v-604q0 -226 -111 -329q-110 -103 -304 -103h-119q-195 0 -305 103q-111 103 -111 329zM276 1579l252 274h156l252 -274h-143l-187 195l-186 -195h-144zM297 422q0 -171 67 -247 q66 -75 214 -75h57q147 0 215 75q68 76 68 247v588q0 171 -68 245t-215 74h-57q-147 0 -214 -73t-67 -242v-592z" />
<glyph unicode="&#xd5;" horiz-adv-x="1212" d="M133 416v604q0 226 110 328q109 102 306 102h119q194 0 305 -102q110 -101 110 -328v-604q0 -226 -111 -329q-110 -103 -304 -103h-119q-195 0 -305 103q-111 104 -111 329zM295 1638q6 111 61 172q57 63 146 48q33 -4 66 -23q35 -20 63 -41q28 -22 55 -37q23 -13 49 -18 q50 -6 73 27q24 35 30 89l90 3q-6 -116 -63 -176t-148 -44q-36 5 -67 24q-34 21 -62 42q-27 20 -52 34q-21 12 -47 17q-51 8 -74 -25q-24 -34 -30 -92h-90zM299 422q0 -171 67 -246q66 -74 214 -74h57q147 0 215 75q68 76 68 247v588q0 171 -68 245t-215 74l-57 -2 q-147 0 -214 -73t-67 -242v-592z" />
<glyph unicode="&#xd6;" horiz-adv-x="1212" d="M131 414v604q0 226 110 328q109 102 306 102h119q194 0 305 -102q110 -101 110 -328v-604q0 -226 -111 -329q-110 -103 -304 -103h-119q-195 0 -305 103q-111 103 -111 329zM297 422q0 -171 67 -247q66 -75 214 -75h57q147 0 215 75q68 76 68 247v588q0 171 -68 245 t-215 74h-57q-147 0 -214 -73t-67 -242v-592zM377 1780q0 41 24 65q25 25 64 25q40 0 65 -25t25 -65q0 -39 -25 -64q-24 -24 -65 -24q-40 0 -64 24t-24 64zM666 1780q0 41 24 65q25 25 64 25q40 0 65 -25t25 -65q0 -39 -25 -64q-24 -24 -65 -24q-40 0 -64 24t-24 64z" />
<glyph unicode="&#xd7;" horiz-adv-x="925" d="M100 365l260 260l-258 258l101 100l260 -258l260 260l100 -100l-262 -258l258 -260l-100 -101l-258 258l-260 -260z" />
<glyph unicode="&#xd8;" horiz-adv-x="1230" d="M141 414v604q0 226 110 328q109 102 306 102h119q102 0 176 -27l51 115h156l-82 -186q55 -53 85 -135q30 -81 30 -195v-604q0 -225 -112 -329q-110 -103 -304 -103h-119q-107 0 -182 26l-51 -114h-156l84 188q-111 106 -111 330zM307 420q0 -92 23 -166l469 1046 q-58 29 -154 29h-57q-147 0 -214 -73t-67 -242v-594zM430 129q64 -31 158 -31h57q147 0 215 75q68 76 68 247l-2 586q0 104 -25 174z" />
<glyph unicode="&#xd9;" horiz-adv-x="1341" d="M154 1321v111h303v-111l-70 -8v-895q0 -172 66 -246t209 -74h57q144 0 210 75t66 247v895l-69 8v111h274v-111l-70 -10v-901q0 -226 -108 -329q-107 -103 -289 -103h-102q-189 0 -298 103q-110 104 -110 329v901zM530 1855h185l141 -258h-135z" />
<glyph unicode="&#xda;" horiz-adv-x="1341" d="M154 1321v111h303v-111l-70 -8v-895q0 -172 66 -246t209 -74h57q144 0 210 75t66 247v895l-69 8v111h274v-111l-70 -10v-901q0 -226 -108 -329q-107 -103 -289 -103h-102q-189 0 -298 103q-110 104 -110 329v901zM518 1597l141 258h185l-191 -258h-135z" />
<glyph unicode="&#xdb;" horiz-adv-x="1341" d="M152 1321v111h303v-111l-70 -8v-895q0 -172 66 -246t208 -74h58q144 0 210 75t66 247v895l-69 8v111h274v-111l-70 -10v-901q0 -226 -108 -329q-107 -103 -289 -103h-102q-189 0 -298 103q-110 104 -110 329v901zM356 1579l252 274h156l252 -274h-144l-186 195l-186 -195 h-144z" />
<glyph unicode="&#xdc;" horiz-adv-x="1341" d="M154 1321v111h303v-111l-70 -8v-895q0 -172 66 -246t209 -74h57q144 0 210 75t66 247v895l-69 8v111h274v-111l-70 -10v-901q0 -226 -108 -329q-107 -103 -289 -103h-102q-189 0 -298 103q-110 104 -110 329v901zM457 1776q0 41 24 65q25 25 64 25q40 0 65 -25t25 -65 q0 -39 -25 -64q-24 -24 -65 -24q-40 0 -64 24t-24 64zM745 1776q0 40 25 65t64 25q40 0 65 -25t25 -65q0 -39 -25 -64q-24 -24 -65 -24q-40 0 -64 24q-25 25 -25 64z" />
<glyph unicode="&#xdd;" horiz-adv-x="1275" d="M68 1323v111h323v-111l-69 -8l329 -596l332 596l-70 8v111h297v-111l-67 -10l-416 -717v-479l70 -8v-111h-318v111l70 8v479l-414 719zM477 1597l141 258h185l-191 -258h-135z" />
<glyph unicode="&#xde;" horiz-adv-x="1216" d="M152 -2v111l69 8v1198l-69 8v111h303v-111l-70 -12v-150h332q173 0 270 -89q96 -88 96 -241v-112q0 -160 -96 -250t-270 -90h-332v-262l70 -8v-111h-303zM385 494h301q128 0 180 63q54 65 54 164v90q0 47 -14 91q-14 43 -41 73q-28 31 -71 49t-108 18h-301v-548z" />
<glyph unicode="&#xdf;" horiz-adv-x="1234" d="M154 0v111l69 8v960q0 181 108 271t290 90l118 -2q84 0 159 -22q73 -21 125 -63t81 -104q29 -63 29 -141v-68q0 -98 -51 -181q-49 -80 -156 -109q116 -24 177 -111q60 -85 60 -201v-92q0 -170 -111 -259q-112 -89 -304 -89h-254v119h231q136 0 205 70q69 71 69 184v61 q0 132 -68 193t-210 61h-119v119h111q141 0 198 66q58 67 58 180v39q0 104 -67 168q-66 63 -185 63h-53q-137 0 -206 -59q-71 -60 -71 -183v-1079h-233z" />
<glyph unicode="&#xe0;" d="M115 391v244q0 211 91 308t243 97l86 -2q112 0 184 -42t106 -136v162h189v-96l-72 -8v-725q0 -57 15 -81t69 -24h33v-104h-62q-79 0 -119 34q-41 35 -49 142q-35 -92 -105 -134t-185 -42h-90q-152 0 -243 97t-91 310zM252 406q0 -172 57 -246t193 -74h45q133 0 191 75 q59 76 59 247v206q0 172 -60 246t-190 74l-45 -2q-135 0 -193 -73q-57 -72 -57 -243v-210zM434 1448h184l142 -258h-135z" />
<glyph unicode="&#xe1;" d="M115 391v244q0 211 91 308t243 97l86 -2q112 0 184 -42t106 -136v162h189v-96l-72 -8v-725q0 -57 15 -81t69 -24h33v-104h-62q-79 0 -119 34q-41 35 -49 142q-35 -92 -105 -134t-185 -42h-90q-152 0 -243 97t-91 310zM252 406q0 -172 57 -246t193 -74h45q133 0 191 75 q59 76 59 247v206q0 172 -60 246t-190 74l-45 -2q-135 0 -193 -73q-57 -72 -57 -243v-210zM422 1190l141 258h185l-191 -258h-135z" />
<glyph unicode="&#xe2;" d="M117 389v244q0 211 91 308t243 97l86 -2q112 0 184 -42t106 -136v162h189v-96l-72 -9v-725q0 -56 15 -80t69 -24h33v-104h-62q-79 0 -119 34q-41 35 -49 142q-35 -92 -105 -134t-185 -42h-90q-152 0 -243 97t-91 310zM254 403q0 -171 57 -245t193 -74h45q133 0 191 75 q59 76 59 247v206q0 172 -60 246t-190 74l-45 -2q-135 0 -193 -73q-57 -72 -57 -243v-211zM262 1169l252 275h156l252 -275h-144l-186 195l-186 -195h-144z" />
<glyph unicode="&#xe3;" d="M119 393v244q0 211 91 308t243 97l86 -2q112 0 184 -42t106 -136v162h189v-96l-72 -8v-725q0 -55 16 -81q15 -24 68 -24h33v-104h-62q-79 0 -119 34t-48 142q-34 -91 -106 -134q-70 -42 -185 -42h-90q-152 0 -243 97t-91 310zM256 410q0 -172 57 -247t193 -75h45 q133 0 191 75q59 76 59 247v206q0 172 -60 246t-190 74h-45q-135 0 -193 -73q-57 -72 -57 -242v-211zM279 1229q6 111 61 172q56 62 145 47q35 -5 67 -23q31 -18 62 -41q21 -16 56 -36q26 -14 49 -19q49 -6 73 28q23 33 29 89l90 2q-6 -116 -62 -175q-57 -61 -149 -44 q-37 5 -66 23q-40 25 -63 42q-27 20 -52 34q-24 14 -46 18q-52 8 -75 -26q-23 -33 -29 -91h-90z" />
<glyph unicode="&#xe4;" d="M117 391v244q0 211 91 308t243 97l86 -2q112 0 184 -42t106 -136v162h189v-96l-72 -8v-725q0 -57 15 -81t69 -24h33v-104h-62q-79 0 -119 34q-41 35 -49 142q-35 -92 -105 -134t-185 -42h-90q-152 0 -243 97t-91 310zM254 406q0 -172 57 -246t193 -74h45q133 0 191 75 q59 76 59 247v206q0 172 -60 246t-190 74l-45 -2q-135 0 -193 -73q-57 -72 -57 -243v-210zM362 1370q0 41 25 66q24 24 64 24q41 0 65 -24q25 -25 25 -66q0 -38 -25 -63t-65 -25q-39 0 -64 25t-25 63zM651 1370q0 41 25 66q24 24 63 24q42 0 66 -24t24 -66q0 -39 -24 -63 q-25 -25 -66 -25q-38 0 -63 25t-25 63z" />
<glyph unicode="&#xe5;" d="M115 391v244q0 211 91 308t243 97l86 -2q112 0 184 -42t106 -136v162h189v-96l-72 -8v-725q0 -57 15 -81t69 -24h33v-104h-62q-79 0 -119 34q-41 35 -49 142q-35 -92 -105 -134t-185 -42h-90q-152 0 -243 97t-91 310zM252 406q0 -172 57 -246t193 -74h45q133 0 191 75 q59 76 59 247v206q0 172 -60 246t-190 74l-45 -2q-135 0 -193 -73q-57 -72 -57 -243v-210zM358 1278q0 36 16 76q14 35 43 64q28 28 64 44q39 17 80 17q42 0 81 -17t66 -44q28 -28 44 -64t16 -76q0 -45 -16 -81q-16 -37 -44 -65q-29 -29 -66 -45q-36 -16 -81 -16 q-86 0 -144 59q-59 61 -59 148zM457 1278q0 -46 28 -77q29 -32 76 -32t77 32t30 77q0 41 -30 74q-29 32 -77 32t-76 -32t-28 -74z" />
<glyph unicode="&#xe6;" horiz-adv-x="1783" d="M117 391v244q0 211 91 308t243 97l92 2q112 0 184 -42t107 -134v160h116v-108q43 65 112 95q67 29 159 29h98q173 0 268 -96q94 -95 94 -307v-160h-686v-69q0 -171 58 -247q57 -75 192 -75h45q119 0 177 58t69 188h141q-15 -186 -105 -267q-92 -83 -257 -83h-98 q-92 0 -159 29q-68 30 -112 96v-109h-115v160q-35 -92 -105 -134t-185 -42h-90q-152 0 -243 97t-91 310zM260 412q0 -172 57 -247t193 -75h45q133 0 191 75q59 76 59 247v206q0 172 -60 246t-190 74h-45q-135 0 -193 -73q-57 -72 -57 -242v-211zM995 586h545v63 q-1 153 -62 221q-60 68 -188 68l-45 -2q-127 0 -188 -67t-62 -218v-65z" />
<glyph unicode="&#xe7;" horiz-adv-x="1040" d="M117 391v244q0 214 94 309q94 96 272 96h99q160 0 247 -77q89 -78 107 -252h-141l-7 67q-33 158 -188 158h-92q-135 0 -193 -73q-57 -72 -57 -242v-211q0 -172 57 -246t193 -74h92q80 0 126 40q45 39 62 126l5 61h145q-17 -148 -82 -227q-66 -79 -182 -100v-135 q0 -111 -42 -158t-143 -47h-88v106h56q57 0 77 29q19 28 19 90v109h-70q-177 0 -272 96q-94 95 -94 311z" />
<glyph unicode="&#xe8;" horiz-adv-x="1048" d="M115 391v244q0 214 94 309q94 96 272 96l103 2q174 0 268 -96q94 -95 94 -307v-160h-686v-69q0 -172 57 -247t193 -75h45q119 0 177 58t69 188h141q-15 -186 -105 -267q-92 -83 -257 -83h-99q-177 0 -272 96q-94 95 -94 311zM262 586h545v63q-1 152 -63 221 q-60 68 -187 68l-45 -2q-127 0 -188 -67t-62 -218v-65zM373 1448h184l141 -258h-135z" />
<glyph unicode="&#xe9;" horiz-adv-x="1048" d="M115 391v244q0 214 94 309q94 96 272 96l103 2q174 0 268 -96q94 -95 94 -307v-160h-686v-69q0 -172 57 -247t193 -75h45q119 0 177 58t69 188h141q-15 -186 -105 -267q-92 -83 -257 -83h-99q-177 0 -272 96q-94 95 -94 311zM262 586h545v63q-1 152 -63 221 q-60 68 -187 68l-45 -2q-127 0 -188 -67t-62 -218v-65zM360 1190l142 258h184l-190 -258h-136z" />
<glyph unicode="&#xea;" horiz-adv-x="1048" d="M115 389v244q0 214 94 309q94 96 272 96l103 2q174 0 268 -96q94 -95 94 -307v-160h-686v-69q0 -172 57 -247t193 -75h45q119 0 177 58t69 188h141q-15 -186 -105 -267q-92 -83 -257 -83h-99q-177 0 -272 96q-94 95 -94 311zM201 1169l252 275h155l252 -275h-143 l-187 195l-186 -195h-143zM262 584h545v63q-1 152 -63 221q-60 68 -187 68l-45 -2q-127 0 -188 -67t-62 -218v-65z" />
<glyph unicode="&#xeb;" horiz-adv-x="1048" d="M115 391v244q0 214 94 309q94 96 272 96l103 2q174 0 268 -96q94 -95 94 -307v-160h-686v-69q0 -172 57 -247t193 -75h45q119 0 177 58t69 188h141q-15 -186 -105 -267q-92 -83 -257 -83h-99q-177 0 -272 96q-94 95 -94 311zM262 586h545v63q-1 152 -63 221 q-60 68 -187 68l-45 -2q-127 0 -188 -67t-62 -218v-65zM301 1370q0 41 25 66q24 24 63 24q42 0 66 -24t24 -66q0 -39 -24 -63q-25 -25 -66 -25q-38 0 -63 25t-25 63zM590 1370q0 42 24 66t64 24q41 0 65 -24q25 -25 25 -66q0 -38 -25 -63t-65 -25q-39 0 -64 25 q-24 24 -24 63z" />
<glyph unicode="&#xec;" horiz-adv-x="628" d="M141 1448h185l141 -258h-135zM201 2v96l71 8v814l-71 8v96h215v-920l71 -8v-96z" />
<glyph unicode="&#xed;" horiz-adv-x="604" d="M145 1190l142 258h184l-190 -258h-136zM147 2v96l72 8v814l-72 8v96h215v-920l72 -8v-96z" />
<glyph unicode="&#xee;" horiz-adv-x="933" d="M143 1169l252 275h156l252 -275h-144l-186 195l-186 -195h-144zM342 0v96l72 8v814l-72 8v96h215v-920l72 -8v-96z" />
<glyph unicode="&#xef;" horiz-adv-x="739" d="M143 1370q0 41 25 66q24 24 61 24q42 0 66 -24t24 -66q0 -39 -24 -63q-25 -25 -66 -25q-36 0 -61 25t-25 63zM246 2v96l71 8v814l-71 8v96h215v-920l71 -8v-96zM430 1370q0 41 25 66q24 24 63 24q42 0 66 -24t24 -66q0 -39 -24 -63q-25 -25 -66 -25q-38 0 -63 25t-25 63z " />
<glyph unicode="&#xf0;" horiz-adv-x="1112" d="M115 391v244q0 212 92 310q91 97 244 97h90q191 0 260 -141v137q-5 159 -68 225t-174 66h-319v105h346q60 0 119 -16q54 -15 100 -50l98 96l76 -75l-98 -97q30 -47 48 -115q17 -65 17 -176v-626q0 -205 -96 -297q-97 -92 -270 -92h-131q-79 0 -138 23q-62 24 -105 73 q-44 50 -68 126q-23 73 -23 183zM260 408q0 -174 58 -245q59 -73 192 -73h45q136 0 193 75t57 245v208q0 172 -57 247t-193 75l-45 -4q-133 0 -192 -74q-58 -73 -58 -246v-208z" />
<glyph unicode="&#xf1;" horiz-adv-x="1228" d="M133 4v96l72 9v813l-72 8v96h189v-170q34 99 109 142q76 44 179 44l92 2q78 0 135 -23q61 -24 105 -73q47 -51 70 -126q24 -76 24 -183v-530l72 -9v-96h-215v617q0 172 -60 244q-61 73 -190 73h-45q-120 0 -185 -73t-65 -244v-512l72 -9v-96h-287zM295 1229q6 111 61 172 q56 62 146 47q33 -4 66 -23q35 -20 63 -41q23 -18 55 -36q26 -14 49 -19q49 -6 73 28q24 35 30 89l90 2q-6 -115 -63 -175t-148 -44q-38 5 -67 23q-34 21 -62 42q-27 20 -52 34q-24 13 -47 18q-51 7 -74 -26q-24 -35 -30 -91h-90z" />
<glyph unicode="&#xf2;" horiz-adv-x="1060" d="M115 391v244q0 214 94 309q94 96 272 96h99q176 0 271 -96q95 -97 95 -309v-244q0 -214 -95 -311q-95 -96 -271 -96h-99q-177 0 -272 96q-94 95 -94 311zM258 408q0 -172 57 -246t193 -74h45q133 0 191 75q59 76 59 247v206q0 172 -60 246t-190 74l-45 -2 q-135 0 -193 -73q-57 -72 -57 -243v-210zM375 1448h184l141 -258h-135z" />
<glyph unicode="&#xf3;" horiz-adv-x="1060" d="M113 391v244q0 214 94 309q94 96 272 96h99q176 0 271 -96q95 -97 95 -309v-244q0 -214 -95 -311q-95 -96 -271 -96h-99q-177 0 -272 96q-94 95 -94 311zM256 408q0 -172 57 -246t193 -74h45q133 0 191 75q59 76 59 247v206q0 172 -60 246t-190 74l-45 -2 q-135 0 -193 -73q-57 -72 -57 -243v-210zM360 1190l142 258h184l-190 -258h-136z" />
<glyph unicode="&#xf4;" horiz-adv-x="1060" d="M115 389v244q0 214 94 309q94 96 272 96h99q176 0 271 -96q95 -97 95 -309v-244q0 -214 -95 -311q-95 -96 -271 -96h-99q-177 0 -272 96q-94 95 -94 311zM201 1169l252 275h155l252 -275h-143l-187 195l-186 -195h-143zM258 406q0 -172 57 -246t193 -74h45q133 0 191 75 q59 76 59 247v206q0 172 -60 246t-190 74l-45 -2q-135 0 -193 -73q-57 -72 -57 -243v-210z" />
<glyph unicode="&#xf5;" horiz-adv-x="1060" d="M117 391v244q0 214 94 309q94 96 272 96h99q176 0 271 -96q95 -97 95 -309v-244q0 -214 -95 -311q-95 -96 -271 -96h-99q-177 0 -272 96q-94 95 -94 311zM223 1229q6 110 62 172t145 47q35 -5 67 -23q31 -18 62 -41q23 -18 55 -36q25 -14 50 -19q48 -6 72 28q24 35 30 89 h88q-6 -114 -62 -173q-57 -61 -149 -44q-37 5 -66 23q-40 25 -63 42q-27 20 -52 34q-24 14 -46 18q-52 8 -75 -26q-24 -35 -30 -91h-88zM260 408q0 -172 57 -246t193 -74h45q133 0 191 75q59 76 59 247v206q0 172 -60 246t-190 74l-45 -2q-135 0 -193 -73q-57 -72 -57 -242 v-211z" />
<glyph unicode="&#xf6;" horiz-adv-x="1060" d="M115 391v244q0 214 94 309q94 96 272 96h99q176 0 271 -96q95 -97 95 -309v-244q0 -214 -95 -311q-95 -96 -271 -96h-99q-177 0 -272 96q-94 95 -94 311zM258 408q0 -172 57 -246t193 -74h45q133 0 191 75q59 76 59 247v206q0 172 -60 246t-190 74l-45 -2 q-135 0 -193 -73q-57 -72 -57 -243v-210zM301 1370q0 41 25 66q24 24 63 24q42 0 66 -24t24 -66q0 -39 -24 -63q-25 -25 -66 -25q-38 0 -63 25t-25 63zM590 1370q0 42 24 66t64 24q41 0 65 -24q25 -25 25 -66q0 -38 -25 -63t-65 -25q-39 0 -64 25q-24 24 -24 63z" />
<glyph unicode="&#xf7;" horiz-adv-x="1103" d="M104 506v119h900v-119h-900zM465 918q0 41 24 65q25 25 64 25q40 0 65 -25t25 -65q0 -39 -25 -64t-65 -25q-39 0 -64 25q-24 24 -24 64zM467 207q0 40 25 65t63 25q41 0 66 -25q24 -24 24 -65q0 -40 -24 -64t-66 -24q-39 0 -63 24q-25 25 -25 64z" />
<glyph unicode="&#xf8;" horiz-adv-x="1060" d="M115 391v244q0 214 94 309q94 96 272 96h99q55 0 98 -8l72 162h147l-92 -211q68 -46 106 -132q37 -84 37 -216v-244q0 -214 -95 -311q-95 -96 -271 -96h-99q-67 0 -123 12l-71 -158h-148l97 217q-123 99 -123 336zM258 410q0 -146 41 -220l332 738q-35 6 -76 6h-45 q-135 0 -193 -73q-57 -72 -57 -243zM408 100q44 -12 100 -12h45q133 0 191 75q59 76 59 247l2 202q0 168 -57 244z" />
<glyph unicode="&#xf9;" horiz-adv-x="1204" d="M119 930v96h215v-610q0 -91 13 -149q13 -60 41 -98q26 -37 72 -54q45 -17 105 -17h21q55 0 106 18q53 19 90 56q40 40 63 98t23 146v506l-71 8v96h215v-920l67 -6v-96h-188v193q-40 -104 -131 -154q-89 -49 -219 -49h-31q-72 0 -131 22t-101 72q-43 50 -65 126 q-23 78 -23 185v523zM446 1448h185l141 -258h-135z" />
<glyph unicode="&#xfa;" horiz-adv-x="1204" d="M117 930v96h215v-610q0 -91 13 -149q13 -60 41 -98q26 -37 72 -54q45 -17 105 -17h21q55 0 106 18q53 19 90 56q40 40 63 98t23 146v506l-71 8v96h215v-920l67 -6v-96h-188v193q-40 -104 -131 -154q-89 -49 -219 -49h-31q-72 0 -131 22q-60 22 -102 72q-41 49 -64 126 q-23 78 -23 185v523zM432 1190l141 258h185l-191 -258h-135z" />
<glyph unicode="&#xfb;" horiz-adv-x="1204" d="M119 928v96h215v-610q0 -91 13 -149q13 -60 41 -98q26 -37 72 -54q45 -17 105 -17h21q55 0 106 18q53 19 90 56q40 40 63 98t23 146v506l-71 8v96h215v-920l67 -6v-96h-188v193q-40 -104 -131 -154q-89 -49 -219 -49h-31q-72 0 -131 22t-101 72q-43 50 -65 126 q-23 78 -23 185v523zM272 1169l252 275h156l252 -275h-144l-186 195l-186 -195h-144z" />
<glyph unicode="&#xfc;" horiz-adv-x="1204" d="M119 930v96h215v-610q0 -91 13 -149q13 -60 41 -98q26 -37 72 -54q45 -17 105 -17h21q55 0 106 18q53 19 90 56q40 40 63 98t23 146v506l-71 8v96h215v-920l67 -6v-96h-188v193q-40 -104 -131 -154q-89 -49 -219 -49h-31q-72 0 -131 22t-101 72q-43 50 -65 126 q-23 78 -23 185v523zM373 1370q0 42 24 66t64 24q41 0 65 -24q25 -25 25 -66q0 -38 -25 -63t-65 -25q-39 0 -64 25q-24 24 -24 63zM662 1370q0 42 24 66t64 24q41 0 65 -24q25 -25 25 -66q0 -38 -25 -63t-65 -25q-39 0 -64 25q-24 24 -24 63z" />
<glyph unicode="&#xfd;" horiz-adv-x="1095" d="M53 928v96h287v-96l-72 -8l289 -775l293 775l-72 8v96h262v-96l-71 -8l-482 -1262h-258v109h181l90 235l-29 12l-346 906zM365 1190l141 258h184l-190 -258h-135z" />
<glyph unicode="&#xfe;" horiz-adv-x="1243" d="M143 1331v105h52q131 0 189 -58q56 -56 56 -188v-301q34 76 102 115q63 36 160 36l93 2q151 0 242 -97t91 -310v-244q0 -214 -91 -309q-91 -96 -242 -96h-90q-91 0 -161 38t-104 115v-411l72 -9v-96h-287v96l72 9v1460q0 74 -18 108q-18 35 -91 35h-45zM440 412 q0 -172 59 -246t191 -74h45q135 0 193 73q57 72 57 243v208q0 172 -57 247t-193 75h-45q-132 0 -191 -74t-59 -246v-206z" />
<glyph unicode="&#xff;" horiz-adv-x="1095" d="M55 928v96h287v-96l-72 -8l289 -775l293 775l-72 8v96h262v-96l-71 -8l-482 -1262h-258v109h181l90 235l-29 12l-346 906zM305 1370q0 41 25 66q24 24 63 24q42 0 66 -24t24 -66q0 -39 -24 -63q-25 -25 -66 -25q-38 0 -63 25t-25 63zM594 1370q0 42 24 66t64 24 q42 0 66 -24t24 -66q0 -39 -24 -63q-25 -25 -66 -25q-39 0 -64 25q-24 24 -24 63z" />
<glyph unicode="&#x13f;" horiz-adv-x="1058" d="M156 -2v111l69 10v1196l-69 10v111h303v-111l-70 -10v-1196h473l10 131h121v-250zM793 942q0 42 24 66t64 24q41 0 65 -24q25 -25 25 -66q0 -38 -25 -63t-65 -25q-39 0 -64 25q-24 24 -24 63z" />
<glyph unicode="&#x140;" horiz-adv-x="778" d="M141 2v96l72 8v1223l-72 8v97h215v-1330l72 -8v-96zM477 858q0 41 25 66q24 24 63 24q42 0 66 -24t24 -66q0 -39 -24 -63q-25 -25 -66 -25q-38 0 -63 25t-25 63z" />
<glyph unicode="&#x152;" horiz-adv-x="1810" d="M131 414v604q0 226 110 328q109 102 306 102h117q100 0 179 -33t126 -102v121h764v-191h-125l-9 72h-466v-512h481v-119h-481v-567h466l9 71h125v-190h-764v119q-47 -70 -125 -103q-76 -32 -178 -32h-119q-195 0 -305 103q-111 103 -111 329zM295 420q0 -172 66 -246 t214 -74h58q147 0 215 75q67 74 67 247v588q0 172 -67 245q-68 74 -215 74l-58 -2q-147 0 -214 -73q-66 -72 -66 -242v-592z" />
<glyph unicode="&#x153;" horiz-adv-x="1736" d="M117 391v244q0 214 94 309q94 96 272 96h99q101 0 177 -41q74 -40 115 -127q41 86 116 127q76 41 179 41l101 4q174 0 268 -96q94 -95 94 -307v-141h-686v-88q0 -171 58 -247q57 -75 192 -75h45q123 0 180 62q58 62 68 202h141q-10 -194 -101 -282t-261 -88h-99 q-103 0 -179 41q-75 41 -116 127q-41 -87 -115 -127q-76 -41 -177 -41h-99q-177 0 -272 96q-94 95 -94 311zM260 414q0 -172 57 -247t193 -75h45q133 0 191 75q59 76 59 247v207q0 171 -60 245t-190 74h-45q-135 0 -193 -73q-57 -72 -57 -242v-211zM950 608h543v49 q-4 150 -65 217q-60 66 -185 66h-43q-126 0 -186 -66q-60 -65 -64 -212v-54z" />
<glyph unicode="&#x178;" horiz-adv-x="1275" d="M68 1325v111h323v-111l-69 -8l329 -596l332 596l-70 8v111h297v-111l-67 -10l-416 -717v-479l70 -8v-111h-318v111l70 8v479l-414 719zM422 1778q0 41 24 65q25 25 64 25q40 0 65 -25t25 -65q0 -39 -25 -64q-24 -24 -65 -24q-40 0 -64 24t-24 64zM711 1778q0 41 24 65 q25 25 64 25q40 0 65 -25t25 -65q0 -39 -25 -64q-24 -24 -65 -24q-40 0 -64 24t-24 64z" />
<glyph unicode="&#x2c6;" horiz-adv-x="864" d="M102 1171l252 275h156l252 -275h-144l-186 195l-186 -195h-144z" />
<glyph unicode="&#x2dc;" horiz-adv-x="831" d="M98 1217q6 110 62 172t145 47q35 -5 67 -23q31 -18 62 -41q28 -22 55 -37q23 -13 50 -18q48 -6 72 28q24 35 30 89l90 2q-6 -116 -62 -175q-57 -61 -149 -44q-37 5 -66 23q-40 25 -63 42q-27 20 -52 34q-22 12 -46 17q-52 8 -75 -25q-24 -35 -30 -91h-90z" />
<glyph unicode="&#x2000;" horiz-adv-x="942" />
<glyph unicode="&#x2001;" horiz-adv-x="1884" />
<glyph unicode="&#x2002;" horiz-adv-x="942" />
<glyph unicode="&#x2003;" horiz-adv-x="1884" />
<glyph unicode="&#x2004;" horiz-adv-x="628" />
<glyph unicode="&#x2005;" horiz-adv-x="471" />
<glyph unicode="&#x2006;" horiz-adv-x="314" />
<glyph unicode="&#x2007;" horiz-adv-x="314" />
<glyph unicode="&#x2008;" horiz-adv-x="235" />
<glyph unicode="&#x2009;" horiz-adv-x="376" />
<glyph unicode="&#x200a;" horiz-adv-x="104" />
<glyph unicode="&#x2010;" horiz-adv-x="792" d="M102 522v119h588v-119h-588z" />
<glyph unicode="&#x2011;" horiz-adv-x="792" d="M102 522v119h588v-119h-588z" />
<glyph unicode="&#x2012;" horiz-adv-x="792" d="M102 522v119h588v-119h-588z" />
<glyph unicode="&#x2013;" horiz-adv-x="1026" d="M102 494v118h822v-118h-822z" />
<glyph unicode="&#x2014;" horiz-adv-x="1339" d="M102 494v118h1135v-118h-1135z" />
<glyph unicode="&#x2018;" horiz-adv-x="393" d="M102 1184q0 78 39 139q40 63 150 115v-31q-12 -6 -26 -23q-10 -13 -26 -37q-13 -21 -23 -48t-11 -50q38 0 62 -24t24 -62q0 -40 -25 -65t-63 -25q-49 0 -75 29t-26 82z" />
<glyph unicode="&#x2019;" horiz-adv-x="393" d="M100 1116q12 6 26 23q12 15 27 38q12 19 22 47q10 27 11 50q-38 0 -61 24q-23 25 -23 62q0 40 25 65t63 25q49 0 75 -29t26 -82q0 -77 -39 -139q-40 -63 -150 -115z" />
<glyph unicode="&#x201a;" horiz-adv-x="393" d="M100 -172q14 7 26 22t27 38q12 19 22 47q9 27 11 51q-38 0 -61 24q-23 25 -23 62q0 40 25 65t63 25q49 0 75 -29t26 -82q0 -77 -39 -139q-40 -63 -150 -115z" />
<glyph unicode="&#x201c;" horiz-adv-x="645" d="M102 1184q0 78 39 139q40 63 150 115v-31q-12 -6 -26 -23q-10 -13 -26 -37q-13 -21 -23 -48t-11 -50q38 0 62 -24t24 -62q0 -40 -25 -65t-63 -25q-49 0 -75 29t-26 82zM354 1184q0 78 39 139q40 63 150 115v-31q-12 -6 -26 -23q-15 -18 -27 -37q-11 -17 -22 -48 q-10 -27 -11 -50q38 0 62 -24t24 -62q0 -40 -25 -65t-63 -25q-49 0 -75 29t-26 82z" />
<glyph unicode="&#x201d;" horiz-adv-x="645" d="M100 1116q12 6 26 23q12 15 27 38q12 19 22 47q10 27 11 50q-38 0 -61 24q-23 25 -23 62q0 40 25 65t63 25q49 0 75 -29t26 -82q0 -77 -39 -139q-40 -63 -150 -115zM350 1116q12 6 26 23q7 9 26 38q14 22 23 47q10 27 11 50q-38 0 -61 24q-23 25 -23 62q0 40 25 65t63 25 q49 0 75 -29t26 -82q0 -77 -39 -139q-40 -63 -150 -115z" />
<glyph unicode="&#x201e;" horiz-adv-x="634" d="M100 -172q14 7 26 22t27 38q12 19 22 47q9 27 11 51q-38 0 -61 24q-23 25 -23 62q0 40 25 65t63 25q49 0 75 -29t26 -82q0 -77 -39 -139q-40 -63 -150 -115zM338 -172q14 7 26 22q7 9 26 38q14 22 23 47q9 27 11 51q-40 0 -62 24q-22 23 -22 62q0 40 25 65t63 25 q49 0 75 -29q25 -28 25 -82q0 -77 -39 -139q-40 -64 -149 -115z" />
<glyph unicode="&#x2022;" horiz-adv-x="690" d="M102 631q0 49 19 95q18 44 51 77t78 51t96 18h-2q51 0 96 -18t78 -51t51 -77q19 -46 19 -95q0 -51 -19 -97q-18 -44 -51 -78q-33 -35 -77 -53q-43 -18 -95 -18q-51 0 -96 18q-44 18 -78 53q-33 34 -51 78q-19 46 -19 97z" />
<glyph unicode="&#x2026;" horiz-adv-x="958" d="M102 70q0 40 25 65t63 25q41 0 66 -25t25 -65q0 -39 -25 -64q-24 -24 -66 -24q-39 0 -63 24q-25 25 -25 64zM391 70q0 40 25 65t63 25q41 0 66 -25q24 -24 24 -65q0 -40 -24 -64t-66 -24q-39 0 -63 24q-25 25 -25 64zM680 70q0 40 25 65t63 25q41 0 66 -25q24 -24 24 -65 q0 -40 -24 -64t-66 -24q-39 0 -63 24q-25 25 -25 64z" />
<glyph unicode="&#x202f;" horiz-adv-x="376" />
<glyph unicode="&#x2039;" horiz-adv-x="536" d="M102 524v84l332 269v-166l-166 -146l166 -145v-166z" />
<glyph unicode="&#x203a;" horiz-adv-x="536" d="M102 254v166l166 145l-166 146v166l332 -269v-84z" />
<glyph unicode="&#x205f;" horiz-adv-x="471" />
<glyph unicode="&#x20ac;" horiz-adv-x="1236" d="M104 555v121h86v104h-86v121h86v137q2 215 113 313q110 97 301 97l117 2q186 0 293 -92q105 -91 116 -291l3 -23h-162l-2 72q-6 115 -66 166t-166 51h-104q-147 0 -212 -68q-67 -70 -67 -231v-131h510l-69 -121h-441v-104h346l-69 -121h-275v-137q0 -172 67 -245t214 -73 h104q107 0 168 53q60 52 64 169l2 84h162v-19q-4 -211 -112 -308q-107 -97 -300 -97h-119q-195 0 -305 101q-111 102 -111 327v143h-86z" />
<glyph unicode="&#x2122;" horiz-adv-x="1792" d="M102 1255v179h603v-179h-91l-10 72h-133v-610l59 -6v-99h-260v99l60 6v610h-127l-10 -72h-91zM748 1333v101h258l219 -609l200 609h265v-101l-60 -6v-608l60 -6v-101h-260v101l59 6v584l-234 -691h-92l-243 691v-584l59 -6v-101h-229v101l57 6v608z" />
<glyph unicode="&#x25fc;" horiz-adv-x="1024" d="M0 0v1024h1024v-1024h-1024z" />
</font>
</defs>
</svg>
