<?xml version="1.0" standalone="no"?>
<!DOCTYPE svg PUBLIC "-//W3C//DTD SVG 1.1//EN" "http://www.w3.org/Graphics/SVG/1.1/DTD/svg11.dtd" >
<svg xmlns="http://www.w3.org/2000/svg" xmlns:xlink="http://www.w3.org/1999/xlink" version="1.1">
<metadata></metadata>
<defs>
<font id="hapnaslabserifw00-regularRg" horiz-adv-x="1220" >
<font-face units-per-em="2048" ascent="1638" descent="-410" />
<missing-glyph horiz-adv-x="819" />
<glyph horiz-adv-x="0" />
<glyph unicode="&#xd;" horiz-adv-x="681" />
<glyph unicode=" "  horiz-adv-x="819" />
<glyph unicode="&#x09;" horiz-adv-x="819" />
<glyph unicode="&#xa0;" horiz-adv-x="819" />
<glyph unicode="!" horiz-adv-x="329" d="M100 43q0 28 18 46q17 17 44 17q29 0 46 -17t17 -46q0 -27 -17 -44t-46 -17q-27 0 -44 17q-18 18 -18 44zM111 317v1119h92v-1119h-92z" />
<glyph unicode="&#x22;" horiz-adv-x="530" d="M104 1192l2 18q22 11 39 44q19 36 23 69q-30 -2 -45 15q-17 19 -17 42q0 28 18 46t44 18q68 0 68 -74q0 -55 -28 -100q-27 -43 -104 -78zM297 1194l2 18q22 11 39 44t22 69q-30 -2 -45 15q-16 17 -16 42q0 29 17 46q18 18 44 18q68 0 68 -74q0 -55 -28 -100 q-27 -44 -103 -78z" />
<glyph unicode="#" horiz-adv-x="1359" d="M100 463l19 80h274l66 311h-273l19 80h274l109 500h98l-108 -500h296l111 500h98l-110 -500h284l-18 -80h-285l-65 -311h282l-18 -80h-285l-100 -463h-98l100 463h-297l-100 -463h-99l101 463h-275zM492 543h296l66 311h-297z" />
<glyph unicode="$" horiz-adv-x="1118" d="M100 387h105v-51q11 -142 86 -206q76 -64 213 -64h84q158 0 239 74q82 75 82 229q0 69 -18 126q-18 56 -62 97q-41 40 -111 63q-74 24 -177 41q-94 18 -158 35q-77 21 -137 72q-55 46 -85 111q-32 70 -32 173q0 168 98 260q99 93 265 99h18v90h90v-90h18q167 -5 265 -100 q98 -96 100 -295h-100l-2 59q-12 137 -89 199q-76 61 -212 61h-29q-318 0 -318 -291q0 -142 91 -215q45 -37 110 -55q74 -20 148 -35q120 -22 195 -47q78 -26 130 -74q58 -53 82 -126q25 -75 25 -169q0 -174 -100 -269t-271 -101h-43v-84h-90v86h-43q-167 5 -265 100 q-101 97 -102 297z" />
<glyph unicode="%" horiz-adv-x="1382" d="M102 995v242q0 59 20 101q19 40 51 64q31 24 71 33q39 9 78 9q44 0 81 -10q41 -11 70 -34q32 -26 49 -64q19 -43 19 -99v-244q0 -57 -19 -98q-17 -36 -49 -62q-29 -23 -70 -34t-81 -11q-35 0 -78 10q-42 10 -71 32q-32 24 -51 64q-20 42 -20 101zM178 985q0 -79 42 -109 t102 -30q62 0 103 32q40 31 40 107v260q0 79 -40 110t-103 31q-60 0 -102 -30t-42 -111v-260zM197 -8l899 1446h90l-899 -1446h-90zM842 193v239q0 63 19 102q18 38 51 63q31 24 71 33q39 9 78 9q45 0 82 -10q40 -11 69 -34q33 -27 50 -64q18 -41 18 -97v-244q0 -59 -18 -98 q-16 -35 -50 -62q-29 -23 -69 -34q-37 -10 -82 -10q-39 0 -78 9q-40 9 -71 33q-33 25 -51 63q-19 39 -19 102zM918 182q0 -80 41 -109q43 -31 102 -32q63 -2 103 31t40 108v262q0 79 -40 110q-41 32 -103 32q-59 0 -102 -31q-41 -29 -41 -111v-260z" />
<glyph unicode="&#x26;" horiz-adv-x="1193" d="M102 332v114q0 107 63 185q62 77 177 104q-104 28 -156 109q-51 79 -51 182v90q0 73 29 134q30 62 78 102q50 41 116 63q69 23 146 23h237v-78l-211 2q-134 0 -214 -71q-78 -69 -78 -189v-60q0 -124 68 -196q69 -74 229 -74h387v379h100v-379h70v-78h-70v-344 q0 -175 -101 -266q-103 -92 -288 -92h-131q-91 0 -164 24q-71 23 -126 69q-53 44 -81 106q-29 64 -29 141zM205 352q0 -123 82 -202q83 -80 239 -80h90q86 0 140 20q60 22 92 54q34 34 52 79q19 46 20 94v375l-390 2q-161 0 -242 -65q-83 -66 -83 -195v-82z" />
<glyph unicode="'" horiz-adv-x="335" d="M102 1194l2 18q22 11 39 44q19 36 23 69q-30 -2 -45 15q-17 19 -17 42q0 28 18 46t44 18q67 0 67 -74q0 -56 -27 -100q-27 -43 -104 -78z" />
<glyph unicode="(" horiz-adv-x="514" d="M100 -115v1471q0 80 53 130t126 50h133v-78l-131 2q-36 0 -61 -26t-25 -72v-1483q0 -43 25 -69q26 -27 61 -27h131v-78h-133q-73 0 -126 50t-53 130z" />
<glyph unicode=")" horiz-adv-x="514" d="M102 -219h131q36 0 61 26t25 70v1483q0 46 -25 72t-61 26h-131v78l134 -2q72 0 125 -50t53 -130v-1471q0 -80 -53 -130t-125 -50h-134v78z" />
<glyph unicode="*" horiz-adv-x="870" d="M104 1190l31 92l258 -88l-4 272h96l-4 -272l256 88l31 -92l-260 -80l164 -219l-78 -55l-158 221l-157 -221l-78 55l164 219z" />
<glyph unicode="+" horiz-adv-x="1067" d="M102 598v78h385v387h93v-387h385v-78h-385v-387h-93v387h-385z" />
<glyph unicode="," horiz-adv-x="335" d="M102 -145l2 20q21 11 39 43q19 34 23 68q-30 -2 -45 15q-17 19 -17 42q0 28 18 46q17 17 44 17q67 0 67 -73q0 -58 -27 -101q-26 -42 -104 -77z" />
<glyph unicode="-" horiz-adv-x="751" d="M102 528v78h547v-78h-547z" />
<glyph unicode="." horiz-adv-x="329" d="M102 45q0 28 18 46t44 18q28 0 46 -18q17 -17 17 -46q0 -27 -17 -44t-46 -17q-27 0 -44 17q-18 18 -18 44z" />
<glyph unicode="/" horiz-adv-x="946" d="M102 0l643 1434h99l-643 -1434h-99z" />
<glyph unicode="0" d="M147 403v551q0 218 108 318q107 100 292 100h127q184 0 291 -100q108 -100 108 -318v-551q0 -107 -29 -188q-29 -82 -80 -131q-54 -53 -126 -76q-74 -24 -164 -24h-127q-184 0 -291 100q-109 101 -109 319zM250 414q0 -186 81 -269q81 -82 247 -82h65q164 0 245 82 q81 83 81 269v530q0 186 -81 268t-245 82h-65q-166 0 -247 -81t-81 -265v-534z" />
<glyph unicode="1" horiz-adv-x="583" d="M168 -2v70l72 8v1198h-72v78h174v-1274l72 -8v-70z" />
<glyph unicode="2" horiz-adv-x="1097" d="M90 0v78q0 100 36 177q36 76 96 136q59 59 140 105q75 43 166 84q87 39 143 71q68 39 115 80q50 43 78 96q29 53 29 121v43q0 154 -81 229q-80 74 -237 74h-77q-148 0 -226 -72q-77 -72 -79 -235v-63h-103v53q1 202 108 299q105 96 283 96l125 -2q176 0 283 -95 q106 -94 106 -276v-55q0 -90 -36 -159q-34 -66 -93 -120q-56 -52 -131 -93q-68 -37 -149 -74q-78 -38 -150 -75t-126 -87q-55 -51 -86 -112q-31 -62 -31 -146h702l12 76h90v-154h-907z" />
<glyph unicode="3" horiz-adv-x="1120" d="M102 342v51h105v-63q0 -130 78 -197q77 -67 225 -67h90q158 0 240 79t82 203v49q0 129 -83 195q-81 65 -243 65h-147v78h143q159 0 228 74q69 73 69 197v26q0 120 -79 190t-214 70h-84q-148 0 -225 -65q-79 -66 -80 -183v-63h-103v53q1 157 108 247q106 89 282 89h127 q79 0 145 -22q65 -22 117 -64q49 -40 78 -101q28 -59 28 -134v-60q0 -104 -51 -184q-52 -81 -156 -111q115 -27 177 -104q63 -78 63 -185v-79q0 -77 -29 -141q-28 -62 -81 -106q-55 -46 -126 -69q-74 -24 -163 -24h-131q-176 0 -282 92q-107 93 -108 264z" />
<glyph unicode="4" horiz-adv-x="1097" d="M74 389v78l682 885h102v-885h70v-78h-70v-317l72 -9v-63h-246v63l72 9v317h-682zM174 467h582v758z" />
<glyph unicode="5" horiz-adv-x="1085" d="M80 352v51h104v-63q0 -135 78 -204q77 -68 225 -68h91q158 0 239 80q82 81 82 210v131q0 148 -83 217q-81 68 -243 68h-440v578h795v-162h-90l-13 84h-589v-422h389q171 0 274 -86q102 -86 102 -254v-174q0 -81 -28 -144q-29 -65 -81 -110q-54 -47 -126 -70 q-74 -24 -164 -24h-131q-174 0 -281 92q-105 91 -110 270z" />
<glyph unicode="6" d="M147 403v551q0 218 108 318q107 100 292 100h127q175 0 285 -95q111 -95 112 -300v-19h-104v58q-7 146 -85 213q-75 65 -216 65h-86q-166 0 -247 -81t-81 -265v-256q44 87 127 134q82 46 184 46h113q183 0 291 -99t108 -310v-66q0 -107 -28 -184q-29 -79 -81 -128 q-55 -52 -126 -75q-74 -24 -164 -24h-129q-115 0 -205 41q-87 40 -137 129q-24 41 -35 82q-23 75 -23 165zM256 403q0 -180 81 -261t247 -81h65q164 0 245 81t81 261v46q0 182 -81 263t-245 81h-65q-166 0 -247 -87t-81 -253v-50z" />
<glyph unicode="7" horiz-adv-x="993" d="M74 1190v162h846v-80q-76 -90 -138 -165q-64 -78 -108 -142q-49 -71 -83 -132q-38 -68 -61 -133q-26 -68 -40 -134q-15 -71 -24 -155q-9 -85 -12 -186t-3 -225h-103q0 125 3 227q3 90 13 190q10 93 25 160q16 69 41 140q25 72 58 131q38 69 80 129q49 70 106 138 q117 140 133 159h-633l-10 -84h-90z" />
<glyph unicode="8" horiz-adv-x="1101" d="M88 352v31q0 134 65 219t175 113q-90 29 -142 102q-53 74 -53 191v30q0 82 28 147q25 59 78 104q51 43 119 64q69 21 154 21h78q82 0 151 -21t121 -64q53 -44 79 -104q28 -65 28 -147v-30q0 -116 -55 -191q-54 -74 -142 -102q109 -28 176 -113q66 -84 66 -219v-31 q0 -179 -109 -273q-108 -93 -291 -93h-127q-183 0 -291 93t-108 273zM193 358q0 -145 80 -221t247 -76h66q164 0 244 76q81 76 81 221v11q0 299 -325 299h-66q-166 0 -247 -75q-80 -74 -80 -220v-15zM238 1016q0 -137 78 -202q79 -66 229 -66h16q147 0 226 66t79 202v12 q0 139 -79 205q-78 65 -226 65h-16q-151 0 -229 -65t-78 -201v-16z" />
<glyph unicode="9" d="M145 893v65q0 211 109 312q107 100 291 100h129q115 0 205 -41q87 -40 137 -129q24 -41 35 -82q22 -72 22 -166v-551q0 -217 -107 -317t-292 -100h-127q-176 0 -286 95q-109 95 -111 300v18h104v-57q7 -146 85 -213q77 -66 216 -66h86q166 0 247 81t81 266v256 q-45 -89 -127 -135t-185 -46h-112q-182 0 -291 100t-109 310zM246 907q0 -182 81 -263t244 -81h66q166 0 247 87t81 253v49q0 180 -81 261t-247 81h-66q-163 0 -244 -81t-81 -261v-45z" />
<glyph unicode=":" horiz-adv-x="329" d="M102 45q0 28 18 46t44 18q28 0 46 -18q17 -17 17 -46q0 -27 -17 -44t-46 -17q-27 0 -44 17q-18 18 -18 44zM102 977q0 28 18 46q17 17 44 17q29 0 46 -17t17 -46q0 -27 -17 -44q-18 -18 -46 -18q-26 0 -44 18t-18 44z" />
<glyph unicode=";" horiz-adv-x="335" d="M102 -145l2 18q22 11 39 44q19 36 23 69q-30 -2 -45 15q-17 19 -17 42q0 28 18 46q17 17 44 17q67 0 67 -73q0 -58 -27 -101q-26 -42 -104 -77zM102 977q0 28 18 46q17 17 44 17q29 0 46 -17t17 -46q0 -27 -17 -44q-18 -18 -46 -18q-26 0 -44 18t-18 44z" />
<glyph unicode="&#x3c;" horiz-adv-x="835" d="M102 659v70l631 412v-101l-518 -348l518 -346v-98z" />
<glyph unicode="=" horiz-adv-x="1079" d="M102 512v78h875v-78h-875zM102 831v78h875v-78h-875z" />
<glyph unicode="&#x3e;" horiz-adv-x="835" d="M102 248v98l519 346l-519 348v99l631 -412v-65z" />
<glyph unicode="?" horiz-adv-x="1110" d="M102 971v57q0 207 107 306q108 100 285 100l124 2q175 0 283 -96q107 -95 107 -275v-55q0 -91 -23 -151q-22 -58 -60 -97t-86 -65q-54 -29 -98 -54q-39 -24 -66 -43q-35 -25 -57 -54t-38 -75q-15 -44 -15 -102v-52h-92v48q0 48 8 99q7 46 32 91q24 43 64 82q41 40 105 76 q5 3 36 20.5t47 25.5q39 20 72 53q32 32 50 80t18 122v41q0 153 -81 228t-236 75h-78q-146 0 -225 -73q-79 -72 -80 -234v-80h-103zM457 47q0 29 17 46q18 18 44 18q28 0 46 -18t18 -46q0 -26 -18 -44q-17 -17 -46 -17q-27 0 -44 17t-17 44z" />
<glyph unicode="@" horiz-adv-x="1654" d="M100 410v202q0 147 26 277q26 128 97 219q72 92 202 144q132 53 339 53h96q243 0 387 -51q139 -49 205 -147q65 -96 80 -241q14 -134 14 -329v-351q0 -99 -46 -148q-47 -50 -156 -50h-48q-45 0 -73 7q-32 8 -52 28q-19 19 -30 56q-12 40 -13 91q-37 -98 -109 -143 t-181 -45h-103q-78 0 -137 23q-61 24 -105 74t-68 127q-24 76 -24 183v244q0 210 92 308q91 97 242 97h103q108 0 182 -42q73 -42 108 -134v162h150v-63l-72 -9v-788q0 -56 26 -80q27 -25 81 -25h33q63 0 87 24q23 23 23 93v367q0 167 -9 298q-9 129 -65 217 q-56 87 -176 132q-122 45 -342 45h-106q-189 0 -303 -47q-111 -46 -171 -130q-58 -81 -76 -196q-18 -112 -18 -248v-202q0 -170 29 -292q29 -121 100 -195t196 -107t316 -33h347v-72h-347q-208 0 -349 36q-138 35 -225 119q-85 82 -121 215q-36 132 -36 327zM494 405 q0 -187 68 -268q69 -82 216 -82h49q146 0 215 82q70 84 70 268v213q0 185 -70 269q-69 82 -215 82h-49q-147 0 -216 -81q-68 -80 -68 -265v-218z" />
<glyph unicode="A" horiz-adv-x="1304" d="M78 0v70l69 8l455 1356h105l454 -1356l70 -8v-70h-240v70l70 8l-148 442h-522l-147 -442l69 -8v-70h-235zM418 598h471l-236 707z" />
<glyph unicode="B" horiz-adv-x="1163" d="M168 1364v70l555 -7q163 0 249 -87q85 -86 85 -228v-74q0 -93 -50 -172q-49 -77 -141 -108q105 -27 157 -109q53 -83 54 -180l4 -154v-13q0 -137 -82 -219q-85 -85 -249 -85h-580v70l68 10v1276zM338 788h352q143 0 204 70q60 69 60 178v68q0 107 -60 176q-61 70 -204 70 h-352v-562zM340 70h373q72 0 123 18q52 18 83 52t46 79q12 36 12 86v14l-4 144q-1 51 -17 99q-15 46 -45 79q-29 32 -81 51t-121 19h-369v-641z" />
<glyph unicode="C" horiz-adv-x="1155" d="M147 403v627q0 218 108 318q107 100 292 100l129 -4q177 0 283 -92q106 -93 114 -291h-102l-2 35q-6 75 -30 128q-25 54 -63 84q-39 30 -94 46q-49 14 -116 14h-91q-165 0 -246 -81t-81 -265v-612q0 -186 81 -269q81 -82 246 -82h91q142 0 222 71q78 70 83 230v43h102 q-1 -219 -109 -319q-107 -100 -290 -100h-127q-184 0 -291 100q-109 101 -109 319z" />
<glyph unicode="D" horiz-adv-x="1296" d="M168 0v70l70 8v1278l-70 8v70h580q181 0 290 -101t109 -317v-596q0 -108 -29 -189q-29 -80 -81 -131q-53 -51 -126 -75q-77 -25 -163 -25h-580zM342 78h377q164 0 245 82q80 81 80 268v578q0 187 -80 268q-81 82 -245 82h-377v-1278z" />
<glyph unicode="E" horiz-adv-x="1058" d="M168 -2v70l65 8v1280l-65 8v70h805v-150l-78 -2l-8 72h-551v-568h536v-77h-536v-633h551l8 71h78v-149h-805z" />
<glyph unicode="F" horiz-adv-x="1048" d="M168 -2v70l65 8v1280l-65 8v70h795v-150l-76 -2l-8 72h-541v-572h522v-77h-522v-629l70 -8v-70h-240z" />
<glyph unicode="G" horiz-adv-x="1232" d="M154 401v627q0 218 107 318t292 100h127q176 0 282 -92q105 -92 113 -293h-100l-2 35q-6 75 -30 128q-25 54 -63 84q-39 30 -94 46q-49 14 -116 14h-90q-166 0 -247 -81t-81 -265v-612q0 -186 81 -269q81 -82 247 -82h90q142 0 222 71q78 70 83 230v340h-357v78h457 l2 -377q-1 -218 -108 -319q-106 -100 -289 -100h-127q-184 0 -291 100q-108 101 -108 319z" />
<glyph unicode="H" horiz-adv-x="1359" d="M168 0v70l70 8v1278l-70 8v70h244v-70l-70 -8v-559h676v559l-70 8v70h244v-70l-70 -8v-1278l70 -8v-70h-244v70l70 8v641h-676v-641l70 -8v-70h-244z" />
<glyph unicode="I" horiz-adv-x="583" d="M168 1364v70h248v-70l-70 -8v-1278l70 -8v-70h-244v70l70 8v1278z" />
<glyph unicode="J" horiz-adv-x="1142" d="M72 395h102v-51q6 -147 74 -215t196 -68h68q146 0 216 82q71 83 71 269v944l-70 8v70h244v-70l-70 -8l-2 -953q0 -220 -98 -319q-99 -100 -262 -100h-111q-164 0 -260 96q-97 97 -98 315z" />
<glyph unicode="K" horiz-adv-x="1239" d="M168 0v70l70 8v1278l-70 8v70h244v-70l-70 -8v-570h236l411 648h127v-70l-69 -6l-373 -580h139q69 -6 121 -33q55 -28 88 -69q36 -45 53 -97q19 -57 19 -116v-385l71 -8v-70h-174v444q0 52 -12 99q-12 46 -44 84q-30 36 -86 59q-55 23 -136 23h-371v-631l70 -10v-68h-244 z" />
<glyph unicode="L" horiz-adv-x="1046" d="M166 -2v70l70 10v1276l-70 10v70h244v-70l-70 -10v-1278h545l12 104h76v-180z" />
<glyph unicode="M" horiz-adv-x="1673" d="M156 0v70l69 8v1278l-69 8v70h217l461 -1233l454 1233h215v-70l-69 -8v-1278l69 -8v-70h-243v70l69 8v1220l-471 -1298h-72l-471 1298v-1220l70 -8v-70h-229z" />
<glyph unicode="N" horiz-adv-x="1396" d="M158 0v70l69 8v1278l-69 8v70h166l755 -1241v1163l-73 8v70h233v-70l-72 -8v-1356h-94l-756 1247v-1169l70 -8v-70h-229z" />
<glyph unicode="O" d="M147 403v627q0 218 108 318q107 100 292 100h127q184 0 291 -100q108 -100 108 -318v-627q0 -107 -29 -188q-29 -82 -80 -131q-54 -53 -126 -76q-74 -24 -164 -24h-127q-184 0 -291 100q-109 101 -109 319zM250 412q0 -186 81 -269q81 -82 247 -82h65q164 0 245 82 t81 269v608q0 186 -81 268t-245 82h-65q-166 0 -247 -81t-81 -265v-612z" />
<glyph unicode="P" horiz-adv-x="1243" d="M168 0v70l70 8v1278l-70 8v70l590 2q77 0 140 -24q64 -24 106 -65q41 -39 66 -101q24 -58 24 -128v-125q0 -143 -90 -234t-246 -91h-416v-590l70 -8v-70h-244zM342 748h385q139 0 202 69q62 68 62 178v117q0 108 -62 176q-64 70 -202 70h-385v-610z" />
<glyph unicode="Q" horiz-adv-x="1228" d="M147 403v627q0 218 108 318q107 100 292 100l127 -2q184 0 291 -100q108 -100 108 -318v-627q0 -130 -43 -213q-44 -84 -119 -127h176v-77h-540q-184 0 -291 100q-109 101 -109 319zM248 410q0 -186 81 -269q79 -80 242 -80h4h105q148 11 218 93q71 83 71 256v608 q0 186 -81 268t-245 82h-68q-165 0 -246 -81t-81 -265v-612z" />
<glyph unicode="R" horiz-adv-x="1239" d="M168 0v70l70 8v1278l-70 8v70h590q164 0 251 -89t87 -229v-117q0 -104 -48 -182q-47 -76 -137 -110q88 -30 137 -109q48 -78 48 -172v-348l71 -8v-70h-174v420q0 118 -61 186q-62 70 -207 70h-383v-598l70 -10v-68h-244zM342 754h385q144 0 204 69t60 178v109 q0 107 -60 176q-61 70 -204 70h-385v-602z" />
<glyph unicode="S" horiz-adv-x="1087" d="M96 358h103l2 -43q17 -129 92 -187q76 -58 207 -58h92q323 0 323 303q0 75 -17 130q-18 60 -62 99q-45 42 -116 61q-64 17 -183 35q-78 10 -156 30q-75 19 -137 67q-53 44 -87 112t-34 176q0 176 104 270q106 95 287 95l84 6q173 0 276 -89q102 -89 113 -275h-102l-6 59 q-18 121 -95 175q-76 54 -202 54h-35q-159 0 -242 -72q-82 -72 -82 -221q0 -75 24 -127q25 -55 68 -88q44 -37 115 -56q68 -18 156 -30q119 -17 196 -43q81 -28 131 -73q59 -51 83 -129q24 -77 24 -174q0 -178 -104 -276q-103 -97 -287 -97h-133q-173 0 -282 89 q-108 88 -118 277z" />
<glyph unicode="T" horiz-adv-x="1083" d="M74 1278v156h936v-156h-76l-12 78h-328v-1278l70 -8v-70h-244v70l69 8v1278h-327l-12 -78h-76z" />
<glyph unicode="U" horiz-adv-x="1361" d="M168 1364v70h244v-70l-70 -8v-944q0 -186 80 -269q79 -82 240 -82h65q159 0 238 82t79 269v944l-69 8v70h229v-70l-71 -8v-953q0 -107 -29 -188q-28 -79 -79 -131q-50 -52 -121 -76q-70 -24 -156 -24h-119q-177 0 -284 100t-107 319v953z" />
<glyph unicode="V" horiz-adv-x="1290" d="M74 1364v70h245v-70l-71 -8l401 -1229l402 1229l-70 8v70h236v-70l-74 -8l-447 -1356h-106l-447 1356z" />
<glyph unicode="W" horiz-adv-x="1998" d="M74 1364v70h245v-70l-71 -8l352 -1217l363 1295h84l362 -1295l352 1217l-69 8v70h233v-70l-70 -8l-401 -1356h-104l-351 1235l-350 -1235h-104l-402 1356z" />
<glyph unicode="X" horiz-adv-x="1226" d="M72 -2v70l69 8l412 653l-393 627l-70 8v70h258v-70l-69 -8l335 -539l340 539l-69 8v70h250v-70l-70 -8l-395 -619l413 -659l70 -8v-70l-260 -2v70l70 8l-357 571l-354 -571l70 -8v-70h-250z" />
<glyph unicode="Y" horiz-adv-x="1230" d="M72 1364v70h258v-70l-70 -8l361 -651l362 651l-70 8v70h244v-70l-72 -10l-417 -736v-542l69 -8v-70h-250v70l70 8v540l-416 740z" />
<glyph unicode="Z" horiz-adv-x="1067" d="M82 0v78l764 1278h-651l-7 -80h-79v158h854v-78l-762 -1278h696l6 80h80v-158h-901z" />
<glyph unicode="[" horiz-adv-x="432" d="M102 -295v1831h228v-78l-137 2v-1677h137v-78h-228z" />
<glyph unicode="\" horiz-adv-x="946" d="M102 1434h99l643 -1434h-96z" />
<glyph unicode="]" horiz-adv-x="432" d="M102 -219h138v1677h-138v78h228v-1831l-228 -2v78z" />
<glyph unicode="^" horiz-adv-x="1001" d="M104 817l398 588l397 -588h-86l-309 461l-309 -461h-91z" />
<glyph unicode="_" horiz-adv-x="1079" d="M102 -154h875v-77h-875v77z" />
<glyph unicode="`" horiz-adv-x="471" d="M102 1440h136l131 -242h-88z" />
<glyph unicode="a" horiz-adv-x="1210" d="M129 391v244q0 211 91 308t243 97l102 4q110 0 183 -46q74 -47 108 -144v174h150v-63l-72 -9v-794q0 -57 16 -80q17 -25 72 -25h41v-71h-57q-85 0 -115 39q-31 40 -35 149q-34 -97 -107 -144q-71 -46 -184 -46h-102q-78 0 -137 23q-62 24 -106 74q-42 48 -67 127 q-24 76 -24 183zM223 410q0 -186 69 -269q69 -82 216 -82h49q146 0 215 82q70 84 70 269v213q0 184 -70 268q-69 82 -215 82h-49q-147 0 -216 -81t-69 -265v-217z" />
<glyph unicode="b" horiz-adv-x="1153" d="M147 1370v64h164v-570q35 92 107 134t170 42h102q151 0 242 -97q92 -98 92 -308v-244q0 -103 -25 -183q-24 -77 -68 -127t-106 -74q-59 -23 -135 -23h-102q-222 0 -291 188v-172h-78v1362zM313 406q0 -186 69 -269q69 -82 216 -82h49q146 0 215 82q70 84 70 269v212 q0 185 -70 269q-69 82 -215 82h-49q-147 0 -216 -81t-69 -267v-215z" />
<glyph unicode="c" horiz-adv-x="1040" d="M131 391v244q0 211 93 308t255 97h107q145 0 230 -78q87 -80 108 -249h-93l-6 51q-22 106 -83 156q-59 49 -160 49h-74q-147 0 -216 -81t-69 -265v-217q0 -186 69 -269q69 -82 216 -82h74q103 0 163 51q59 50 80 164l4 43h93q-21 -171 -107 -251q-84 -78 -229 -78h-107 q-162 0 -255 97t-93 310z" />
<glyph unicode="d" horiz-adv-x="1210" d="M127 389v244q0 211 91 308t243 97h102q99 0 171 -42q74 -43 108 -134v500l-72 8v64h164l-2 -1274q0 -57 16 -80q17 -25 72 -25h41v-71h-57q-40 0 -69 8q-28 8 -45 28q-19 22 -26 58q-9 43 -10 94q-33 -96 -108 -144q-71 -46 -183 -46h-102q-78 0 -137 23q-62 24 -106 74 q-42 48 -67 127q-24 76 -24 183zM219 408q0 -186 69 -269q69 -82 216 -82h49q146 0 215 82q70 84 70 269v213q0 184 -70 268q-69 82 -215 82h-49q-147 0 -216 -81t-69 -265v-217z" />
<glyph unicode="e" horiz-adv-x="1052" d="M131 391v244q0 211 93 308t255 97h109q160 0 253 -97t93 -306v-143h-711v-88q0 -186 69 -269q69 -82 216 -82h49q133 0 201 66q67 65 82 213h92q-16 -181 -106 -266q-88 -84 -240 -84h-107q-162 0 -255 97t-93 310zM225 565h621v70q-1 177 -74 256q-72 78 -213 78l-47 4 q-144 0 -214 -79q-72 -81 -73 -255v-74z" />
<glyph unicode="f" horiz-adv-x="600" d="M66 954v72h96v6q0 107 26 181q28 79 73 127q47 50 108 74t133 24h33v-72q-129 0 -204 -80q-76 -80 -77 -260h281v-72h-281v-882l72 -9v-63h-236v63l72 9v882h-96z" />
<glyph unicode="g" horiz-adv-x="1153" d="M129 391v244q0 210 92 308q91 97 242 97h102q112 0 184 -45q73 -46 107 -143v172h150v-61l-72 -9v-899q0 -106 -27 -184q-28 -81 -72 -128q-47 -50 -108 -74q-59 -23 -133 -23h-336v71h307q123 0 199 79q76 80 78 255v103q-38 -88 -108 -129q-71 -41 -169 -41h-102 q-76 0 -135 23q-62 24 -106 74t-68 127q-25 80 -25 183zM223 403q0 -184 70 -268q69 -82 215 -82h49q147 0 216 82t69 268v218q0 186 -69 267t-216 81l-49 -2q-146 0 -215 -82q-70 -84 -70 -269v-213z" />
<glyph unicode="h" horiz-adv-x="1243" d="M158 -2v63l71 9v1292l-71 8v64h164v-582q39 98 113 143q75 45 163 45h102q75 0 134 -23q61 -24 105 -74q45 -51 70 -127q25 -75 25 -181v-563l72 -9v-63h-164v618q0 185 -73 269q-72 82 -212 82h-49q-128 0 -207 -82t-79 -266v-551l71 -9v-63h-235z" />
<glyph unicode="i" horiz-adv-x="540" d="M158 -4v63l71 9v882l-71 8v64h164v-952l71 -11v-63h-235zM195 1294q0 29 17 46q18 18 44 18q28 0 46 -18q17 -17 17 -46q0 -27 -17 -44t-46 -17q-27 0 -44 17t-17 44z" />
<glyph unicode="j" horiz-adv-x="675" d="M150 -279q135 0 208 82q74 83 74 267v882l-72 9v63h164v-969q0 -107 -26 -181q-28 -79 -73 -127q-47 -50 -108 -74q-59 -23 -133 -23h-34v71zM391 1296q0 28 18 46t44 18q28 0 46 -18q17 -17 17 -46q0 -27 -17 -44t-46 -17q-27 0 -44 17q-18 18 -18 44z" />
<glyph unicode="k" horiz-adv-x="1056" d="M158 -2v63l71 9v1292l-71 8v64h164v-949l454 467l-69 9v63h249v-63l-73 -9l-303 -311l350 -571l71 -9v-63h-129l-356 582l-194 -197v-313l71 -9v-63h-235z" />
<glyph unicode="l" horiz-adv-x="530" d="M158 -2v63l71 9v1292l-71 8v64h164v-1362l71 -9v-63z" />
<glyph unicode="m" horiz-adv-x="1945" d="M147 0v63l72 9v882l-72 9v63h150v-184q38 103 116 152q77 48 175 48h102q107 0 188 -57t115 -184q35 125 117 182t190 57h103q74 0 133 -23q61 -24 105 -74q45 -51 70 -127q26 -78 26 -181v-563l71 -9v-63l-163 4v619q0 184 -73 268q-72 82 -212 82h-49q-128 0 -207 -82 q-80 -83 -80 -266v-551l72 -8v-64h-164v619q0 184 -73 268q-72 82 -212 82h-49q-128 0 -207 -82q-80 -83 -80 -266v-551l72 -9v-63h-236z" />
<glyph unicode="n" horiz-adv-x="1232" d="M147 -2v63l72 9v882l-72 9v63h150v-184q38 103 116 152q77 48 175 48h102q74 0 133 -23q62 -24 106 -74q43 -49 69 -127t26 -181v-563l72 -9v-63h-164v618q0 185 -73 269q-72 82 -212 82h-49q-128 0 -207 -82q-80 -83 -80 -266v-551l72 -9v-63h-236z" />
<glyph unicode="o" horiz-adv-x="1062" d="M131 391v244q0 211 93 308t255 97h107q160 0 254 -97t94 -308v-244q0 -213 -94 -310t-254 -97h-107q-162 0 -255 97t-93 310zM223 406q0 -186 69 -269q69 -82 216 -82h49q146 0 215 82q70 84 70 269v212q0 185 -70 269q-69 82 -215 82h-49q-147 0 -216 -81t-69 -265v-217 z" />
<glyph unicode="p" d="M156 950v72h57q82 0 115 -35q32 -34 37 -137q34 97 107 144q71 46 183 46l103 -2q78 0 137 -23q61 -24 105 -74t68 -127q24 -76 24 -183v-244q0 -210 -92 -308q-91 -97 -242 -97h-103q-99 0 -171 42t-107 134v-484l72 -8v-63h-236v63l72 8v1172q0 55 -17 80 q-17 24 -71 24h-41zM381 403q0 -184 70 -268q69 -82 215 -82h49q147 0 216 81q68 80 68 265v217q0 188 -68 269q-69 82 -216 82h-49q-146 0 -215 -82q-70 -84 -70 -269v-213z" />
<glyph unicode="q" horiz-adv-x="1153" d="M129 389v244q0 211 91 309t243 98h102q113 0 184 -46q73 -47 107 -144v174h78v-1348l72 -8v-63h-234v63l72 8v484q-34 -91 -108 -134q-72 -42 -171 -42h-102q-152 0 -243 97t-91 308zM223 399q0 -184 69 -265t216 -81h49q146 0 215 82q70 84 70 268v213q0 185 -70 269 q-69 82 -215 82h-49q-147 0 -216 -82q-69 -83 -69 -269v-217z" />
<glyph unicode="r" horiz-adv-x="745" d="M147 -2v63l72 9v882l-72 9v63h150v-195q44 104 134 157q92 54 220 54h37v-71l-53 -2q-59 0 -120 -22q-57 -20 -103 -65t-73 -110q-28 -68 -28 -154v-546l72 -9v-63h-236z" />
<glyph unicode="s" horiz-adv-x="901" d="M57 301h93l2 -37q8 -111 78 -162t169 -51h72q129 0 202 44q72 43 72 165q0 82 -45 129q-35 39 -98 62q-60 22 -160 34q-61 6 -151 25q-79 16 -137 70q-37 36 -55 78q-19 45 -19 116q0 67 25 116q25 50 72 84q44 33 108 50q60 16 135 16h69q67 0 124 -19q62 -21 103 -59 q42 -39 70 -101q27 -60 27 -142h-92l-2 49q-11 105 -78 153t-168 48h-29q-136 0 -204 -49q-70 -50 -70 -160q0 -47 15 -80q14 -30 40 -55q48 -41 114 -52q63 -10 130 -18q104 -12 181 -38q73 -25 118 -73q70 -68 70 -194q0 -74 -26 -124t-72 -83q-45 -32 -107 -47 q-57 -14 -135 -14h-115q-63 0 -120 19q-58 19 -104 58q-47 39 -74 100q-28 62 -28 142z" />
<glyph unicode="t" horiz-adv-x="600" d="M66 952v72h96v268h92v-268l278 4v-72h-280v-548q0 -187 76 -269t207 -82v-71h-33q-74 0 -133 23q-61 24 -108 74q-45 48 -73 127q-26 74 -26 181v561h-96z" />
<glyph unicode="u" horiz-adv-x="1206" d="M137 958v64h164v-614q0 -191 64 -272q63 -79 196 -79h17q55 0 115 20q62 21 106 62q48 45 77 109t29 158v546l-71 9v63h163v-952l72 -9v-63l-151 -2v207q-45 -110 -144 -166q-98 -55 -229 -55h-23q-71 0 -127 22q-57 22 -99 72q-43 50 -65 126q-22 75 -22 185v561z" />
<glyph unicode="v" horiz-adv-x="1075" d="M55 961v63h238v-63l-72 -9l322 -850l321 850l-71 9v63h225v-63l-72 -9l-362 -952h-95l-362 952z" />
<glyph unicode="w" horiz-adv-x="1759" d="M55 961v63h238v-63l-72 -9l297 -837l320 909h94l319 -909l297 837l-71 9v63h225v-63l-72 -9l-338 -952h-94l-319 907l-320 -907h-94l-338 952z" />
<glyph unicode="x" horiz-adv-x="968" d="M59 -2v63l72 9l301 442l-297 440l-72 9v63h254v-63l-71 -9l243 -368l252 368l-71 9v63h237v-63l-71 -9l-301 -430l305 -452l71 -9v-63h-254v63l72 9l-252 381l-252 -381l72 -9v-63h-238z" />
<glyph unicode="y" horiz-adv-x="1075" d="M55 961v63h238v-63l-72 -9l322 -852l321 852l-71 9v63h225v-63l-72 -7l-493 -1300h-250v74h196l103 272l-19 16l-356 936z" />
<glyph unicode="z" horiz-adv-x="854" d="M78 0v72l569 882h-481l-10 -84h-58v156h656v-72l-570 -882h523l10 84h59v-156h-698z" />
<glyph unicode="{" horiz-adv-x="724" d="M100 580v79h21q85 5 137 57q53 53 53 134v506q0 80 53 130t125 50h134v-78h-134q-35 0 -60 -26q-26 -28 -26 -72v-516q0 -76 -39 -134q-41 -61 -116 -89q75 -28 117 -90q41 -61 41 -134v-518q0 -43 25 -69q25 -27 61 -27h131v-78h-134q-72 0 -125 50t-53 130v506 q0 79 -53 132q-52 52 -137 57h-21z" />
<glyph unicode="|" horiz-adv-x="296" d="M102 -123v1557h93v-1557h-93z" />
<glyph unicode="}" horiz-adv-x="724" d="M100 -215h131q35 0 61 27q25 26 25 69v516q0 73 41 134q42 62 117 90q-75 28 -116 89q-40 59 -40 134v516q0 44 -25 70t-61 26h-131v80h131q73 0 126 -50t53 -130v-506q0 -79 53 -132q51 -51 137 -56h21v-80h-21q-85 -5 -137 -57q-53 -53 -53 -134v-506q0 -80 -53 -130 t-126 -50h-133v80z" />
<glyph unicode="~" horiz-adv-x="1167" d="M102 440q0 120 42 200q42 79 147 85q61 4 145 -30q90 -37 174 -79q68 -35 158 -74q74 -32 119 -28q37 0 59 15t34 42q10 22 15 62q4 31 4 74h66q0 -113 -35 -186t-129 -79q-62 -6 -145 28q-90 37 -174 79q-62 32 -159 76q-69 32 -120 30q-41 0 -67 -17q-28 -18 -42 -47 q-17 -34 -21 -69q-5 -43 -5 -82h-66z" />
<glyph unicode="&#xa1;" horiz-adv-x="329" d="M102 1055q0 26 18 44q17 17 44 17q29 0 46 -17t17 -44q0 -29 -17 -46q-18 -18 -46 -18q-26 0 -44 18t-18 46zM111 -336v1118h92v-1118h-92z" />
<glyph unicode="&#xa2;" horiz-adv-x="995" d="M104 393v244q0 203 87 300q86 96 235 101h35v191h90v-191l37 2q131 -5 209 -83q79 -79 100 -242h-92l-8 57q-23 105 -83 152q-61 47 -159 47h-74q-147 0 -216 -81q-68 -80 -68 -265v-217q0 -188 68 -269q69 -82 216 -82h74q103 0 162 49q60 49 82 160l6 49h92 q-18 -162 -98 -242q-78 -78 -209 -83h-37v-187h-90v187h-37q-149 5 -235 101q-87 97 -87 302z" />
<glyph unicode="&#xa3;" horiz-adv-x="1159" d="M102 2v80h80v590h-80v80h80v323q0 172 108 259t283 87l125 2q80 0 143 -23q67 -24 114 -67q50 -46 76 -104q28 -64 28 -137v-50h-105v66q0 110 -74 172q-75 63 -198 63h-78q-159 0 -237 -65q-80 -66 -80 -209v-317h323v-80h-323v-590h710v-80h-895z" />
<glyph unicode="&#xa5;" horiz-adv-x="1288" d="M100 1364v70h258v-70l-69 -8l360 -633l363 633l-70 8v70h244v-70l-74 -8l-313 -541h288v-78h-333l-54 -92l-2 -61h392v-78h-394v-432l70 -8v-70h-250v70l70 8v432h-393v78h391l-4 59l-54 94h-336v78h289l-309 541z" />
<glyph unicode="&#xa6;" horiz-adv-x="296" d="M102 -123v666h93v-666h-93zM102 770v664h93v-664h-93z" />
<glyph unicode="&#xa7;" horiz-adv-x="935" d="M102 1139v35q1 138 86 198q85 61 236 62l80 -4q141 0 219 -63t88 -212v-41h-104l-3 57q-8 108 -64 145q-58 38 -157 38h-30q-129 0 -190 -41q-60 -41 -60 -146v-16q2 -60 16 -95q15 -36 55 -73q43 -23 112 -48q44 -16 136 -48q73 -25 133 -54q65 -31 103 -69 q25 -24 45 -59q20 -36 25 -89q5 -54 -11 -117q-17 -70 -65 -149q43 -45 62 -99t20 -120v-70q-4 -73 -27 -121t-64 -76q-40 -27 -101 -39q-55 -11 -136 -11h-82q-153 2 -231 69q-77 67 -82 238v29h104l2 -60q7 -117 66 -159q56 -40 170 -40h30q56 0 110 7q47 6 77 24t45 52 q14 33 16 89v66q-2 56 -16 94q-15 39 -56 74q-49 27 -107 46q-64 21 -132 45q-77 27 -132 53q-65 30 -110 75q-25 25 -43 63q-18 37 -21 89q-3 50 12 116q15 67 58 148q-45 46 -63 93q-19 49 -19 114zM210 662q3 -41 18 -71q14 -29 38 -46q38 -33 91 -51q52 -17 110 -33 q55 -14 113 -27q50 -11 88 -31q43 71 59 129q14 53 8 97q-6 41 -25 67q-19 27 -40 43q-47 36 -126 58q-81 23 -159 45q-8 2 -30 9t-33 10q-28 9 -52 20v2q-35 -65 -50 -125q-13 -54 -10 -96z" />
<glyph unicode="&#xa8;" horiz-adv-x="581" d="M102 1296q0 28 18 46t44 18q28 0 46 -18q17 -17 17 -46q0 -27 -17 -44t-46 -17q-27 0 -44 17q-18 18 -18 44zM354 1296q0 28 18 46t44 18q28 0 46 -18q17 -17 17 -46q0 -27 -17 -44t-46 -17q-27 0 -44 17q-18 18 -18 44z" />
<glyph unicode="&#xa9;" horiz-adv-x="1294" d="M102 881q0 119 40 220q41 102 112 175q73 75 172 116q101 42 221 42t221 -42q99 -41 172 -116q71 -73 112 -175q40 -101 40 -220q0 -120 -40 -221q-41 -102 -112 -175q-72 -73 -172 -115q-101 -42 -221 -42q-121 0 -221 42t-172 115q-71 73 -112 175q-40 101 -40 221z M174 879q0 -105 33 -194q34 -91 94 -154t149 -100q87 -36 197 -36q111 0 199 36t149 100q62 65 95 154q32 86 32 196q0 107 -32 193q-33 89 -95 154q-61 64 -149 101q-87 37 -199 37v-2q-111 0 -197 -37q-89 -39 -149 -101q-60 -63 -94 -154q-33 -88 -33 -193zM354 786v189 q0 140 68 210q67 68 178 68h102q94 0 153 -62q61 -64 71 -179h-66l-2 28q-12 85 -58 122q-47 38 -118 38h-55q-105 0 -156 -52t-51 -175v-185q0 -124 51 -176q51 -53 156 -53h55q72 0 118 40q45 40 56 126l2 27h66q-10 -118 -71 -182q-59 -62 -153 -62h-100q-110 0 -178 69 q-68 70 -68 209z" />
<glyph unicode="&#xab;" horiz-adv-x="796" d="M102 532v68l285 229v-108l-184 -158l184 -151v-109zM410 528v68l284 229v-108l-184 -158l184 -151v-109z" />
<glyph unicode="&#xac;" horiz-adv-x="1052" d="M102 578v77h848v-333h-92v256h-756z" />
<glyph unicode="&#xad;" horiz-adv-x="751" d="M102 528v78h547v-78h-547z" />
<glyph unicode="&#xae;" horiz-adv-x="1294" d="M102 881q0 119 40 220q41 102 112 175q73 75 172 116q101 42 221 42t221 -42q99 -41 172 -116q71 -73 112 -175q40 -101 40 -220q0 -120 -40 -221q-41 -102 -112 -175q-72 -73 -172 -115q-101 -42 -221 -42q-121 0 -221 42t-172 115q-71 73 -112 175q-40 101 -40 221z M174 879q0 -105 33 -194q34 -91 94 -154t149 -100q87 -36 197 -36q111 0 199 36t149 100q62 65 95 154q32 86 32 196q0 107 -32 193q-33 89 -95 154q-61 64 -149 101q-87 37 -199 37v-2q-111 0 -197 -37q-89 -39 -149 -101q-60 -63 -94 -154q-33 -88 -33 -193zM365 520v41 l61 6v629l-61 6v41l352 2q69 0 112 -43t43 -112v-62q0 -122 -96 -149q51 -12 74 -51q22 -37 22 -95v-164l64 -8v-41h-123v203q0 59 -28 98q-27 37 -109 37h-189v-291l62 -6v-41h-184zM485 907h193q81 0 108 35q27 34 27 90v55q0 53 -31 82t-88 29h-209v-291z" />
<glyph unicode="&#xaf;" horiz-adv-x="731" d="M102 1370v72h529v-72h-529z" />
<glyph unicode="&#xb0;" horiz-adv-x="710" d="M102 1190q0 51 20 99q20 47 53 80q34 33 80 53q48 20 99 20q53 0 101 -20t81 -53t53 -80q19 -45 19 -99q0 -55 -19 -100q-20 -48 -53 -81q-34 -35 -81 -54q-45 -19 -101 -19q-54 0 -99 19t-80 54q-33 33 -53 81t-20 100zM178 1190q0 -74 48 -128t128 -54q82 0 130 54 t48 128t-48 127t-130 53q-80 0 -128 -53t-48 -127z" />
<glyph unicode="&#xb1;" horiz-adv-x="1067" d="M102 682v78h385v293h93v-293h385v-78h-385v-291h-93v291h-385zM104 0v78h861v-78h-861z" />
<glyph unicode="&#xb4;" horiz-adv-x="471" d="M104 1198l132 242h135l-178 -242h-89z" />
<glyph unicode="&#xb6;" horiz-adv-x="1232" d="M102 932v188q0 84 25 146q23 57 68 96q41 36 101 54q58 18 126 18h708v-78h-75v-1663h-92v1663h-295v-1663h-93v925h-153q-66 0 -126 17q-59 17 -101 53q-45 38 -68 97q-25 63 -25 147z" />
<glyph unicode="&#xb7;" horiz-adv-x="329" d="M102 930q0 28 18 46q17 17 44 17q29 0 46 -17t17 -46q0 -27 -17 -44q-18 -18 -46 -18q-26 0 -44 18t-18 44z" />
<glyph unicode="&#xb8;" horiz-adv-x="456" d="M104 -270h60q64 0 87 32t23 105v133h80l2 -143q0 -106 -40 -152q-41 -47 -136 -47h-76v72z" />
<glyph unicode="&#xbb;" horiz-adv-x="796" d="M104 313v109l185 151l-185 154v109l285 -230v-63zM410 309v109l184 151l-184 154v108l284 -229v-63z" />
<glyph unicode="&#xbf;" horiz-adv-x="1110" d="M102 94v56q0 90 23 150q22 58 60 97t86 65q54 29 98 54q39 24 66 43q35 25 57 54t38 75q15 44 15 103v51h92v-47q0 -51 -8 -101q-7 -45 -32 -90q-23 -41 -65 -82q-38 -37 -104 -76q-5 -3 -36 -20.5t-47 -25.5q-39 -20 -72 -53q-32 -32 -50 -80t-18 -122v-41 q0 -153 81 -228t236 -75h78q146 0 225 74q78 74 80 236v79h103v-57q0 -207 -107 -306t-285 -99l-124 -4q-176 0 -283 95t-107 275zM530 1116q0 26 18 44t46 18q26 0 44 -18q17 -17 17 -44q0 -29 -17 -46t-44 -17q-29 0 -46 17q-18 18 -18 46z" />
<glyph unicode="&#xc0;" horiz-adv-x="1304" d="M80 0v70l70 8l454 1356h105l454 -1356l70 -8v-70h-240v70l70 8l-148 442h-522l-147 -442l69 -8v-70h-235zM420 598h471l-236 707zM524 1849h135l132 -241h-89z" />
<glyph unicode="&#xc1;" horiz-adv-x="1304" d="M78 0v70l69 8l455 1356h105l454 -1356l70 -8v-70h-240v70l70 8l-148 442h-522l-147 -442l69 -8v-70h-235zM418 598h471l-236 707zM518 1608l131 241h135l-178 -241h-88z" />
<glyph unicode="&#xc2;" horiz-adv-x="1304" d="M80 0v70l70 8l454 1356h105l454 -1356l70 -8v-70h-240v70l70 8l-148 442h-522l-147 -442l69 -8v-70h-235zM358 1583l244 266h107l241 -266h-98l-197 209l-196 -209h-101zM420 598h471l-236 707z" />
<glyph unicode="&#xc3;" horiz-adv-x="1304" d="M78 2v70l69 8l455 1356h105l454 -1356l76 -8v-70h-246v70l70 8l-148 442h-522l-147 -442l69 -8v-70h-235zM369 1659q7 90 54 147q46 57 130 45q36 -5 63 -24q49 -34 60 -43q25 -20 53 -39q24 -16 47 -21q52 -6 76 30q26 39 33 95l65 2q-7 -91 -55 -149q-47 -57 -131 -45 q-37 5 -66 25t-59 44q-30 23 -49 36q-24 16 -45 20q-54 8 -78 -28q-26 -39 -33 -95h-65zM418 600h471l-236 707z" />
<glyph unicode="&#xc4;" horiz-adv-x="1304" d="M78 0v70l69 8l455 1356h105l454 -1356l70 -8v-70h-240v70l70 8l-148 442h-522l-147 -442l69 -8v-70h-235zM418 598h471l-236 707zM467 1790q0 29 17 46t44 17q29 0 46 -17q18 -18 18 -46q0 -26 -18 -44q-17 -17 -46 -17q-27 0 -44 17t-17 44zM719 1790q0 29 17 46t44 17 q29 0 46 -17q18 -18 18 -46q0 -26 -18 -44q-17 -17 -46 -17q-27 0 -44 17t-17 44z" />
<glyph unicode="&#xc5;" horiz-adv-x="1304" d="M74 -2v70l69 8l455 1356h104l455 -1356l70 -8v-70h-240v70l70 8l-148 442h-522l-147 -442l69 -8v-70h-235zM414 596h471l-236 707zM459 1671q0 42 14 74q15 35 41 61q27 27 61 42q37 16 76 16l-2 -2q39 0 77 -16q35 -15 61 -42q27 -28 41 -61q16 -37 16 -74 q0 -39 -16 -77q-14 -34 -41 -61t-61 -41q-36 -15 -75 -15q-82 0 -137 56t-55 140zM526 1669q0 -54 34 -91q35 -38 89 -38q53 0 89 38t36 91q0 49 -36 88t-89 39q-55 0 -89 -39q-34 -38 -34 -88z" />
<glyph unicode="&#xc6;" horiz-adv-x="1454" d="M76 0v70l69 8l455 1356h770v-150h-74l-8 72h-551v-568h537v-77h-537v-633h551l8 72h78v-150h-805v70l66 8v442h-246l-147 -442l69 -8v-70h-235zM416 598h219v657z" />
<glyph unicode="&#xc7;" horiz-adv-x="1155" d="M150 399v627q0 217 107 317q109 101 292 101h127q177 0 283 -92q106 -93 114 -291h-102l-2 35q-6 75 -30 128q-25 54 -63 84q-39 30 -94 46q-49 14 -116 14h-91q-165 0 -246 -81t-81 -265v-612q0 -186 81 -269q81 -82 246 -82h91q142 0 222 71q78 70 83 230v43l104 -4 q-2 -199 -90 -299q-87 -99 -242 -116v-131q0 -106 -40 -152q-41 -47 -136 -47h-75v72h59q64 0 87 32q24 33 24 105v117h-113q-184 0 -291 100q-108 100 -108 319z" />
<glyph unicode="&#xc8;" horiz-adv-x="1058" d="M170 -2v70l66 8v1280l-66 8v70h805v-150l-78 -2l-8 72h-551v-568h536v-77h-536v-633h551l8 71h78v-149h-805zM442 1849h136l131 -241h-88z" />
<glyph unicode="&#xc9;" horiz-adv-x="1058" d="M170 -2v70l66 8v1280l-66 8v70h805v-150l-78 -2l-8 72h-551v-568h536v-77h-536v-633h551l8 71h78v-149h-805zM436 1608l131 241h135l-178 -241h-88z" />
<glyph unicode="&#xca;" horiz-adv-x="1058" d="M172 -2v70l66 8v1280l-66 8v70h805v-150l-78 -2l-8 72h-551v-568h537v-77h-537v-633h551l8 71h78v-149h-805zM276 1583l244 266h107l241 -266h-98l-197 209l-196 -209h-101z" />
<glyph unicode="&#xcb;" horiz-adv-x="1058" d="M168 -2v70l65 8v1280l-65 8v70h805v-150l-78 -2l-8 72h-551v-568h536v-77h-536v-633h551l8 71h78v-149h-805zM385 1794q0 29 17 46q18 18 44 18q29 0 47 -18q17 -17 17 -46q0 -27 -17 -44t-47 -17q-27 0 -44 17t-17 44zM637 1794q0 29 17 46q18 18 44 18q28 0 46 -18 t18 -46q0 -26 -18 -44q-17 -17 -46 -17q-27 0 -44 17t-17 44z" />
<glyph unicode="&#xcc;" horiz-adv-x="604" d="M170 1849h135l131 -241h-88zM178 1364v70h248v-70l-70 -8v-1278l70 -8v-70h-244v70l70 8v1278z" />
<glyph unicode="&#xcd;" horiz-adv-x="604" d="M170 1608l131 241h135l-178 -241h-88zM182 1364v70h248v-70l-70 -8v-1278l70 -8v-70h-244v70l70 8v1278z" />
<glyph unicode="&#xce;" horiz-adv-x="929" d="M170 1583l244 266h106l242 -266h-98l-197 209l-197 -209h-100zM344 1364v70h248v-70l-70 -8v-1278l70 -8v-70h-244v70l70 8v1278z" />
<glyph unicode="&#xcf;" horiz-adv-x="712" d="M168 1792q0 29 17 46t44 17q29 0 46 -17q18 -18 18 -46q0 -26 -18 -44q-17 -17 -46 -17q-27 0 -44 17t-17 44zM229 1364v70h248v-70l-69 -8v-1278l69 -8v-70h-244v70l70 8v1278zM420 1792q0 29 17 46t44 17q29 0 46 -17q18 -18 18 -46q0 -26 -18 -44q-17 -17 -46 -17 q-27 0 -44 17t-17 44z" />
<glyph unicode="&#xd0;" horiz-adv-x="1310" d="M168 688v78h86v590l-70 8v70l580 -2q182 0 291 -101q108 -101 108 -317v-596q0 -111 -28 -189q-29 -80 -81 -131t-126 -75q-77 -25 -164 -25h-580v70l70 8v612h-86zM358 76h377q164 0 245 82t81 268v580q0 186 -81 268t-245 82h-377v-590h359v-78h-359v-612z" />
<glyph unicode="&#xd1;" horiz-adv-x="1396" d="M160 4v70l69 8v1278l-69 8v70h166l755 -1241v1163l-73 8v70h233v-70l-72 -8v-1356h-94l-756 1247v-1169l70 -8v-70h-229zM403 1661q7 89 55 147q46 57 130 45q36 -5 63 -24q49 -34 60 -43q6 -5 53 -40q23 -17 47 -22q52 -6 76 30q26 39 33 95l65 4q-7 -91 -55 -149 q-47 -57 -131 -45q-37 5 -66 25q-18 12 -59 45q-21 16 -49 35q-24 16 -45 20q-54 8 -78 -28q-26 -39 -33 -95h-66z" />
<glyph unicode="&#xd2;" d="M150 403v627q0 218 107 318t292 100h127q184 0 291 -100q108 -100 108 -318v-627q0 -110 -28 -188q-29 -80 -81 -131q-54 -53 -126 -76q-74 -24 -164 -24h-127q-184 0 -291 100q-108 100 -108 319zM252 412q0 -186 81 -269q81 -82 247 -82h65q164 0 245 82t81 269v608 q0 186 -81 268t-245 82h-65q-166 0 -247 -81t-81 -265v-612zM481 1849h135l132 -241h-89z" />
<glyph unicode="&#xd3;" d="M150 403v627q0 218 107 318t292 100h127q184 0 291 -100q108 -100 108 -318v-627q0 -110 -28 -188q-29 -80 -81 -131q-54 -53 -126 -76q-74 -24 -164 -24h-127q-184 0 -291 100q-108 100 -108 319zM252 412q0 -186 81 -269q81 -82 247 -82h65q164 0 245 82t81 269v608 q0 186 -81 268t-245 82h-65q-166 0 -247 -81t-81 -265v-612zM475 1608l131 241h135l-178 -241h-88z" />
<glyph unicode="&#xd4;" d="M150 403v627q0 218 107 318t292 100h127q184 0 291 -100q108 -100 108 -318v-627q0 -110 -28 -188q-29 -80 -81 -131q-54 -53 -126 -76q-74 -24 -164 -24h-127q-184 0 -291 100q-108 100 -108 319zM252 412q0 -186 81 -269q81 -82 247 -82h65q164 0 245 82t81 269v608 q0 186 -81 268t-245 82h-65q-166 0 -247 -81t-81 -265v-612zM315 1583l244 266h107l241 -266h-98l-197 209l-196 -209h-101z" />
<glyph unicode="&#xd5;" d="M150 408v626q0 218 107 318t292 100h127q184 0 291 -100q108 -100 108 -318v-626q0 -111 -28 -189q-29 -80 -81 -131q-54 -53 -126 -76q-74 -24 -164 -24h-127q-184 0 -291 100q-108 100 -108 320zM252 416q0 -186 81 -269q80 -81 247 -81h65q165 0 245 81q81 82 81 269 v608q0 186 -81 268t-245 82h-65q-166 0 -247 -81t-81 -265v-612zM328 1661q8 90 54 147t130 45q36 -5 63 -24q49 -34 60 -43q6 -5 53 -40q23 -17 47 -22q52 -6 76 30q26 39 33 95l65 4q-7 -91 -55 -149q-47 -57 -131 -45q-37 5 -66 25q-18 12 -59 45q-21 16 -49 35 q-24 16 -45 20q-54 8 -78 -28q-26 -39 -33 -95h-65z" />
<glyph unicode="&#xd6;" d="M147 403v627q0 218 108 318q107 100 292 100h127q184 0 291 -100q108 -100 108 -318v-627q0 -107 -29 -188q-29 -82 -80 -131q-54 -53 -126 -76q-74 -24 -164 -24h-127q-184 0 -291 100q-109 101 -109 319zM250 412q0 -186 81 -269q81 -82 247 -82h65q164 0 245 82 t81 269v608q0 186 -81 268t-245 82h-65q-166 0 -247 -81t-81 -265v-612zM424 1792q0 29 17 46t44 17q29 0 46 -17q18 -18 18 -46q0 -26 -18 -44q-17 -17 -46 -17q-27 0 -44 17t-17 44zM676 1792q0 29 17 46t44 17q29 0 46 -17q18 -18 18 -46q0 -26 -18 -44q-17 -17 -46 -17 q-27 0 -44 17t-17 44z" />
<glyph unicode="&#xd7;" horiz-adv-x="878" d="M102 356l273 273l-273 272l64 66l272 -273l273 273l65 -64l-272 -274l270 -273l-63 -63l-273 272l-272 -272z" />
<glyph unicode="&#xd8;" horiz-adv-x="1228" d="M154 403v627q0 218 107 318t292 100h127q111 0 194 -37l56 125h98l-74 -174q60 -51 93 -133q32 -80 32 -199v-627q0 -110 -28 -188q-29 -80 -81 -131q-54 -53 -126 -76q-74 -24 -164 -24h-127q-119 0 -203 39l-57 -125h-98l79 176q-120 104 -120 329zM258 412 q0 -159 61 -244l523 1161q-72 39 -191 39h-65q-166 0 -247 -81t-81 -265v-610zM389 106q77 -45 197 -45h65q164 0 245 82t81 269l2 608q0 164 -66 252z" />
<glyph unicode="&#xd9;" horiz-adv-x="1361" d="M168 1364v70h244v-70l-70 -8v-944q0 -186 80 -269q79 -82 240 -82h65q159 0 238 82t79 269v944l-69 8v70h229v-70l-71 -8v-953q0 -107 -29 -188q-28 -79 -79 -131q-50 -52 -121 -76q-70 -24 -156 -24h-119q-177 0 -284 100t-107 319v953zM561 1849h135l131 -241h-88z" />
<glyph unicode="&#xda;" horiz-adv-x="1361" d="M170 1364v70h244v-70l-70 -8v-944q0 -186 80 -269q79 -82 240 -82h65q159 0 238 82q80 83 80 269v944l-70 8v70h229v-70l-71 -8v-953q0 -107 -29 -188q-28 -79 -79 -131q-50 -52 -121 -76q-70 -24 -156 -24h-119q-177 0 -284 100t-107 319v953zM557 1608l131 241h135 l-178 -241h-88z" />
<glyph unicode="&#xdb;" horiz-adv-x="1361" d="M170 1364v70h244v-70l-70 -8v-944q0 -186 80 -269q79 -82 240 -82h65q159 0 238 82q80 83 80 269v944l-70 8v70h229v-70l-71 -8v-953q0 -107 -29 -188q-28 -79 -79 -131q-50 -52 -121 -76q-70 -24 -156 -24h-119q-177 0 -284 100t-107 319v953zM395 1583l244 266h106 l242 -266h-98l-197 209l-196 -209h-101z" />
<glyph unicode="&#xdc;" horiz-adv-x="1361" d="M168 1364v70h244v-70l-70 -8v-944q0 -186 80 -269q79 -82 240 -82h65q159 0 238 82t79 269v944l-69 8v70h229v-70l-71 -8v-953q0 -107 -29 -188q-28 -79 -79 -131q-50 -52 -121 -76q-70 -24 -156 -24h-119q-177 0 -284 100t-107 319v953zM506 1790q0 29 17 46t44 17 q29 0 46 -17q18 -18 18 -46q0 -26 -18 -44q-17 -17 -46 -17q-27 0 -44 17t-17 44zM758 1790q0 29 17 46t44 17q29 0 46 -17q18 -18 18 -46q0 -26 -18 -44q-17 -17 -46 -17q-27 0 -44 17t-17 44z" />
<glyph unicode="&#xdd;" horiz-adv-x="1230" d="M74 1364v70h258v-70l-70 -8l361 -651l362 651l-70 8v70h244v-70l-72 -10l-417 -736v-542l69 -8v-70h-250v70l70 8v540l-416 740zM485 1608l131 241h136l-179 -241h-88z" />
<glyph unicode="&#xde;" horiz-adv-x="1232" d="M168 0v70l72 8v1278l-72 8v70h244v-70l-72 -6v-182h408q77 0 140 -24t106 -67q45 -45 68 -101t23 -128v-125q0 -143 -90 -233t-245 -90h-408v-330l70 -8v-70h-244zM340 485h377q138 0 202 70q62 68 62 178v113q0 107 -63 179q-64 73 -201 73h-377v-613z" />
<glyph unicode="&#xdf;" horiz-adv-x="1241" d="M168 0v70l70 8v1012q0 177 106 262q107 86 285 86l127 4q76 0 145 -23q67 -23 117 -63q48 -40 78 -102q28 -59 28 -134v-65q0 -106 -51 -185q-52 -80 -155 -110q114 -28 177 -113q62 -83 62 -209v-96q0 -76 -29 -140q-29 -65 -80 -107q-53 -44 -126 -68q-77 -25 -164 -25 h-297v78h270q157 0 240 80q82 79 82 202v64q0 152 -83 221q-84 70 -243 70h-137v78h135q159 0 228 73q69 74 69 197v35q0 119 -79 189q-80 71 -214 71h-63q-157 0 -241 -67q-83 -66 -83 -208v-1085h-174z" />
<glyph unicode="&#xe0;" horiz-adv-x="1210" d="M131 391v244q0 211 91 308t243 97l102 4q110 0 183 -46q74 -47 108 -144v174h150v-63l-72 -9v-794q0 -57 16 -80q17 -25 72 -25h41v-71h-57q-40 0 -69 8q-26 7 -45 29t-26 57q-9 43 -10 94q-34 -97 -107 -144q-71 -46 -184 -46h-102q-78 0 -137 23q-62 24 -106 74 q-42 48 -67 127q-24 76 -24 183zM225 410q0 -186 69 -269q69 -82 216 -82h49q146 0 215 82q70 84 70 269v213q0 184 -70 268q-69 82 -215 82h-49q-147 0 -216 -81t-69 -265v-217zM469 1440h135l131 -242h-88z" />
<glyph unicode="&#xe1;" horiz-adv-x="1210" d="M131 391v244q0 211 91 308t243 97l102 4q110 0 183 -46q74 -47 108 -144v174h150v-63l-72 -9v-794q0 -57 16 -80q17 -25 72 -25h41v-71h-57q-40 0 -69 8q-26 7 -45 29t-26 57q-9 43 -10 94q-34 -97 -107 -144q-71 -46 -184 -46h-102q-78 0 -137 23q-62 24 -106 74 q-42 48 -67 127q-24 76 -24 183zM225 410q0 -186 69 -269q69 -82 216 -82h49q146 0 215 82q70 84 70 269v213q0 184 -70 268q-69 82 -215 82h-49q-147 0 -216 -81t-69 -265v-217zM463 1198l131 242h135l-178 -242h-88z" />
<glyph unicode="&#xe2;" horiz-adv-x="1210" d="M129 391v244q0 211 91 308t243 97l102 4q110 0 183 -46q74 -47 108 -144v174h150v-63l-72 -9v-794q0 -57 16 -80q17 -25 72 -25h41v-71h-57q-40 0 -69 8q-26 7 -45 29t-26 57q-9 43 -10 94q-34 -97 -107 -144q-71 -46 -184 -46h-102q-78 0 -137 23q-62 24 -106 74 q-42 48 -67 127q-24 76 -24 183zM223 410q0 -186 69 -269q69 -82 216 -82h49q146 0 215 82q70 84 70 269v213q0 184 -70 268q-69 82 -215 82h-49q-147 0 -216 -81t-69 -265v-217zM301 1174l244 266h106l242 -266h-98l-197 208l-197 -208h-100z" />
<glyph unicode="&#xe3;" horiz-adv-x="1210" d="M131 395v244q0 211 91 308t243 97l102 5q109 0 183 -47t108 -144v174h150v-63l-72 -8v-795q0 -57 16 -80q17 -25 72 -25h41v-71h-57q-40 0 -69 8q-26 7 -45 29t-26 57q-9 43 -10 94q-34 -97 -107 -144q-71 -46 -184 -46h-102q-78 0 -137 23q-62 24 -106 74 q-42 48 -67 127q-24 76 -24 183zM225 414q0 -186 69 -269q69 -82 216 -82h49q146 0 215 82q70 84 70 269v213q0 184 -70 268q-69 82 -215 82h-49q-147 0 -216 -81t-69 -265v-217zM313 1251q7 90 55 148q46 57 130 45q34 -5 63 -25q49 -34 60 -43q6 -5 53 -40q21 -16 47 -21 q52 -6 76 30q25 37 32 95l66 4q-8 -92 -55 -150q-47 -57 -131 -45q-35 5 -66 26q-29 20 -59 44q-30 23 -49 36q-21 14 -46 19q-54 8 -77 -27q-26 -39 -33 -96h-66z" />
<glyph unicode="&#xe4;" horiz-adv-x="1210" d="M129 391v244q0 211 91 308t243 97l102 4q110 0 183 -46q74 -47 108 -144v174h150v-63l-72 -9v-794q0 -57 16 -80q17 -25 72 -25h41v-71h-57q-40 0 -69 8q-26 7 -45 29t-26 57q-9 43 -10 94q-34 -97 -107 -144q-71 -46 -184 -46h-102q-78 0 -137 23q-62 24 -106 74 q-42 48 -67 127q-24 76 -24 183zM223 410q0 -186 69 -269q69 -82 216 -82h49q146 0 215 82q70 84 70 269v213q0 184 -70 268q-69 82 -215 82h-49q-147 0 -216 -81t-69 -265v-217zM412 1382q0 29 17 46q18 18 44 18q28 0 46 -18t18 -46q0 -26 -18 -44q-17 -17 -46 -17 q-27 0 -44 17t-17 44zM664 1382q0 29 17 46q18 18 44 18q28 0 46 -18q17 -17 17 -46q0 -27 -17 -44t-46 -17q-27 0 -44 17t-17 44z" />
<glyph unicode="&#xe5;" horiz-adv-x="1210" d="M125 389v244q0 211 91 308t243 97l102 4q109 0 182 -46q75 -48 109 -144v174h149v-63l-71 -9v-794q0 -57 16 -80q17 -25 72 -25h41v-71h-58q-39 0 -68 8q-28 8 -45 28q-19 22 -26 58q-9 43 -10 94q-33 -96 -108 -144q-71 -46 -183 -46h-102q-78 0 -137 23q-62 24 -106 74 t-68 127q-23 73 -23 183zM219 408q0 -186 69 -269q69 -82 216 -82h49q146 0 215 82q70 84 70 269v213q0 184 -70 268q-69 82 -215 82h-49q-147 0 -216 -81t-69 -265v-217zM367 1264q0 41 14 73q16 37 41 62q27 27 61 42q35 15 76 15l-2 -2q41 0 77 -15q35 -15 61 -42 q26 -28 41 -62q16 -37 16 -73q0 -39 -16 -77q-15 -36 -41 -62q-27 -27 -61 -41q-36 -15 -75 -15q-82 0 -137 56t-55 141zM434 1262q0 -55 34 -92t89 -37q53 0 89 37q36 38 36 92q0 49 -36 88t-89 39q-55 0 -89 -39q-34 -38 -34 -88z" />
<glyph unicode="&#xe6;" horiz-adv-x="1787" d="M129 391v244q0 211 91 308t243 97h104q109 0 183 -45t108 -143v172h78v-135q41 78 113 116q71 37 165 37h107q160 0 253 -97t93 -306v-143h-711v-88q0 -186 69 -269q69 -82 216 -82h49q134 0 201 66q67 65 82 213h92q-16 -182 -105 -266q-88 -84 -241 -84h-107 q-92 0 -165 38t-113 115v-137h-78v172q-34 -97 -107 -144q-71 -46 -184 -46h-102q-78 0 -137 23q-62 24 -106 74q-42 48 -67 127q-24 76 -24 183zM225 406q0 -186 69 -269q69 -82 216 -82h49q146 0 215 82q70 84 70 269v212q0 185 -70 269q-69 82 -215 82h-49 q-147 0 -216 -81t-69 -265v-217zM961 565h620v70q-1 177 -74 256q-72 78 -213 78l-47 4q-144 0 -214 -79q-71 -80 -72 -255v-74z" />
<glyph unicode="&#xe7;" horiz-adv-x="1040" d="M131 391v244q0 211 93 308t255 97h107q145 0 230 -78q87 -80 108 -249h-93l-6 51q-22 106 -83 156q-59 49 -160 49h-74q-147 0 -216 -81t-69 -265v-217q0 -186 69 -269q69 -82 216 -82h74q103 0 163 51q59 50 80 164l4 43h97q-17 -147 -85 -226t-182 -97v-133 q0 -107 -39 -152q-41 -47 -137 -47h-75v72h59q64 0 87 32q24 33 24 105v117h-99q-162 0 -255 97t-93 310z" />
<glyph unicode="&#xe8;" horiz-adv-x="1052" d="M131 391v244q0 211 93 308t255 97h109q160 0 253 -97t93 -306v-143h-711v-88q0 -186 69 -269q69 -82 216 -82h49q133 0 201 66q67 65 82 213h92q-16 -181 -106 -266q-88 -84 -240 -84h-107q-162 0 -255 97t-93 310zM225 565h621v70q-1 177 -74 256q-72 78 -213 78l-47 4 q-144 0 -214 -79q-72 -81 -73 -255v-74zM401 1440h136l131 -242h-88z" />
<glyph unicode="&#xe9;" horiz-adv-x="1052" d="M133 391v244q0 211 93 308t255 97h109q160 0 253 -97t93 -306v-143h-711v-88q0 -186 69 -269q69 -82 216 -82h49q133 0 201 66q67 65 82 213h92q-16 -181 -106 -266q-88 -84 -240 -84h-107q-162 0 -255 97t-93 310zM227 565h621v70q-1 177 -74 256q-72 78 -213 78l-47 4 q-144 0 -214 -79q-72 -81 -73 -255v-74zM397 1198l131 242h136l-179 -242h-88z" />
<glyph unicode="&#xea;" horiz-adv-x="1052" d="M133 391v244q0 211 93 308t255 97h109q160 0 253 -97t93 -306v-143h-711v-88q0 -186 69 -269q69 -82 216 -82h49q133 0 201 66q67 65 82 213h92q-16 -181 -106 -266q-88 -84 -240 -84h-107q-162 0 -255 97t-93 310zM227 565h621v70q-1 177 -74 256q-72 78 -213 78l-47 4 q-144 0 -214 -79q-72 -81 -73 -255v-74zM236 1174l243 266h107l241 -266h-98l-197 208l-196 -208h-100z" />
<glyph unicode="&#xeb;" horiz-adv-x="1052" d="M129 391v244q0 211 93 308t255 97h109q160 0 253 -97t93 -306v-143h-711v-88q0 -186 69 -269q69 -82 216 -82h49q133 0 201 66q67 65 82 213h92q-16 -181 -106 -266q-88 -84 -240 -84h-107q-162 0 -255 97t-93 310zM223 565h621v70q-1 177 -74 256q-72 78 -213 78l-47 4 q-144 0 -214 -79q-72 -81 -73 -255v-74zM344 1384q0 30 17 47t45 17q29 0 46 -17t17 -47q0 -27 -17 -44t-46 -17q-28 0 -45 17t-17 44zM596 1384q0 30 17 47t44 17q29 0 46 -17q18 -18 18 -47q0 -26 -18 -44q-17 -17 -46 -17q-27 0 -44 17t-17 44z" />
<glyph unicode="&#xec;" horiz-adv-x="587" d="M160 1440h135l131 -242h-88zM197 -2v63l71 9v882l-71 9v63h163v-952l72 -9v-63z" />
<glyph unicode="&#xed;" horiz-adv-x="575" d="M162 1198l131 242h135l-178 -242h-88zM170 -2v63l72 9v882l-72 9v63h164v-952l72 -9v-63z" />
<glyph unicode="&#xee;" horiz-adv-x="899" d="M158 1174l243 266h107l242 -266h-99l-196 208l-197 -208h-100zM344 -2v63l72 9v882l-72 9v63h164v-952l72 -9v-63z" />
<glyph unicode="&#xef;" horiz-adv-x="681" d="M158 1384q0 30 17 47t44 17q29 0 46 -17q18 -18 18 -47q0 -26 -18 -44q-17 -17 -46 -17q-27 0 -44 17t-17 44zM236 -2v63l71 9v882l-71 9v63h163v-952l72 -9v-63zM410 1384q0 30 17 47t44 17q29 0 46 -17q18 -18 18 -47q0 -26 -18 -44q-17 -17 -46 -17q-27 0 -44 17 t-17 44z" />
<glyph unicode="&#xf0;" horiz-adv-x="1097" d="M127 391v244q0 209 92 309q91 98 242 98h102q100 0 171 -41q72 -41 106 -129v156q-1 177 -78 257q-76 79 -199 79h-307v72h336q122 0 213 -74l92 90l53 -53l-96 -94q35 -47 56 -118q22 -74 22 -173v-645q0 -200 -94 -291q-95 -92 -254 -92h-123q-151 0 -242 97 q-92 98 -92 308zM219 406q0 -185 70 -269q69 -82 215 -82h49q147 0 216 82q69 83 69 266v215q0 186 -69 269q-69 82 -216 82h-49q-146 0 -215 -82q-70 -84 -70 -269v-212z" />
<glyph unicode="&#xf1;" horiz-adv-x="1232" d="M150 0v63l71 9v882l-71 9v63h149v-184q38 103 116 152q77 48 175 48h102q74 0 133 -23q62 -24 106 -74q43 -49 69 -127t26 -181v-563l72 -8v-64h-164v619q0 184 -73 268q-72 82 -212 82h-49q-128 0 -207 -82q-80 -83 -80 -266v-551l72 -9v-63h-235zM332 1249q8 91 54 148 t130 45q35 -5 64 -25q40 -28 59 -43q25 -20 53 -39q22 -15 47 -20q52 -6 76 30q26 39 33 95l65 2q-8 -92 -55 -150q-47 -57 -131 -45q-34 4 -65 26q-38 26 -60 44q-30 23 -49 36q-21 14 -45 19q-55 8 -78 -27q-26 -39 -33 -96h-65z" />
<glyph unicode="&#xf2;" horiz-adv-x="1062" d="M131 391v244q0 211 93 308t255 97h107q160 0 254 -97t94 -308v-244q0 -213 -94 -310t-254 -97h-107q-162 0 -255 97t-93 310zM223 406q0 -186 69 -269q69 -82 216 -82h49q146 0 215 82q70 84 70 269v212q0 185 -70 269q-69 82 -215 82h-49q-147 0 -216 -81t-69 -265v-217 zM401 1440h136l131 -242h-88z" />
<glyph unicode="&#xf3;" horiz-adv-x="1062" d="M133 391v244q0 211 93 308t255 97h107q160 0 254 -97t94 -308v-244q0 -213 -94 -310t-254 -97h-107q-162 0 -255 97t-93 310zM225 406q0 -186 69 -269q69 -82 216 -82h49q146 0 215 82q70 84 70 269v212q0 185 -70 269q-69 82 -215 82h-49q-147 0 -216 -81t-69 -265v-217 zM397 1198l131 242h136l-179 -242h-88z" />
<glyph unicode="&#xf4;" horiz-adv-x="1062" d="M131 391v244q0 211 93 308t255 97h107q160 0 254 -97t94 -308v-244q0 -213 -94 -310t-254 -97h-107q-162 0 -255 97t-93 310zM223 406q0 -186 69 -269q69 -82 216 -82h49q146 0 215 82q70 84 70 269v212q0 185 -70 269q-69 82 -215 82h-49q-147 0 -216 -81t-69 -265v-217 zM236 1174l243 266h107l241 -266h-98l-197 208l-196 -208h-100z" />
<glyph unicode="&#xf5;" horiz-adv-x="1062" d="M131 395v244q0 211 93 308t255 97h107q160 0 254 -97t94 -308v-244q0 -213 -94 -310t-254 -97h-107q-162 0 -255 97t-93 310zM223 410q0 -186 69 -269q69 -82 216 -82h49q146 0 215 82q70 84 70 269v213q0 184 -70 268q-69 82 -215 82h-49q-147 0 -216 -81t-69 -265v-217 zM250 1253q8 91 54 148t130 45q35 -5 64 -25q40 -28 59 -43q6 -5 53 -40q21 -16 47 -21q52 -6 76 30q26 39 33 95h63q-8 -92 -55 -150q-47 -57 -131 -45q-34 4 -65 26q-38 26 -60 44q-30 23 -49 36q-21 14 -45 19q-55 8 -78 -27q-26 -39 -33 -96z" />
<glyph unicode="&#xf6;" horiz-adv-x="1062" d="M131 391v244q0 211 93 308t255 97h107q160 0 254 -97t94 -308v-244q0 -213 -94 -310t-254 -97h-107q-162 0 -255 97t-93 310zM223 406q0 -186 69 -269q69 -82 216 -82h49q146 0 215 82q70 84 70 269v212q0 185 -70 269q-69 82 -215 82h-49q-147 0 -216 -81t-69 -265v-217 zM346 1384q0 29 18 47q17 17 44 17q29 0 46 -17t17 -47q0 -27 -17 -44t-46 -17q-27 0 -44 17q-18 18 -18 44zM598 1384q0 30 17 47t44 17q30 0 47 -17t17 -47q0 -27 -17 -44t-47 -17q-27 0 -44 17t-17 44z" />
<glyph unicode="&#xf7;" horiz-adv-x="1079" d="M102 508v78h875v-78h-875zM479 190q0 29 18 47q17 17 44 17q29 0 46 -17t17 -47q0 -27 -17 -44t-46 -17q-27 0 -44 17q-18 18 -18 44zM479 897q0 28 18 46t44 18q28 0 46 -18q17 -17 17 -46q0 -27 -17 -44t-46 -17q-27 0 -44 17q-18 18 -18 44z" />
<glyph unicode="&#xf8;" horiz-adv-x="1062" d="M131 391v244q0 211 93 308t255 97h107q66 0 112 -14l84 188h95l-97 -225q75 -46 115 -133q41 -90 41 -225v-244q0 -213 -94 -310t-254 -97h-107q-82 0 -145 24l-84 -186h-94l102 229q-60 45 -95 132q-34 84 -34 212zM223 399q0 -191 76 -274l371 823q-45 15 -111 15h-49 q-147 0 -216 -81t-69 -266zM369 74q59 -25 141 -25h49q146 0 215 82q70 84 70 268v213q0 217 -101 297z" />
<glyph unicode="&#xf9;" horiz-adv-x="1206" d="M139 956v64h164v-614q0 -191 64 -272q63 -79 196 -79h17q55 0 115 20q62 21 106 62q48 45 77 109t29 157v547l-71 8v64h163v-952l70 -11v-63h-149v207q-45 -110 -144 -166q-98 -55 -229 -55h-23q-71 0 -127 22q-57 22 -99 72q-43 50 -65 126q-22 75 -22 185v561z M473 1440h135l131 -242h-88z" />
<glyph unicode="&#xfa;" horiz-adv-x="1206" d="M139 956v64h164v-614q0 -191 64 -272q63 -79 196 -79h17q55 0 115 20q62 21 106 62q48 45 77 109t29 157v547l-71 8v64h163v-952l70 -11v-63h-149v207q-45 -110 -144 -166q-98 -55 -229 -55h-23q-71 0 -127 22q-57 22 -99 72q-43 50 -65 126q-22 75 -22 185v561z M469 1198l131 242h135l-178 -242h-88z" />
<glyph unicode="&#xfb;" horiz-adv-x="1206" d="M139 956v64h164v-614q0 -191 64 -272q63 -79 196 -79h17q55 0 115 20q62 21 106 62q48 45 77 109t29 157v547l-71 8v64h163v-952l70 -11v-63h-149v207q-45 -110 -144 -166q-98 -55 -229 -55h-23q-71 0 -127 22q-57 22 -99 72q-43 50 -65 126q-22 75 -22 185v561z M307 1174l244 266h106l242 -266h-98l-197 208l-196 -208h-101z" />
<glyph unicode="&#xfc;" horiz-adv-x="1206" d="M137 958v64h164v-614q0 -191 64 -272q63 -79 196 -79h17q55 0 115 20q62 21 106 62q48 45 77 109t29 158v546l-71 9v63h163v-952l70 -11v-63h-149v207q-45 -110 -144 -166q-98 -55 -229 -55h-23q-71 0 -127 22q-57 22 -99 72q-43 50 -65 126q-22 75 -22 185v561z M418 1382q0 29 17 46q18 18 44 18q28 0 46 -18t18 -46q0 -26 -18 -44q-17 -17 -46 -17q-27 0 -44 17t-17 44zM670 1382q0 29 17 46q18 18 44 18q28 0 46 -18t18 -46q0 -26 -18 -44q-17 -17 -46 -17q-27 0 -44 17t-17 44z" />
<glyph unicode="&#xfd;" horiz-adv-x="1075" d="M57 961v63h238v-63l-72 -9l320 -852l321 852l-71 9v63h225v-63l-70 -7l-493 -1300h-250v74h196l103 272l-19 16l-356 936zM395 1198l131 242h136l-179 -242h-88z" />
<glyph unicode="&#xfe;" horiz-adv-x="1241" d="M160 1362v72h51q104 0 146 -45t42 -148v-377q38 92 108 134q71 42 169 42h106q79 0 138 -23q61 -24 105 -74t68 -127q23 -73 23 -183v-244q0 -211 -91 -308t-243 -97h-102q-99 0 -171 42q-74 43 -108 134v-484l72 -8v-63h-235v63l71 8v1563q0 63 -18 93t-82 30h-49z M406 406q0 -186 69 -269q69 -82 215 -82h49q147 0 216 81t69 265v217q0 186 -69 269q-69 82 -216 82h-49q-146 0 -215 -82q-69 -83 -69 -269v-212z" />
<glyph unicode="&#xff;" horiz-adv-x="1075" d="M57 961v63h238v-63l-72 -9l320 -852l321 852l-71 9v63h225v-63l-70 -7l-493 -1300h-250v74h196l103 272l-19 16l-356 936zM344 1382q0 29 17 46q18 18 45 18q28 0 46 -18q17 -17 17 -46q0 -27 -17 -44t-46 -17q-28 0 -45 17t-17 44zM596 1382q0 29 17 46q18 18 44 18 q28 0 46 -18t18 -46q0 -26 -18 -44q-17 -17 -46 -17q-27 0 -44 17t-17 44z" />
<glyph unicode="&#x13f;" horiz-adv-x="1046" d="M166 -2v70l70 10v1276l-70 10v70h244v-70l-70 -10v-1278h545l12 104h76v-180zM815 973q0 28 18 46q17 17 44 17q29 0 46 -17t17 -46q0 -27 -17 -44q-18 -18 -46 -18q-26 0 -44 18t-18 44z" />
<glyph unicode="&#x140;" horiz-adv-x="702" d="M158 -2v63l71 9v1292l-71 8v64h164v-1362l71 -9v-63zM440 928q0 28 18 46q17 17 44 17q29 0 46 -17t17 -46q0 -27 -17 -44q-18 -18 -46 -18q-26 0 -44 18t-18 44z" />
<glyph unicode="&#x152;" horiz-adv-x="1820" d="M147 403v627q0 218 108 318q107 100 292 100l127 2q112 0 193 -40q84 -41 130 -124v150h740v-150h-78l-8 72h-551v-567h536v-78h-536v-633h551l8 72h78v-150h-740v148q-46 -85 -130 -126q-81 -40 -193 -40h-127q-184 0 -291 100q-109 101 -109 319zM250 414 q0 -186 81 -269q81 -82 247 -82h65q164 0 245 82q81 83 81 269v608q0 186 -81 268t-245 82h-65q-166 0 -247 -81t-81 -265v-612z" />
<glyph unicode="&#x153;" horiz-adv-x="1765" d="M129 391v244q0 211 93 308t255 97h107q108 0 187 -49t116 -153q37 105 115 153q79 49 190 49h108q160 0 253 -97q94 -99 94 -306v-133h-711v-98q0 -186 69 -269q69 -82 216 -82h49q135 0 203 68q67 67 79 219h93q-15 -186 -104 -272t-243 -86h-106q-111 0 -190 49 q-78 48 -115 153q-37 -104 -116 -153t-187 -49h-107q-162 0 -255 97t-93 310zM225 406q0 -186 69 -269q69 -82 216 -82h49q146 0 215 82q70 84 70 269v212q0 185 -70 269q-69 82 -215 82h-49q-147 0 -216 -81t-69 -265v-217zM936 573h620v64q-2 176 -72 254t-212 78h-51 q-141 0 -212 -78q-72 -79 -73 -252v-66z" />
<glyph unicode="&#x178;" horiz-adv-x="1230" d="M72 1364v70h258v-70l-70 -8l361 -651l362 651l-70 8v70h244v-70l-72 -10l-417 -736v-542l69 -8v-70h-250v70l70 8v540l-416 740zM436 1790q0 28 18 46q17 17 44 17q29 0 46 -17t17 -46q0 -27 -17 -44t-46 -17q-27 0 -44 17q-18 18 -18 44zM688 1790q0 28 18 46 q17 17 44 17q29 0 46 -17t17 -46q0 -27 -17 -44t-46 -17q-27 0 -44 17q-18 18 -18 44z" />
<glyph unicode="&#x2c6;" horiz-adv-x="796" d="M102 1176l244 266h107l241 -266h-98l-197 208l-196 -208h-101z" />
<glyph unicode="&#x2dc;" horiz-adv-x="782" d="M102 1235q7 89 55 147q46 57 130 45q36 -5 63 -24q49 -34 60 -43q6 -5 53 -40q23 -17 47 -22q52 -6 76 30q25 37 32 95l66 4q-7 -91 -55 -149q-47 -57 -131 -45q-37 5 -66 25q-18 12 -59 45q-21 16 -49 35q-24 16 -45 20q-54 8 -78 -28q-26 -39 -33 -95h-66z" />
<glyph unicode="&#x2000;" horiz-adv-x="932" />
<glyph unicode="&#x2001;" horiz-adv-x="1864" />
<glyph unicode="&#x2002;" horiz-adv-x="932" />
<glyph unicode="&#x2003;" horiz-adv-x="1864" />
<glyph unicode="&#x2004;" horiz-adv-x="621" />
<glyph unicode="&#x2005;" horiz-adv-x="466" />
<glyph unicode="&#x2006;" horiz-adv-x="310" />
<glyph unicode="&#x2007;" horiz-adv-x="310" />
<glyph unicode="&#x2008;" horiz-adv-x="233" />
<glyph unicode="&#x2009;" horiz-adv-x="372" />
<glyph unicode="&#x200a;" horiz-adv-x="103" />
<glyph unicode="&#x2010;" horiz-adv-x="751" d="M102 528v78h547v-78h-547z" />
<glyph unicode="&#x2011;" horiz-adv-x="751" d="M102 528v78h547v-78h-547z" />
<glyph unicode="&#x2012;" horiz-adv-x="751" d="M102 528v78h547v-78h-547z" />
<glyph unicode="&#x2013;" horiz-adv-x="995" d="M102 514v78h791v-78h-791z" />
<glyph unicode="&#x2014;" horiz-adv-x="1325" d="M102 514v78h1121v-78h-1121z" />
<glyph unicode="&#x2018;" horiz-adv-x="335" d="M102 1257q0 56 28 101q27 44 103 78l-2 -19q-20 -10 -38 -44q-19 -36 -23 -68q29 2 45 -16q16 -17 16 -42q0 -29 -17 -46t-44 -17q-68 0 -68 73z" />
<glyph unicode="&#x2019;" horiz-adv-x="335" d="M102 1194l2 18q22 11 39 44q19 36 23 69q-30 -2 -45 15q-17 19 -17 42q0 28 18 46t44 18q67 0 67 -74q0 -56 -27 -100q-27 -43 -104 -78z" />
<glyph unicode="&#x201a;" horiz-adv-x="335" d="M102 -145l2 20q21 11 39 43q19 34 23 68q-30 -2 -45 15q-17 19 -17 42q0 28 18 46q17 17 44 17q67 0 67 -73q0 -58 -27 -101q-26 -42 -104 -77z" />
<glyph unicode="&#x201c;" horiz-adv-x="530" d="M102 1257q0 56 28 101q27 44 103 78l-2 -19q-20 -10 -38 -44q-19 -36 -23 -68q29 2 45 -16q16 -17 16 -42q0 -29 -17 -46t-44 -17q-68 0 -68 73zM295 1260q0 55 28 100q27 44 103 78l-2 -19q-22 -11 -39 -44q-18 -34 -22 -68q29 2 45 -16q16 -17 16 -42q0 -29 -17 -46 t-45 -17q-67 0 -67 74z" />
<glyph unicode="&#x201d;" horiz-adv-x="530" d="M104 1192l2 18q22 11 39 44q19 36 23 69q-30 -2 -45 15q-17 19 -17 42q0 28 18 46t44 18q68 0 68 -74q0 -55 -28 -100q-27 -43 -104 -78zM299 1194l2 18q22 11 39 44t22 69q-30 -2 -45 15q-16 17 -16 42q0 29 17 46q18 18 44 18q68 0 68 -74q0 -55 -28 -100 q-27 -44 -103 -78z" />
<glyph unicode="&#x201e;" horiz-adv-x="514" d="M102 -145l2 18q22 11 39 44q19 36 23 69q-30 -2 -45 15q-17 19 -17 42q0 28 18 46q17 17 44 17q67 0 67 -73q0 -58 -27 -101q-26 -42 -104 -77zM285 -147l2 20q21 11 39 43q17 32 22 68q-30 -2 -45 15q-16 17 -16 42q0 29 17 46t44 17q68 0 68 -73q0 -56 -28 -101 q-26 -42 -103 -77z" />
<glyph unicode="&#x2022;" horiz-adv-x="671" d="M102 635q0 47 19 91q18 42 49 73t74 49q44 18 92 18t92 -18q43 -18 74 -49t49 -73t18 -91t-18 -92t-49 -74t-74 -49q-46 -19 -92 -19t-92 19q-43 18 -74 49t-49 74q-19 46 -19 92z" />
<glyph unicode="&#x2026;" horiz-adv-x="833" d="M102 45q0 28 18 46t44 18q28 0 46 -18q17 -17 17 -46q0 -27 -17 -44t-46 -17q-27 0 -44 17q-18 18 -18 44zM354 45q0 28 18 46t44 18q28 0 46 -18q17 -17 17 -46q0 -27 -17 -44t-46 -17q-27 0 -44 17q-18 18 -18 44zM606 45q0 28 18 46t44 18q28 0 46 -18q17 -17 17 -46 q0 -27 -17 -44t-46 -17q-27 0 -44 17q-18 18 -18 44z" />
<glyph unicode="&#x202f;" horiz-adv-x="372" />
<glyph unicode="&#x2039;" horiz-adv-x="489" d="M102 532v68l285 229v-108l-184 -158l184 -151v-109z" />
<glyph unicode="&#x203a;" horiz-adv-x="489" d="M102 309v109l185 151l-185 154v108l285 -229v-63z" />
<glyph unicode="&#x205f;" horiz-adv-x="466" />
<glyph unicode="&#x20ac;" horiz-adv-x="1222" d="M100 590v80h95v121h-95v79h95v170q2 214 109 311t290 97l125 2q177 0 286 -95q106 -93 111 -300v-19h-102v56q-8 147 -85 214q-77 66 -218 66h-90q-163 0 -245 -80q-81 -80 -81 -260v-162h561l-55 -79h-504v-121h387l-55 -80h-332v-178q0 -187 81 -268t247 -81h90 q140 0 219 68q78 67 84 219v56h102v-15q-4 -211 -110 -308t-289 -97h-127q-183 0 -291 99t-108 318v187h-95z" />
<glyph unicode="&#x2122;" horiz-adv-x="1685" d="M102 1288v146h543v-146h-59l-11 74h-159v-678l65 -8v-64h-223v64l66 8v678h-152l-10 -74h-60zM688 1368v66h193l262 -686l243 686h195v-66l-68 -10v-674l66 -8v-66h-221v66l65 8v641l-254 -715h-65l-273 715v-641l66 -8v-66h-207v66l64 8v676z" />
<glyph unicode="&#x25fc;" horiz-adv-x="1024" d="M0 0v1024h1024v-1024h-1024z" />
</font>
</defs>
</svg>
